/* XPM */
static char *result[] = {
/* columns rows colors chars-per-pixel */
"64 64 124 2 ",
"   c #231F1D",
".  c #2E281F",
"X  c #202020",
"o  c #2C2C2C",
"O  c #363021",
"+  c #3A3321",
"@  c #383838",
"#  c #400000",
"$  c #4C0000",
"%  c #580000",
"&  c #640000",
"*  c #700000",
"=  c #7C0000",
"-  c #543C1C",
";  c #453D24",
":  c #585400",
">  c #706C00",
",  c gray25",
"<  c #484848",
"1  c gray33",
"2  c #646463",
"3  c gray44",
"4  c #7C7C7C",
"5  c #880000",
"6  c #980000",
"7  c #A40000",
"8  c #B00000",
"9  c #BC0000",
"0  c #C80000",
"q  c #D40000",
"w  c #E00000",
"e  c #EC0000",
"r  c #FC0000",
"t  c #FC2020",
"y  c #A86840",
"u  c #848400",
"i  c #9C9C00",
"p  c #CCC400",
"a  c #E4D800",
"s  c #FCF400",
"d  c #BDA847",
"f  c #DD884E",
"g  c #DA8D5E",
"h  c #E18A4D",
"j  c #EF8F49",
"k  c #EE9E4D",
"l  c #F79246",
"z  c #F39048",
"x  c #F89D49",
"c  c #C7B24B",
"v  c #CCB64D",
"b  c #F9AD4D",
"n  c #E8AA53",
"m  c #FAB750",
"M  c #FABB51",
"N  c #D98F63",
"B  c #CEBD6C",
"V  c #CFBF7A",
"C  c #DDC654",
"Z  c #E8D04F",
"A  c #E4CC55",
"S  c #E4CE5B",
"D  c #FBC254",
"F  c #FCCC57",
"G  c #F5CB59",
"H  c #FCCF58",
"J  c #E7D051",
"K  c #EBD352",
"L  c #ECD358",
"P  c #F0D755",
"I  c #F2D956",
"U  c #FDD75A",
"Y  c #F5DC59",
"T  c #FADE5B",
"R  c #FEE35E",
"E  c #D6C46D",
"W  c #D8C56C",
"Q  c #D2C174",
"!  c #ECD567",
"~  c #F6DE6E",
"^  c #F9DF6A",
"/  c #ECD77F",
"(  c #EFD97C",
")  c #F3DC74",
"_  c #F1DA79",
"`  c #FCE164",
"'  c #F9E069",
"]  c gray55",
"[  c #918F89",
"{  c #979797",
"}  c #989898",
"|  c #BCB497",
" . c #BBB49B",
".. c #A0A0A0",
"X. c #AAAAAA",
"o. c #B7B4A7",
"O. c #B5B3AB",
"+. c #B9B5AD",
"@. c #BEBAAE",
"#. c #B5B5B5",
"$. c #B9B7B3",
"%. c #BCB9B2",
"&. c #BCBCBB",
"*. c #CE9D87",
"=. c #CD9F89",
"-. c #D2A48F",
";. c #C3B682",
":. c #C4BEAB",
">. c #D5C685",
",. c #D6C789",
"<. c #DCCD94",
"1. c #D2C79F",
"2. c #D6C99B",
"3. c #D8CA99",
"4. c #EAD682",
"5. c #E4D28B",
"6. c #CDC4A4",
"7. c #C6C0A9",
"8. c #C8C1A8",
"9. c #D0C6A0",
"0. c #C0C0BF",
"q. c #C1C1C1",
"w. c #CACACA",
"e. c #D0D0D0",
/* pixels */
"@ @ @ @ , @ @ @ @ @ @ @ @ @ @ @ @ @ @ @ @ @ @ @ @ @ @ @ @ @ @ @ @ @ @ @ @ @ @ @ @ @ @ @ @ @ @ @ @ @ @ @ @ @ @ @ @ @ , @ @ @ @ @ ",
"1 @ 1 < < < < < 1 < < < < < < 1 < @ < < < < < < < 1 1 1 1 1 1 < < < < < < < < < 1 1 1 1 1 1 1 < < < < @ @ @ < < 1 1 < < < < < @ ",
"@ e e q q q q q 0 q q q 7 < < 1 e e q 0 q q q q q q q q q q q q q q q q 7 < @ 1 e e e e w w w w e q q q q q q 0 0 0 0 9 9 9 7 < ",
"< s 0 8 8 q 5 6 q 5 0 7 & o < 1 e 9 5 9 5 9 5 9 = 9 6 9 6 9 = 9 = 9 0 7 * o < @ q 6 0 8 0 8 8 0 * 0 = 0 8 0 5 8 6 = 0 6 0 7 s o ",
"a p u #.#.#.&.#.#.#.#.#.#.#.#.#.#.#.#.#.#.#.#.#.#.#.#.#.#.#.#.#.#.#.#.#.#.#.#.#.#.#.#.#.#.#.#.#.#.#.#.#.#.#.#.#.#.#.#.#.#.p p > ",
"y i : 3 3 4 4 y 4 4 4 4 4 4 4 4 4 4 4 4 4 4 4 4 4 4 4 4 4 4 4 4 4 4 4 4 4 4 4 4 4 4 4 4 4 4 4 4 4 4 4 4 4 4 4 4 4 4 3 3 3 > g : ",
"< - 7 4 4 4 4 [ } } } } } } } } { } { { { { } } { { { { { { { { { { { { { { { { } } { { { { } } { { { { { } } } } 4 3 4 4 % y o ",
"< 9 = } 4 t 7     1 * * * * * & * * * * * * * * * * * * * * * * * * * * * * * * * * * * * * * * * * 7 8 r q y   $   4 q.3 % # o ",
"< 9 7 X.4 7 #.#.:.#.#.#.#.#.#.#.#.#.#.&.#.#.#.#.#.#.#.#.#.#.#.#.#.#.#.#.#.#.&.#.#.#.#.#.#.#.#.#.#.#.#.&.&.#.#.#.+.{ t 4 3 % # o ",
"< = & #.} # #.#.#.#.#.#.#.:.#.#.#.#.#.#.#.#.#.#.#.#.#.#.#.&.#.#.#.#.#.#.#.#.#.#.#.#.&.#.#.&.#.#.#.#.#.#.#.#.#.#.$.e.7 3 4 # # o ",
"< < o e.X.# #.#.#.#.#.#.#.#.#.#.#.#.#.#.#.#.#.#.#.#.#.&.#.#.#.#.#.#.#.#.#.#.#.%.#.#.#.#.#.#.#.%.#.#.#.#.#.#.#.#.$.4 # 4 } X X o ",
"1 @ @ e.#.1 &.#.#.#.#.#.#.#.#.#.#.&.#.#.#.#.#.&.#.&.#.#.#.#.#.%.%.3.4.) ' ' _ 5.9.#.#.#.#.#.#.#.#.#.#.#.#.#.#.#.#.2 1 ] X.X o o ",
"e q q #.e.# &.#.#.#.#.&.#.#.#.#.#.#.#.#.#.#.#.#.#.#.#.#.#.#.7.4.` R R R R R R R ` ' 5.%.#.#.#.#.&.#.#.#.#.#.#.&.&.4   { X.% % q ",
"8 5 5 #.e.* #.#.#.#.#.#.#.#.#.#.&.#.#.#.#.#.#.&.#.#.#.#.%.4.` R R R R R R R R R R R R ` 1.&.#.#.#.#.#.#.#.#.#.#.#.y $ X.#.% % 8 ",
"5 7 5 #.e.8 #.#.#.#.#.#.#.#.#.#.#.#.#.#.#.#.#.#.#.#.#.7.~ ` R R R R R R R R R R R R ` R R 4.%.#.#.#.#.#.#.#.#.#.#.] * X.#.% % 6 ",
"* 7 6 #.&.6 #.&.#.#.#.#.#.#.#.&.#.#.#.#.&.#.#.#.#.&.6.` R R R R R R R R R R R R R R R R R R ) %.#.#.&.#.#.&.#.#.#.] * X.#.% % = ",
"7 5 5 #.#.5 #.#.#.#.#.&.#.#.#.#.#.#.#.#.&.#.#.#.#.:.' R R R R R R R R R R R R R R R R R R R R / #.#.#.#.#.#.#.#.#.] * X.#.% % = ",
"* 7 & #.#.* #.#.#.#.#.#.#.#.#.#.#.#.#.#.#.#.#.#.%.4.R R R R R R R R R R R R R R R R R R R R R R 0.#.#.#.#.#.#.&.#.{ * #.#.$ % 5 ",
"* 8 & #.#.* #.#.#.#.#.#.#.#.#.#.#.#.#.#.#.&.#.#.8.` R R R R R R R R R R R R R R R R R R R R R R ( #.#.#.#.#.#.#.#.X.* #.$.% % * ",
"# $ $ #.#.* #.#.&.#.#.#.#.#.#.&.&.#.#.#.%.9.<.4.' R R R R R R R R R R R R R R R R R R R R R R R R 8.&.#.#.&.#.#.#.X.* #.#.# &   ",
"o o o #.#.* #.#.&.#.#.#.#.#.#.#.#.8.5.~ R R R R R R R R R R R R R R R R R R R R R R R R R R R R R 4.#.#.%.#.#.#.#.X.* #.#.X X o ",
"1 1 < #.#.* #.#.#.#.#.#.#.#.%.1.( R ` R R R R R R R R R R R R R R R R R R R R R R R R R R R R R ` ' #.#.#.#.#.#.#.X.* #.#.  o o ",
"1 e e q.q.= #.#.#.#.#.#.&.7.) R R R R R R R R R R R R R R R R R R R R R R R R R R R R R R R R R R R :.#.#.#.#.#.#.X.* #.$.% % o ",
"1 e 5 e.e.6 #.#.#.#.#.#.6.` R R R R R R R R R R R R R R R R R R R R R R R R R R R R R R R R ` R R R 8.#.#.#.&.#.#.X.= #.+.&   o ",
"@ e 8 0.q.5 #.#.#.#.#.7.` R R R R R R R R R R R R R R R R R R R R R R R R R R R R R R R R R R R v ^ 6.#.#.#.&.#.#.X.= #.#.%   . ",
"< 9 % #.#.= #.#.#.#.#.( R R R R R R R R R R R R R R R R R R R R R R R R R R R R R R R R R R R R [ C 6.#.#.#.#.#.#.#.5 #.#.% $ . ",
"< 9 8 #.#.* #.#.#.#.3.` R R R R R R R R R R R R R R R R R ` R R R R R R R R R R R R R R R R R A 4 C :.#.#.#.#.#.#.q.6 q.q.% # o ",
"1 9 * X.X.* #.#.#.#.' R R R R R R R R R R R R R R R R R R R R R R R R R R ` P v A R R R R R R A o Y &.#.#.#.#.#.#.w.6 e.e.% # o ",
"< 0 7 X.X.& #.#.#.6.R R R R R R R R R R R R R R R R R R R R R R R R R R R L + ..2 A R R R R R R C _ #.#.#.&.#.#.#.q.6 q.q.% # o ",
"< 7 6 { { $ #.#.&.5.R R R R R R R R R R R R R R R R R R R R R R R R R R R c . 2 @ d R R R R R R U 2.#.#.#.#.#.#.#.q.5 q.:.% # o ",
"< < @ X.X.% #.#.#.4.R R R R R R R R R R R R R R R R R R R R R R R R R R R L ;   O A R R R R G n f *.#.#.#.#.#.#.#.#.= #.#.X X o ",
"1 1 1 X.X.& #.#.#.4.R R R R R R R R R R R R R R R R R R R R R R R R R R R R L d L R R R U k f f f f +.#.#.#.#.#.#.#.* #.#.X o o ",
"9 9 9 #.#.* #.#.#.( R R R R R R R R R R R R R R R R R R R R R R R R R R R R R R R R R U x l h f f f =.#.#.#.#.#.#.#.* #.#.% % 9 ",
"7 8 7 #.#.* #.#.#.5.R R R R R R R R R R R R R R R R R R R R R R R R R R R R R R R R F l l l j f f f N #.#.#.#.#.#.X.& X.X.% % 7 ",
"7 = 5 #.#.* #.#.#.3.R R R R R R R R R R R R R R R R R R R R R R R R R R R R R R R M l l l l l z f f f #.#.&.#.#.#.{ % { { % % * ",
"5 = 6 #.#.* #.#.#.@.R R R R R R R R R R R R R R R R R R R R R R R R R R R R R R b l l l l l l l z h N #.#.#.#.#.#.{ $ ] ] % % * ",
"7 5 = #.#.* #.#.#.#.( R R R R R R R R R R R R R R R R R R K R R R R R R R R R H x l l l l l l l l l -.$.#.#.#.#.#.} % } { % % 5 ",
"7 5 = #.#.= #.#.#.#.3.R R R R R R R R R R R R R R R R R R Y Z I R R R R R R R R T m l l l l l l l m #.#.#.#.#.&.#.} & { { % % * ",
"* * 5 #.#.= #.#.#.#.@.Y R R R R R R R R R R R R R R R R R R R K Z I Y R R R R R R R T F D M M D U ` #.#.#.#.#.#.#.X.& X.X.% % * ",
"# # # #.#.5 &.#.#.%.#.,.R R R R R R R R R R R R R R R R R R R R R I I K K I I T R R R R R R R R R ~ #.#.#.#.#.#.#.#.& $.$.% &   ",
"o o o q.q.5 #.#.#.#.#.:.L R R R R R R R R R R R R R R R R R R R R R R R R R R R R R R R R R R R R 4.#.#.#.#.#.#.#.#.* #.#.X X o ",
"1 < 1 e.e.7 #.#.#.#.#.#.>.J R R R R R R R R R R R R R R R R R R R R R R R R R R R R R R R R R R R <.#.#.#.#.#.&.#.#.* #.#.X o o ",
"@ e q :.q.6 #.#.&.#.#.#.%.C J I R R R R R R R K R R R R R R R R R R R R R R R R R R R R R R R R R 7.#.#.#.#.#.#.#.q.5 q.q.% $ o ",
"1 q 7 #.#.6 #.&.#.#.#.#.#.6.J J K I R Y Y I Z Z R R R R R R R R R R R R R R R R R R R R R R R R ! #.#.#.&.#.#.#.#.:.5 q.q.% # o ",
"< q 7 #.#.5 #.#.#.&.#.#.#.#.Q Z Z Z Z Z Z Z Z K R R R R R R R R R R R R R R R R R R R R R R R Y ,.#.#.#.#.#.#.#.#.e.6 e.e.%   . ",
"< q 5 #.#.5 #.#.#.#.#.#.#.#.#.B Z Z Z Z Z Z Z I R R R R R R R R R R R R R R R R R R R R R R R J %.#.#.#.&.#.#.#.#.q.6 q.q.% $ . ",
"@ q 7 #.#.= #.#.#.#.#.#.#.#.#.#.;.Z Z Z Z Z K R R R R R R R R R R R R R R R R R R R R R R R Z 1.#.#.#.#.#.#.#.#.#.q.5 q.q.% # o ",
"1 q 6 X.X.* #.#.#.#.#.&.q.w.0.q.0.| K Z Z Z Z I Y R R R R R R R R R R R R R R R R R R R I Z <.w.w.w.w.&.#.#.#.#.#.#.* #.#.% # o ",
"@ 0 7 X.X.* #.#.#.#.q.w.w.w.0.0.0.0.#.E J J Z Z Z K R R R R R R R R R R R R R R R R Y J W &.w.w.w.w.w.w.w.#.#.#.#.#.* #.#.& # o ",
"1 7 & #.#.* #.#.#.w.w.w.w.w.0.0.0.0.q.&. .E Z Z Z Z Z Z K I R R R R R R R R R Y I Z Z Q #.q.w.w.w.w.w.w.w.q.#.#.#.#.* #.#.  # o ",
"@ < o #.#.* #.#.#.w.w.w.w.w.q.q.0.0.q.q.q.q.+.| S Z Z Z Z Z Z Z Z K K K K J J J J Q o.0.0.0.w.w.w.w.w.w.w.w.#.#.#.{ * #.#.X   o ",
"1 @ 1 #.#.* 4 #.#.#.q.w.w.w.w.q.q.q.q.q.q.0.q.q.0.o.;.W J Z Z J Z Z Z Z Z S V  .&.q.q.q.0.0.q.w.w.w.w.w.q.#.#.#.#.4 * #.#.X o o ",
"0 q q #.#.4 * 4 { #.#.&.q.w.w.w.q.q.q.q.q.&.q.q.0.0.q.0.&.$.O.O.O.O.+.$.&.q.0.0.q.0.0.0.q.q.q.w.w.w.q.&.#.#.#.{ 4 * 4 #.#.% % 9 ",
"= 7 % 4 #.#.4 * * * 4 { #.#.&.q.q.q.q.q.q.q.q.q.0.0.q.q.q.q.q.q.0.0.0.0.q.q.0.0.q.0.0.0.q.q.q.q.&.#.#.#.} ] * * * 4 { #.4 % % * ",
"7 = = % 4 #.#.#.{ 4 * * * * 4 { #.#.#.#.#.#.#.#.&.0.0.q.q.0.q.q.q.0.0.0.q.0.&.&.#.#.#.X.X.#.#.&.} 4 * * * * ] { #.#.#.4 % % % $ ",
"7 = % % % 1 4 #.#.#.#.#.} 4 * * * 4 { #.#.#.#.X.X.X.X.X.q.q.q.&.q.q.0.q.X.X.X.X.X.X.X.#.#.} 4 & * * 4 } #.#.#.#.#.4 1 % % % * 5 ",
"= 6 % % % % % 1 4 #.#.#.#.#.#.{ 4 * * * 4 { #.#.#.#.X.#.&.q.q.q.0.q.q.&.X.X.X.#.X.#.} 4 * * * y { #.#.#.#.#.4 1 % % % % % & * 7 ",
"& 7 = 7 & % & % % $ % 1 4 #.X.#.#.#.} 4 * * * 4 { #.#.#.#.w.w.w.w.w.w.&.#.#.#.{ 4 * * * 4 } #.O.#.#.#.4 1 % % % % % % * % 7 * 7 ",
"& 7 = = & 6 6 & % % % % % % 1 4 #.#.#.#.#.{ 4 * * * * 4 } &.q.w.w.q.#.} 4 * * * * 4 } #.#.#.#.+.4 1 % % % % % % % * 7 * % & 7 $ ",
"= 6 % 7 & & 5 & = = 7 % % % % % % # 1 4 #.#.#.#.#.{ 4 * * * 4 { { 4 * * * 4 { #.#.#.#.#.4 1   . o o % % % % 7 % 6 * 7 * 7 & 7 * ",
"$ $ $ $ $ $ $ $ $ $ $ $ $ $ $ $   $   X o 1 4 X.#.#.#.#.{ 4 * & * * 4 { #.#.#.#.4 1 $ $ $ # # X o o %   # $ $ $ $ $ $ $ $ $ $ $ ",
"o o o o o o o o o o o o o o o o o o .   X X X X o 1 4 #.#.#.#.#.#.#.#.X.#.4 1 X X X X X o X X X o o . . o o o o o X X X X X o o ",
"@ 1 @ 1 @ @ @ < < < < < 1 @ @ @ @ o o o o o o o X X X X X 1 4 #.#.4 1 o X X X X X o o o o o o o o @ ; < < 1 < < < < , @ , < < < ",
"1 1 1 1 1 1 1 1 1 1 1 1 1 1 1 1 1 1 1 < @ @ @ o o X X X X X X X X X X X X X X X X X o @ @ @ < < 1 1 1 1 1 1 1 1 1 1 1 1 1 1 1 1 "
};
