/* XPM */
static char *door_opening_61665409709[] = {
/* columns rows colors chars-per-pixel */
"64 64 10 1 ",
"  c magenta",
". c #464D4F",
"X c #383F40",
"o c #382B2F",
"O c #2F1C17",
"+ c #62797E",
"@ c #536265",
"# c #8C948F",
"$ c #9FA7A1",
"% c #3F4748",
/* pixels */
"                                                        ........",
"                                                        XXXXXXXX",
"                                                        XXXXXXXX",
"                                                        XXXoOOOO",
"                                                        XXXOXXXX",
"                                                        XXXOXXXX",
"                                                        XXXOXXXX",
"                                                        ...o....",
"                                                        XXXOXXXX",
"                                                        ...o....",
"                                                        ...o....",
"                                                        ...X....",
"                                                        ...o....",
"                                                        ...X....",
"                                                        ...X....",
"                                                        ...X...+",
"                                                        ...X..@.",
"                                                        ...X.@..",
"                                                        ........",
"                                                        ........",
"                                                        ........",
"                                                        ........",
"                                                        ....oooo",
"                                                        ...oX...",
"                                                        ...o....",
"                                                        ...o..#$",
"                                                        ...o..$$",
"                                                        ...o..$$",
"                                                        ...o..$$",
"                                                        ...o..#$",
"                                                        ...X..%X",
"                                                        ...o....",
"                                                        ...X..#$",
"                                                        ...X..$$",
"                                                        ...X..#$",
"                                                        ...X..%X",
"                                                        ........",
"                                                        .....@@@",
"                                                        ........",
"                                                        ........",
"                                                        ........",
"                                                        ....oooo",
"                                                        ...oX...",
"                                                        XXXOXXXX",
"                                                        XXXOXXXX",
"                                                        XXXOXXXX",
"                                                        XXXOXXXX",
"                                                        ...o....",
"                                                        ...o....",
"                                                        ...X....",
"                                                        ...o....",
"                                                        ...X....",
"                                                        ...X....",
"                                                        ...X...+",
"                                                        ...X..+.",
"                                                        ...X.@..",
"                                                        ........",
"                                                        ........",
"                                                        ........",
"                                                        ........",
"                                                        XXXXXXXX",
"                                                        XXXXXXXX",
"                                                        XXXXXXXX",
"                                                        oOOOOOOo"
};
