/* XPM */
static char *door_opening_01665409709[] = {
/* columns rows colors chars-per-pixel */
"64 64 21 1 ",
"  c magenta",
". c #464D4F",
"X c #383F40",
"o c #382B2F",
"O c #2F1C17",
"+ c #536265",
"@ c #62797E",
"# c #8C948F",
"$ c #9FA7A1",
"% c #3F4748",
"& c #889C9E",
"* c #141413",
"= c #242A2B",
"- c #191B1D",
"; c #0C3A00",
": c #238F00",
"> c #AE260B",
", c #BD541F",
"< c #792429",
"1 c #66A916",
"2 c #146836",
/* pixels */
"        ...............X.X.X............X.......................",
"        XXXXXXXXXXXXXXXXXXXXXXXXXXXXXXXXXXXXXXXXXXXXXXXXXXXXXXXX",
"        XXXXXXXXXXXXXXXXXXXXXXXXXXXXXXXXXXXXXXXXXXXXXXXXXXXXXXXX",
"        XXXoOOOOOOoOoOooooXXXXXOOOOOOOOOOOOOOOoOoOoOooooooooooXX",
"        XXXOXXXXXXXXXXXXXXXXXXOXXXXXXXXXXXXXXXXXXXXXXXXXXXXXXXXX",
"        XXXOXXXXXXXXXXXXX+XXXOXXXXXXXXXXXXXXXXXXXXXXXXXXXXXXX+XX",
"        XXXOXXXXXXXXXXXX+XXXOXXXXXXXXXXXXXXXXXXXXXXXXXXXXXXX+XXX",
"        ...o...........@...o...............................+...o",
"        XXXOXXXXXXXXXX@XXXOXXXXXXXXXXXXXXXXXXXXXXXXXXXXXXX@XXXOX",
"        ...o.........@...o...............................@...o..",
"        ...o........@...o...............................+...o...",
"        ...X.......@...o...............................@...o....",
"        ...o......@...o...............................@...o.....",
"        ...X.....@...o...............................@...o......",
"        ...X....@...o...............................@...o.......",
"        ...X...@...X...............................@...X........",
"        ...X..+...X...............................@...X.........",
"        ...X.+...................................@..............",
"        ..........++++++++++++@+@+@@@@@@@@@@@@@@+.....++@+@@@@@@",
"        ........................................................",
"        ........................................................",
"        ........................................................",
"        ....oooooooooooooooooooXoXoXoXooooooooooooooooooooXoXX..",
"        ...oX...................................................",
"        ...o.................................................+..",
"        ...o..#$$$$$$$$$$#%..+&&@@@++.......................+...",
"        ...o..$$X*XX$*$X$$X..&.......X.....................+...X",
"        ...o..$$$$$$$$$$$$X..&.=--*-.X....................+...X.",
"        ...o..$$X$**XX$$$$X..@.--;:*.X...................@...o..",
"        ...o..#$$$$$$$$$$#X..@.-***-.X..................@...o...",
"        ...X..%XXXXXXXXXXX%..@.......o.................@...o....",
"        ...o.................+.>.>.,.X................@...o.....",
"        ...X..#$$$$$$#%......@.......o...............@...o......",
"        ...X..$$*X$X$$X......+.<.1.2.o..............@...X.......",
"        ...X..#$$$$$$#X......+.......o.............@...X........",
"        ...X..%XXXXXXX%.......XXoooooX............@...X.........",
"        .........................................@..............",
"        .....++++++@+@+@@@@@@@@@@@@@@@@@@+@+@+@@+.....+++@+@+@@@",
"        ........................................................",
"        ........................................................",
"        ........................................................",
"        ....ooooooXoXoXXXX.....XooooooooooooooooooooooooXoXoXXXX",
"        ...oX.................o.................................",
"        XXXOXXXXXXXXXXXXX.XXXOXXXXXXXXXXXXXXXXXXXXXXXXXXXXXXXXXX",
"        XXXOXXXXXXXXXXXX.XXXOXXXXXXXXXXXXXXXXXXXXXXXXXXXXXXXXXXX",
"        XXXOXXXXXXXXXXX+XXXOXXXXXXXXXXXXXXXXXXXXXXXXXXXXXXXXXXXX",
"        XXXOXXXXXXXXXX+XXXOXXXXXXXXXXXXXXXXXXXXXXXXXXXXXXXXXXXXX",
"        ...o.........@...o......................................",
"        ...o........@...o.......................................",
"        ...X.......@...o........................................",
"        ...o......@...o.........................................",
"        ...X.....@...o..........................................",
"        ...X....@...o...........................................",
"        ...X...@...X............................................",
"        ...X..@...X.............................................",
"        ...X.+..................................................",
"        ..........++++++++++++@+@+@@@@@@@@@@@@@@@@@@@@@@+@+@@@@@",
"        ........................................................",
"        ........................................................",
"        ........................................................",
"        XXXXXXXXXXXXXXXXXXXXXXXXXXXXXXXXXXXXXXXXXXXXXXXXXXXXXXXX",
"        XXXXXXXXXXXXXXXXXXXXXXXXXXXXXXXXXXXXXXXXXXXXXXXXXXXXXXXX",
"        XXXXXXXXXXXXXXXXXXXXXXXXXXXXXXXXXXXXXXXXXXXXXXXXXXXXXXXX",
"        oOOOOOOoOoOoooooOOO****O****o*ooooooooooOoOooOoOoOOOOOOo"
};
