/* XPM */
static char *door_opening_41665409709[] = {
/* columns rows colors chars-per-pixel */
"64 64 16 1 ",
"  c magenta",
". c #464D4F",
"X c #383F40",
"o c #382B2F",
"O c #2F1C17",
"+ c #536265",
"@ c #62797E",
"# c #8C948F",
"$ c #9FA7A1",
"% c #3F4748",
"& c #889C9E",
"* c #141413",
"= c #242A2B",
"- c #191B1D",
"; c #AE260B",
": c #792429",
/* pixels */
"                                        ...............X.X.X....",
"                                        XXXXXXXXXXXXXXXXXXXXXXXX",
"                                        XXXXXXXXXXXXXXXXXXXXXXXX",
"                                        XXXoOOOOOOoOoOooooXXXXXO",
"                                        XXXOXXXXXXXXXXXXXXXXXXOX",
"                                        XXXOXXXXXXXXXXXXX+XXXOXX",
"                                        XXXOXXXXXXXXXXXX+XXXOXXX",
"                                        ...o...........@...o....",
"                                        XXXOXXXXXXXXXX@XXXOXXXXX",
"                                        ...o.........@...o......",
"                                        ...o........@...o.......",
"                                        ...X.......@...o........",
"                                        ...o......@...o.........",
"                                        ...X.....@...o..........",
"                                        ...X....@...o...........",
"                                        ...X...@...X............",
"                                        ...X..+...X.............",
"                                        ...X.+..................",
"                                        ..........++++++++++++@+",
"                                        ........................",
"                                        ........................",
"                                        ........................",
"                                        ....oooooooooooooooooooX",
"                                        ...oX...................",
"                                        ...o....................",
"                                        ...o..#$$$$$$$$$$#%..+&&",
"                                        ...o..$$X*XX$*$X$$X..&..",
"                                        ...o..$$$$$$$$$$$$X..&.=",
"                                        ...o..$$X$**XX$$$$X..@.-",
"                                        ...o..#$$$$$$$$$$#X..@.-",
"                                        ...X..%XXXXXXXXXXX%..@..",
"                                        ...o.................+.;",
"                                        ...X..#$$$$$$#%......@..",
"                                        ...X..$$*X$X$$X......+.:",
"                                        ...X..#$$$$$$#X......+..",
"                                        ...X..%XXXXXXX%.......XX",
"                                        ........................",
"                                        .....++++++@+@+@@@@@@@@@",
"                                        ........................",
"                                        ........................",
"                                        ........................",
"                                        ....ooooooXoXoXXXX.....X",
"                                        ...oX.................o.",
"                                        XXXOXXXXXXXXXXXXX.XXXOXX",
"                                        XXXOXXXXXXXXXXXX.XXXOXXX",
"                                        XXXOXXXXXXXXXXX+XXXOXXXX",
"                                        XXXOXXXXXXXXXX+XXXOXXXXX",
"                                        ...o.........@...o......",
"                                        ...o........@...o.......",
"                                        ...X.......@...o........",
"                                        ...o......@...o.........",
"                                        ...X.....@...o..........",
"                                        ...X....@...o...........",
"                                        ...X...@...X............",
"                                        ...X..@...X.............",
"                                        ...X.+..................",
"                                        ..........++++++++++++@+",
"                                        ........................",
"                                        ........................",
"                                        ........................",
"                                        XXXXXXXXXXXXXXXXXXXXXXXX",
"                                        XXXXXXXXXXXXXXXXXXXXXXXX",
"                                        XXXXXXXXXXXXXXXXXXXXXXXX",
"                                        oOOOOOOoOoOoooooOOO****O"
};
