/* XPM */
static char *door_opening_21665409709[] = {
/* columns rows colors chars-per-pixel */
"64 64 21 1 ",
"  c magenta",
". c #464D4F",
"X c #383F40",
"o c #382B2F",
"O c #2F1C17",
"+ c #536265",
"@ c #62797E",
"# c #8C948F",
"$ c #9FA7A1",
"% c #3F4748",
"& c #889C9E",
"* c #141413",
"= c #242A2B",
"- c #191B1D",
"; c #0C3A00",
": c #238F00",
"> c #AE260B",
", c #BD541F",
"< c #792429",
"1 c #66A916",
"2 c #146836",
/* pixels */
"                        ...............X.X.X............X.......",
"                        XXXXXXXXXXXXXXXXXXXXXXXXXXXXXXXXXXXXXXXX",
"                        XXXXXXXXXXXXXXXXXXXXXXXXXXXXXXXXXXXXXXXX",
"                        XXXoOOOOOOoOoOooooXXXXXOOOOOOOOOOOOOOOoO",
"                        XXXOXXXXXXXXXXXXXXXXXXOXXXXXXXXXXXXXXXXX",
"                        XXXOXXXXXXXXXXXXX+XXXOXXXXXXXXXXXXXXXXXX",
"                        XXXOXXXXXXXXXXXX+XXXOXXXXXXXXXXXXXXXXXXX",
"                        ...o...........@...o....................",
"                        XXXOXXXXXXXXXX@XXXOXXXXXXXXXXXXXXXXXXXXX",
"                        ...o.........@...o......................",
"                        ...o........@...o.......................",
"                        ...X.......@...o........................",
"                        ...o......@...o.........................",
"                        ...X.....@...o..........................",
"                        ...X....@...o...........................",
"                        ...X...@...X............................",
"                        ...X..+...X.............................",
"                        ...X.+..................................",
"                        ..........++++++++++++@+@+@@@@@@@@@@@@@@",
"                        ........................................",
"                        ........................................",
"                        ........................................",
"                        ....oooooooooooooooooooXoXoXoXoooooooooo",
"                        ...oX...................................",
"                        ...o....................................",
"                        ...o..#$$$$$$$$$$#%..+&&@@@++...........",
"                        ...o..$$X*XX$*$X$$X..&.......X..........",
"                        ...o..$$$$$$$$$$$$X..&.=--*-.X..........",
"                        ...o..$$X$**XX$$$$X..@.--;:*.X..........",
"                        ...o..#$$$$$$$$$$#X..@.-***-.X..........",
"                        ...X..%XXXXXXXXXXX%..@.......o..........",
"                        ...o.................+.>.>.,.X..........",
"                        ...X..#$$$$$$#%......@.......o..........",
"                        ...X..$$*X$X$$X......+.<.1.2.o..........",
"                        ...X..#$$$$$$#X......+.......o..........",
"                        ...X..%XXXXXXX%.......XXoooooX..........",
"                        ........................................",
"                        .....++++++@+@+@@@@@@@@@@@@@@@@@@+@+@+@@",
"                        ........................................",
"                        ........................................",
"                        ........................................",
"                        ....ooooooXoXoXXXX.....Xoooooooooooooooo",
"                        ...oX.................o.................",
"                        XXXOXXXXXXXXXXXXX.XXXOXXXXXXXXXXXXXXXXXX",
"                        XXXOXXXXXXXXXXXX.XXXOXXXXXXXXXXXXXXXXXXX",
"                        XXXOXXXXXXXXXXX+XXXOXXXXXXXXXXXXXXXXXXXX",
"                        XXXOXXXXXXXXXX+XXXOXXXXXXXXXXXXXXXXXXXXX",
"                        ...o.........@...o......................",
"                        ...o........@...o.......................",
"                        ...X.......@...o........................",
"                        ...o......@...o.........................",
"                        ...X.....@...o..........................",
"                        ...X....@...o...........................",
"                        ...X...@...X............................",
"                        ...X..@...X.............................",
"                        ...X.+..................................",
"                        ..........++++++++++++@+@+@@@@@@@@@@@@@@",
"                        ........................................",
"                        ........................................",
"                        ........................................",
"                        XXXXXXXXXXXXXXXXXXXXXXXXXXXXXXXXXXXXXXXX",
"                        XXXXXXXXXXXXXXXXXXXXXXXXXXXXXXXXXXXXXXXX",
"                        XXXXXXXXXXXXXXXXXXXXXXXXXXXXXXXXXXXXXXXX",
"                        oOOOOOOoOoOoooooOOO****O****o*oooooooooo"
};
