/* XPM */
static char *door_opening_51665409709[] = {
/* columns rows colors chars-per-pixel */
"64 64 11 1 ",
"  c magenta",
". c #464D4F",
"X c #383F40",
"o c #382B2F",
"O c #2F1C17",
"+ c #62797E",
"@ c #536265",
"# c #8C948F",
"$ c #9FA7A1",
"% c #141413",
"& c #3F4748",
/* pixels */
"                                                ...............X",
"                                                XXXXXXXXXXXXXXXX",
"                                                XXXXXXXXXXXXXXXX",
"                                                XXXoOOOOOOoOoOoo",
"                                                XXXOXXXXXXXXXXXX",
"                                                XXXOXXXXXXXXXXXX",
"                                                XXXOXXXXXXXXXXXX",
"                                                ...o...........+",
"                                                XXXOXXXXXXXXXX+X",
"                                                ...o.........+..",
"                                                ...o........+...",
"                                                ...X.......+...o",
"                                                ...o......+...o.",
"                                                ...X.....+...o..",
"                                                ...X....+...o...",
"                                                ...X...+...X....",
"                                                ...X..@...X.....",
"                                                ...X.@..........",
"                                                ..........@@@@@@",
"                                                ................",
"                                                ................",
"                                                ................",
"                                                ....oooooooooooo",
"                                                ...oX...........",
"                                                ...o............",
"                                                ...o..#$$$$$$$$$",
"                                                ...o..$$X%XX$%$X",
"                                                ...o..$$$$$$$$$$",
"                                                ...o..$$X$%%XX$$",
"                                                ...o..#$$$$$$$$$",
"                                                ...X..&XXXXXXXXX",
"                                                ...o............",
"                                                ...X..#$$$$$$#&.",
"                                                ...X..$$%X$X$$X.",
"                                                ...X..#$$$$$$#X.",
"                                                ...X..&XXXXXXX&.",
"                                                ................",
"                                                .....@@@@@@+@+@+",
"                                                ................",
"                                                ................",
"                                                ................",
"                                                ....ooooooXoXoXX",
"                                                ...oX...........",
"                                                XXXOXXXXXXXXXXXX",
"                                                XXXOXXXXXXXXXXXX",
"                                                XXXOXXXXXXXXXXX@",
"                                                XXXOXXXXXXXXXX@X",
"                                                ...o.........+..",
"                                                ...o........+...",
"                                                ...X.......+...o",
"                                                ...o......+...o.",
"                                                ...X.....+...o..",
"                                                ...X....+...o...",
"                                                ...X...+...X....",
"                                                ...X..+...X.....",
"                                                ...X.@..........",
"                                                ..........@@@@@@",
"                                                ................",
"                                                ................",
"                                                ................",
"                                                XXXXXXXXXXXXXXXX",
"                                                XXXXXXXXXXXXXXXX",
"                                                XXXXXXXXXXXXXXXX",
"                                                oOOOOOOoOoOooooo"
};
