/* XPM */
static char *enemy_dying_01665788730[] = {
/* columns rows colors chars-per-pixel */
"64 64 191 2 ",
"   c None",
".  c #050505",
"X  c #0A0000",
"o  c #0C0C0C",
"O  c #150000",
"+  c #1B0000",
"@  c #16110E",
"#  c #141414",
"$  c #1B1B1B",
"%  c #240000",
"&  c #2C0101",
"*  c #340202",
"=  c #3C0303",
"-  c #3A0A0B",
";  c #330909",
":  c #28170F",
">  c #201F1F",
",  c #221610",
"<  c #361616",
"1  c #242424",
"2  c #2B2323",
"3  c #2C2B2B",
"4  c #2F2823",
"5  c #362C2B",
"6  c #382726",
"7  c #333333",
"8  c #3B3B3B",
"9  c #3B3537",
"0  c #440304",
"q  c #4B0303",
"w  c #430A0A",
"e  c #4B0C0C",
"r  c #530202",
"t  c #5B0101",
"y  c #540D0D",
"u  c #5A0C0C",
"i  c #4B1313",
"p  c #471111",
"a  c #551313",
"s  c #5C1313",
"d  c #571718",
"f  c #5C1A1A",
"g  c #5A1B1A",
"h  c #620202",
"j  c #6A0202",
"k  c #610D0D",
"l  c #6A0B0C",
"z  c #740202",
"x  c #7A0202",
"c  c #750C0C",
"v  c #631313",
"b  c #6B1314",
"n  c #6E1718",
"m  c #641B1B",
"M  c #6C1B1C",
"N  c #621718",
"B  c #751212",
"V  c #731B1C",
"C  c #7C1E1E",
"Z  c #633B1D",
"A  c #761F20",
"S  c #452D29",
"D  c #522424",
"F  c #592223",
"G  c #5D2929",
"H  c #542B2B",
"J  c #513224",
"K  c #5C3822",
"L  c #4A3334",
"P  c #5C3636",
"I  c #513D36",
"U  c #6D2222",
"Y  c #692728",
"T  c #632A2A",
"R  c #692627",
"E  c #742222",
"W  c #7B2424",
"Q  c #732728",
"!  c #742B2B",
"~  c #7D2A2B",
"^  c #613131",
"/  c #75402F",
"(  c #6F4031",
")  c #444444",
"_  c #4A4A4A",
"`  c #4C4143",
"'  c #534444",
"]  c #595148",
"[  c #535353",
"{  c #5C5B5B",
"}  c #5F5252",
"|  c #694242",
" . c #794848",
".. c #63524C",
"X. c #625050",
"o. c #635D5C",
"O. c #6B5C5C",
"+. c #6A5454",
"@. c #7B5252",
"#. c #636363",
"$. c #6B6B6B",
"%. c #736D6D",
"&. c #747474",
"*. c #7B7373",
"=. c #7B7B7B",
"-. c #830303",
";. c #8E0202",
":. c #920303",
">. c #9B0303",
",. c #930A0B",
"<. c #A20404",
"1. c #AB0606",
"2. c #B00A0A",
"3. c #A71111",
"4. c #A51816",
"5. c #B11616",
"6. c #812323",
"7. c #842C2D",
"8. c #8A2B2C",
"9. c #892727",
"0. c #972425",
"q. c #8E2F30",
"w. c #902F30",
"e. c #8B3233",
"r. c #883B3D",
"t. c #863536",
"y. c #943435",
"u. c #993738",
"i. c #963A3B",
"p. c #9C3A3B",
"a. c #973637",
"s. c #B22829",
"d. c #A53B3C",
"f. c #AE3331",
"g. c #B13B3D",
"h. c #CB0808",
"j. c #DD1414",
"k. c #D53A3B",
"l. c #83471D",
"z. c #91542D",
"x. c #9D5C3E",
"c. c #A25820",
"v. c #AA5E23",
"b. c #AC6022",
"n. c #B5642A",
"m. c #B66426",
"M. c #C06C1F",
"N. c #C06D24",
"B. c #864D41",
"V. c #9E4143",
"C. c #845A5B",
"Z. c #955E50",
"A. c #A44345",
"S. c #AB4445",
"D. c #AC4B4D",
"F. c #A7494B",
"G. c #B54A4B",
"H. c #B04345",
"J. c #BB5355",
"K. c #BD5B5D",
"L. c #A36544",
"P. c #9E6C6C",
"I. c #8F7062",
"U. c #8C7272",
"Y. c #847877",
"T. c #957474",
"R. c #C6484A",
"E. c #C05B5D",
"W. c #C15F61",
"Q. c #D0696B",
"!. c #D17678",
"~. c #828282",
"^. c #8C8C8C",
"/. c #988686",
"(. c #939393",
"). c #9A9A9A",
"_. c #9E9393",
"`. c #A89898",
"'. c #A5A4A4",
"]. c #AAAAAA",
"[. c #B3B3B3",
"{. c #BEBEBE",
"}. c #E18385",
"|. c #D9B5B5",
" X c #C3C3C3",
".X c #CAC7C7",
"XX c #CCCCCC",
"oX c #D2D2D2",
"OX c #DADADA",
"+X c gray89",
"@X c #F9F9F9",
/* pixels */
"                                                                                                                                ",
"                                                                                                                                ",
"                                                                                                                                ",
"                                                                                                                                ",
"                                                                                                                                ",
"                                                                                                                                ",
"                                                                                                                                ",
"                                                                                                                                ",
"                                                                                                                                ",
"                                                                                                                                ",
"                                                                                                                                ",
"                                                                                                                                ",
"                                                                                                                                ",
"                                                                                                                                ",
"                                                                                                                                ",
"                                                                                                                                ",
"                                                                                                                                ",
"                                                                                                                                ",
"                                                                                                                                ",
"                                                                                                                                ",
"                                                                                                                                ",
"                                                                                                                                ",
"                                                                                                                                ",
"                                                                                                                                ",
"                                                                                                                                ",
"                                                                                                                                ",
"                                                j.    h.                                                                        ",
"                                                x :.l g.                                                                        ",
"                                                ;.-.E < U W                                                                     ",
"                                                ;.>.j j e V m                                                                   ",
"                                                h * r h t e C / J                                                               ",
"                                              & j & z % & - V s                                                                 ",
"                                              - h r q = ,.y = u E (                                                             ",
"                                              E 4.5.:.2.k.k q 0 v e.                                                            ",
"                                              S.8.6.f.R.J.t q t q v 8.                                                          ",
"                                                d u y.C h h & h t v 6.p.                                                        ",
"                                                N h t r r -.O x h k 9.d.e.                                                      ",
"                                              y.8.v 0 = t j X 0 B V F.! a.                                                      ",
"                                            E r.a.y ; O * = O r <.B ; g F.!.}.Q.d.8.                * d                         ",
"                                            i & ~ 8.M e q r + = >.1.w F W A.D.J.J.H.S.a.W         0 - N                         ",
"                                          E = N U 8.w A m r * * t z ~ N A A e.E N b 8.u.W E M N y = d W ~                       ",
"                                  8.w.y.W W * u B n f w d r % % t c V V v y e     q u s w q q w = w m r.                        ",
"                            i.8.6.E v q w 0 - u C C a 0 O X O + 0 6.C B W y A V.r.                  t.                          ",
"                      t.7.W e. .@.T.U.| = 0 M y v y 0 * + O X O + 0 j l s * y y.W.                                              ",
"                    ^ f R G C.XX[.[.[.].    M w u V b >.t % O + O z h z y = * w y.V.                                            ",
"                  P T G *.`..XOXoX X[.(.    y y * s N = % + + + & % * t q e * 0 v 6.                                            ",
"                7 7 H *.^.(.].XXXX[.&.7     = = % w e & + & * * & 0 X r * y e a 9.M                                             ",
"                1 7 =.).).).(.).^.$.] )   s M s & & & = = t q * = 0 & N q y s a Q /.].).).&.[ [                                 ",
"              $ 3 { (.).(.(.(.$.o.#.5 F ! ! E y w - N j x t j & 0 = q M u v ~ 7.} ^.(.[.oXOXXX[.'.^.                            ",
"              1 8 ~.(.^.^.~.$.{ o.O.T 7.~ m w - = M D.0.h & & & = = 0 k 7.E u.D.O.=.^.^.(.).).{.oX X^.                          ",
"            $ 3 =.=.~.&.$.{ ' P ! W M i w * * = r i.! V.j q % % r r q 3.y.A.J.W.6 2 _ #.^.&.$.~. XoXXX=.                        ",
"            $ #.~.~.=.#._ P f e a a i < S       u W 8.E :.>.& + + * :.,.Q G.E.V.6 , 1 7 7 8 [ $.=.].XX.X'.                      ",
"            7 { &.$.$.{ 8 m m ; P X.#.{         A d.G.s.<.t & % q s M 8.i.p.6.D 2 # : 4 7 3 7 ) [ $.~.[.[.'.                    ",
"          3 ) _ [ o.[ )   p d 5 7 _ _ _ ).      n Q R u x h a e.V.S.G.d.E @.T 2 7 7 $ > 7 3 7 7 7 8 _ [ ^.[.].                  ",
"          8 _ _ [ #.[               1 _ =.[ )   %.$.&.U.U L D Q y.A.i.P.'.%.#.1 9 ) 8 > 1 3 $ $ 7 7 3 3 8 { ~.&.                ",
"          o $ 7 { [                   [ ~.[ 8 _ %.$. X|.Y.I D N U  .+.OXOX(.[ 3   8 ) 1 1 1 $ o o # > 7 7 7 8 $.&.              ",
"          # o > >                   $ 3 &.{ _ &.&.[ &.~.^.9 9 /.`.[.]. X[.o.$.  7 _ ) 3 1 1         . # 3 3 7 ) _               ",
"        $ 1 $ # #                   o $ 1 [ $.#.=.#.=.o.I.K *.=.(.]. X).3 ) &.  7 1 1 $               . o $ $ $ # 1 7           ",
"      $ # $ $ #                     . o 7 ~.$.8 +X+XY.l.M.N.b.Y.$.$.$._ 7 [ #.[ 7 1                     . o o # o 1 3 1         ",
"      # $ $ $ #                       # 1 7 7 _ @X@X..v.x.Z.m.Z [ { { 7 7 { $.7 8                       . o o # o # 1 1         ",
"    $ # $ # #                         7 3 3 7 7 =.XXI n.L.z.n.Z &.=.{ 3 _ #.#.7 8                         . # # o o o 1 1       ",
"    # # $ # #                           3 3 3 _ oX X{ z.N.m.z.4 { ~.) # $ 1 ) $ 7                         . o #   o o o 1 1     ",
"  o # # $ # o                             3 1 > 8 8 %.#.S J 7 3 8 { 3 # # o $ 1 o                         . o # #   o o # $     ",
"  o # # # o o                                 # # # $ 7 > _ [ [ _ [ # o # o . o                             . # #     o o $ #   "
};
