/* XPM */
static char *enemy_dying_31665788730[] = {
/* columns rows colors chars-per-pixel */
"64 64 188 2 ",
"   c None",
".  c #050505",
"X  c #0C0000",
"o  c #0C0C0C",
"O  c #140000",
"+  c #1D0000",
"@  c #160A0A",
"#  c #190909",
"$  c #131313",
"%  c #1C1B1B",
"&  c #1B1212",
"*  c #240000",
"=  c #2C0000",
"-  c #210B0C",
";  c #340101",
":  c #3B0000",
">  c #360708",
",  c #350808",
"<  c #3D0B0B",
"1  c #2B1717",
"2  c #361212",
"3  c #391111",
"4  c #31191A",
"5  c #3D1C1C",
"6  c #232323",
"7  c #2A2627",
"8  c #2C2C2C",
"9  c #322F2F",
"0  c #3B2F2F",
"q  c #3C2425",
"w  c #323232",
"e  c #3B3B3B",
"r  c #440101",
"t  c #4C0000",
"y  c #430A0B",
"u  c #4B0B0C",
"i  c #530000",
"p  c #5C0000",
"a  c #540C0C",
"s  c #5A0C0C",
"d  c #490F10",
"f  c #451111",
"g  c #4C1212",
"h  c #4A1718",
"j  c #4D1919",
"k  c #421C1C",
"l  c #541313",
"z  c #5C1415",
"x  c #5A1718",
"c  c #521A1A",
"v  c #5D1B1C",
"b  c #640101",
"n  c #6B0000",
"m  c #650A0A",
"M  c #6B0E0E",
"N  c #720000",
"B  c #7B0101",
"V  c #7A0F10",
"C  c #631515",
"Z  c #631C1C",
"A  c #6B1B1C",
"S  c #6D1515",
"D  c #7D1212",
"F  c #701819",
"G  c #7C1A1A",
"H  c #721616",
"J  c #651F20",
"K  c #432525",
"L  c #4A2121",
"P  c #402929",
"I  c #4B2D2D",
"U  c #5D2C2C",
"Y  c #532526",
"T  c #4B3636",
"R  c #413A3B",
"E  c #493F3F",
"W  c #5C3636",
"Q  c #5A3B3C",
"!  c #543E3E",
"~  c #6E2223",
"^  c #652F2F",
"/  c #622424",
"(  c #732424",
")  c #792323",
"_  c #702728",
"`  c #772D2D",
"'  c #7C2B2B",
"]  c #712F30",
"[  c #623434",
"{  c #693333",
"}  c #6F3F3F",
"|  c #753031",
" . c #753738",
".. c #7C3636",
"X. c #434343",
"o. c #4B4444",
"O. c #4C4B4B",
"+. c #544444",
"@. c #5B4040",
"#. c #514B4B",
"$. c #535353",
"%. c #5C5C5C",
"&. c #704444",
"*. c #615050",
"=. c #625C5C",
"-. c gray39",
";. c #6B6B6B",
":. c #796060",
">. c #736A6A",
",. c #747474",
"<. c #7E7172",
"1. c #7C7C7C",
"2. c #830101",
"3. c #8A0101",
"4. c #810B0B",
"5. c #8D0D0D",
"6. c #940101",
"7. c #9B0101",
"8. c #9C0E0E",
"9. c #801A1B",
"0. c #881919",
"q. c #A30303",
"w. c #A90101",
"e. c #A00B0B",
"r. c #AC0909",
"t. c #B20303",
"y. c #B00B0B",
"u. c #A31B1C",
"i. c #B21313",
"p. c #822223",
"a. c #8B2021",
"s. c #832D2E",
"d. c #8D2B2C",
"f. c #982626",
"g. c #842F30",
"h. c #962E30",
"j. c #833333",
"k. c #8B3233",
"l. c #8B3638",
"z. c #923435",
"x. c #923D3F",
"c. c #A72424",
"v. c #B92626",
"b. c #BA2D2E",
"n. c #AD3233",
"m. c #B13E3F",
"M. c #C50808",
"N. c #D70F0F",
"B. c #CE1010",
"V. c #E11E1E",
"C. c #C32F2F",
"Z. c #C92223",
"A. c #D62B2B",
"S. c #8B4142",
"D. c #984546",
"F. c #95494B",
"G. c #855858",
"H. c #8C5C5C",
"J. c #865455",
"K. c #975C5D",
"L. c #B24D4F",
"P. c #B64344",
"I. c #B55355",
"U. c #867576",
"Y. c #8B7C7C",
"T. c #977778",
"R. c #9E7474",
"E. c #838383",
"W. c #8C8B8B",
"Q. c #998A8A",
"!. c #939393",
"~. c #9B9B9B",
"^. c #A38484",
"/. c #B98D8C",
"(. c #A4A4A4",
"). c #ACACAC",
"_. c #B4B4B4",
"`. c #BDBCBC",
"'. c #C0BFBF",
"]. c #D1B0B0",
"[. c #C3C3C3",
"{. c #C8C8C7",
"}. c #CACACA",
"|. c #D2D2D2",
" X c gray86",
".X c gray90",
"XX c #F6F6F6",
"oX c white",
/* pixels */
"                                                                                                                                ",
"                                                                                                                                ",
"                                                                                                                                ",
"                                                                                                                                ",
"                                                                                                                                ",
"                                                                                                                                ",
"                                                                                                                                ",
"                                                                                                                                ",
"                                                                                                                                ",
"                                                                                                                                ",
"                                                                                                                                ",
"                                                                                                                                ",
"                                                                                                                                ",
"                                                                                                                                ",
"                                                                                                                                ",
"                                                                                                                                ",
"                                                                                                                                ",
"                                                                                                                                ",
"                                                                                                                                ",
"                                                                    n                                                           ",
"                                                                                b                                               ",
"                                                                                                                                ",
"                                                          n r   i           i                                                   ",
"                                              b   p i B t b B p t   3.N     : i                                                 ",
"                                                      p i t r r p 6.t       = : :                                               ",
"                                                    i B N ; ; r : n r r r = * ; = :                                             ",
"                                                2.t   t t : ; = ; B n ;   : * : =                                               ",
"                                          b     2.p b n B : ; = t p i n i : = r                   f                             ",
"                              3.              t     p 7.3.: t t m r t b i t p                 c c g j                           ",
"                                7.            3.    B p : ; t t r : t i ; r ;                   = , <                           ",
"                                B                 n r t : t ; t r ; ; r r ; r t   m 3.B         = * ,                           ",
"                              3.N               n B r i r :     : * : p B p t i p p 6.3.M p     u >                             ",
"                              6.q.N ;         i b t p 3.i t : n * = i i p 2.b 2.2.3.B :       i l :                             ",
"                        t     z t ; i r     N p t n 2.2.n 2.n i   ; b i : p r 4.n b ; : B N 2.s z >                             ",
"                                r : i t   r r n r 7.7.t = n b t   q.w.p n r t r i i r t p 2.B 0.l ;                             ",
"                                t i r p b : i p p n n i t r : S m 2.r = r : ; t p r s r     b C l > p                           ",
"                                i r b p a i n t i b 3.B b p r t t ; b : r ; = : ; i p i s   z.g.Z ;                             ",
"                              3.n : ; = : n N i p b t t B B r : i   t t t ; : t i t t s S ) k.A u                               ",
"                              3.y.t + = t ; t p = + i p N p :   p b s : B ; = : : ; n 3.8.m.k.a ;                               ",
"                              q.w.b * ; ; t r ; ; t p i i n t   b   r b 6.b r : = p B t B v.J <                                 ",
"                            2.t.M.7.; r : r t : = + r t i B B i   n = i q.p ; ; = ; ; n i.D ) y                                 ",
"                            i m 4.e.3.r * = i p * p b n t n B n   n   ; i : * * t = p 8.G s z >                                 ",
"                            z ( d.c.n : ; = t ; = r p i i     b ;   ; i t B b r B r ; 2.u.C >                                   ",
"                            =.[ S G 7.n t r ; ; = ; r b   p p i : :   : b n p t = : ; 2.5.G u                                   ",
"                          1.!.[ y S 4.n B : ; = :       b 2.i = : ; ; t r = t t + : : B 2.H s a                                 ",
"                      !.).[.).Q.h u b : * = ; = :       N n n : i : t 3.3.t b i t : : p b t : y _ |                             ",
"                    -.W.`.|.|.[.<.r r : t : : i ; p   p i n b i p t i b t n p ; p ; r m i ; : : z D.                            ",
"                  ;.,.,.!.[.(.-.o./ > i s u ; i ; :     t r b 2.2.N i = + p b i : t ~ ..t r r y = s.                            ",
"                ,.1.1.1.1.%.O.O.I Z y M k.' t t + = O t   i t t t b n * * t i r   s &.i 2.n s u y a J.                          ",
"                ,.1.,.,.-.O.O.o.Z : L ..s.h.b r ; ; O     t     n i n ; r r ; i   j f B r.a.F S A a T.~.                        ",
"              ;.,.;.;.%.$.O.X.T x > *.K.A u.2.: ; ; = t i B     n r * : i b : r = > m B.A.z.s.{ c C ^.|.!.                      ",
"            ;.-.%.X.$.O.X.8 w 5 a P #.[ n.V.w.: : r p r r   t   b b ; r r i i : ; ; 2.t.C.L.x.#.W z G.[.}.).                    ",
"          -.-.%.$.%.X.w $ $ e U u E #.u i.5.b 6.i i i : *   n b   t : + i t = * ; t e.B D I.U P D.l.{ 1.(.`.).                  ",
"        w O.$.$.$.o.% $   % 0 v 5 $.@.g 2.n t 2.t + : : =   i n   t * X O t + = N t i f.P.G q S.j.A L X.$.1.).).                ",
"        w e X.O.O.%         ' ~ 3 Y _ h r q.7.r.5 1 !.(.1.+.W.E.U * i ; + = : n N.2.Z.p.) h  .' ) k w 8 8 w $.E.E.;.            ",
"      7 e e O.$.7 o       ( J v c Z u = 4 { p.0 e $.E.[.]..X{.(.~.`.R.&.Q T C N 3.M.b.h 2 ` k./ - o $ 6 8 w w w %.1.;.          ",
"      . $ w e w o .       Z x y f u =   w W.E.e O.;.1.Y.H.E.#.#.!.|.|.{.[.[.'.'.:.4.( @./ ' h 6         o 6 w w e $.w           ",
"      $ o $ % o o         / x u y ;     $ e O.%.;.,.Y.a.>.R #.7 %.E.).[.{._.~.W.U.[ [ ( C y               . % 6 6 $ % w         ",
"    $ % % o $ o o         y g y y       . o %.(.-.-.XXH.B # 8 $.X.W.;.;.;.e % q | l.z.A                   . . o $ o 6 8 8       ",
"    $ $ $ $ o o o       g h f y           % 8 X.X.E.oX/.i 7.^ $.#.w -.%.$.& 4 Y ' s./                       . o o o o $ 6 6     ",
"  $ $ $ $ $ $ o         g g f ,           w w w w X.~.E 9 j Q X.O.8 (.-.X.& y g g k 9                       . o $ o o o % 6     ",
"  $ $ $ $   . o           < <             w w w e ,. X_.e o.Q O.w 8 1.,.6 $ $ @ 1 6 w                       . o $ $ o o o 6 6   ",
"o $ $ $                                       w 8 6 e X.E.X.8 6 e 8 O.O.$ $ $ o $ %                           . $ $   o o o % 6 ",
"o $ $ $                                           $ $ $ % w 8 O.$.$.O.e o $ o . o .                           . o %     o o o % "
};
