/* XPM */
static char *enemy_dying_21665693182[] = {
/* columns rows colors chars-per-pixel */
"64 64 164 2 ",
"   c None",
".  c #040403",
"X  c #0B0502",
"o  c #0D0905",
"O  c #070909",
"+  c #0B0B0B",
"@  c #140505",
"#  c #1A0505",
"$  c #130D06",
"%  c #130D0B",
"&  c #1B0C0C",
"*  c #0C1106",
"=  c #111105",
"-  c #16110B",
";  c #1B130C",
":  c #1F180C",
">  c #0E1111",
",  c #131313",
"<  c #1C1612",
"1  c #1E1914",
"2  c #171818",
"3  c #1B1B1B",
"4  c #230606",
"5  c #2D0505",
"6  c #250B0B",
"7  c #2C0C0C",
"8  c #330404",
"9  c #3D0202",
"0  c #360A0A",
"q  c #20180F",
"w  c #221313",
"e  c #2D1313",
"r  c #231B13",
"t  c #291F15",
"y  c #231E19",
"u  c #331414",
"i  c #3D1414",
"p  c #341818",
"a  c #3E1C1C",
"s  c #1F251E",
"d  c #2A2016",
"f  c #24211D",
"g  c #2C231A",
"h  c #33271C",
"j  c #1F1F20",
"k  c #1E2020",
"l  c #0B2C30",
"z  c #09343A",
"x  c #1B3E3C",
"c  c #242424",
"v  c #2D2925",
"b  c #252728",
"n  c #252829",
"m  c #2B2B2B",
"M  c #292424",
"N  c #322121",
"B  c #322B21",
"V  c #34322D",
"C  c #28393C",
"Z  c #333333",
"A  c #3B3635",
"S  c #353838",
"D  c #3A3A3A",
"F  c #420303",
"G  c #4B0404",
"H  c #430B0B",
"J  c #4B0B0B",
"K  c #530606",
"L  c #5C0707",
"P  c #530B0B",
"I  c #5C0D0D",
"U  c #4B1B19",
"Y  c #4A1515",
"T  c #5A1D1D",
"R  c #630404",
"E  c #650C0C",
"W  c #6B0D0A",
"Q  c #700606",
"!  c #71090A",
"~  c #631111",
"^  c #6E1313",
"/  c #761616",
"(  c #791111",
")  c #761C1C",
"_  c #7C1919",
"`  c #49231D",
"'  c #702E1F",
"]  c #40352B",
"[  c #44392A",
"{  c #4B3D2D",
"}  c #403A32",
"|  c #5E3E3E",
" . c #642020",
".. c #69352A",
"X. c #56473C",
"o. c #5F4E3E",
"O. c #554737",
"+. c #614F3B",
"@. c #7E4035",
"#. c #62503D",
"$. c #163D42",
"%. c #1C3E42",
"&. c #3F3F40",
"*. c #1B4449",
"=. c #264348",
"-. c #3F4040",
";. c #224D52",
":. c #3C5457",
">. c #2D5D64",
",. c #0C6C79",
"<. c #1B6670",
"1. c #434343",
"2. c #4B4C4C",
"3. c #524A43",
"4. c #59514C",
"5. c #535353",
"6. c #575858",
"7. c #5C5C5C",
"8. c #634F4F",
"9. c #645343",
"0. c #6B5643",
"q. c #63564B",
"w. c #735D4A",
"e. c #745D47",
"r. c #7E634F",
"t. c #7D6654",
"y. c #596060",
"u. c #646464",
"i. c #6B6B6B",
"p. c #746A6A",
"a. c #727272",
"s. c #860404",
"d. c #841E1E",
"f. c #A00505",
"g. c #B50202",
"h. c #892626",
"j. c #943737",
"k. c #B92727",
"l. c #C50101",
"z. c #87473C",
"x. c #826751",
"c. c #846A53",
"v. c #8B6F57",
"b. c #8E715A",
"n. c #91745E",
"m. c #827061",
"M. c #977761",
"N. c #9C7C64",
"B. c #967963",
"V. c #807171",
"C. c #A0816A",
"Z. c #AE8B73",
"A. c #0A7684",
"S. c #077B8B",
"D. c #0D8797",
"F. c #0E8D9E",
"G. c #0E8FA0",
"H. c #1297A8",
"J. c #159EB0",
"K. c #14A0B2",
"L. c #17AABD",
"P. c #18A3B4",
"I. c #1AB6CB",
"U. c #1DC0D6",
/* pixels */
"                                                                                                                                ",
"                                                                                                                                ",
"                                                                                                                                ",
"                                                                                                                                ",
"                                                                                                                                ",
"                                                                                                                                ",
"                                                                                                                                ",
"                                                                                                                                ",
"                                                                                                                                ",
"                                            2.6.D b n m c ,                                                                     ",
"                                          1.2.S V m V m 3 , M                                                                   ",
"                                        b D 1.b m m m b 3 + f b                                                                 ",
"                                      o 3 A A M m y y f < = q y                                                                 ",
"                                      z *.>.>.;.=.x s r r r q $ -                                                               ",
"                                      J.L.I.U.K.F.F.*.c b m 3 . +                                                               ",
"                                      F.J.I.L.F.A.A.l 2 b n k . +                                                               ",
"                                      G.H.P.J.F.A.D.x 3 b b k . +                                                               ",
"                                      S.<.:.:.=.,.$.n 2 % , - O % g.                                                            ",
"                                      %.%.} 1.m =.b y ; 2 3 - = %                                                               ",
"                                      M Z 1.1.m m m f y c s 6 Q   l.                                                            ",
"                                      j A 5.2.m b m m m N i R l.                                                                ",
"                                      1.1.2.1.m M m m V ` Q f.l.                                                                ",
"                                2.7.u.i.5.A m m m { } { .._ ( s.U S 5.7.7.5.1.D                                                 ",
"                            2.7.u.u.u.u.1.m m A A +.e.z.h.( E L Q N 2.u.p.V.a.u.1.Z                                             ",
"                          } 5.7.7.7.2.S m j 3 b v 9.x.x...d.L P N b 2.y.j.k.u.2.&.D m                                           ",
"                        m S 1.5.5.2.Z M b b 3 3 , f 0.r...E J w m m 1.6.8.+.1.1.1.D V b                                         ",
"                      3 c m Z S S m j 2 b Z M 3 M b w.x...R K 2 n m D 1.&.S A D D S m c j                                       ",
"                      3 3 j b V A Z b j b V n A 1.&.3.8...K u b b b m Z Z m Z Z Z V b 3 3                                       ",
"                      , , 3 m D 1.2.&.V c b S 5.5.1.Z V U H n Z b 3 M m m m m b b j 3 3 3                                       ",
"                      , , b S 2.7.7.5.1.m A 5.7.6.1.m 3 e i V V c 3 2 3 j 3 3 2 3 , y b m                                       ",
"                        3 m 1.6.i.i.7.2.1.5.y.i.5.S c 2 2 y b c 3 > O . + + > , y c m Z Z                                       ",
"                          b A 6.i.u.7.2.5.u.a.7.1.b 3 , , 2 3 2 > . . . . + , 3 m D 1.1.Z b                                     ",
"                          M V 1.5.D S 2.7.u.u.7.A 3 > O O + + + O . . . . . + 3 b S 2.2.D b                                     ",
"                            b D V b S 2.7.u.5.D M + O O + > + + + . . . . . + 2 j m S } S m                                     ",
"                            b b 3 j Z 1.2.2.&.b 3 + + > , 2 > + O X . . . . > , 3 M V S S Z A                                   ",
"                            3 3 2 3 b V A A v j > + + 6 0 6 > + O O O . . . + , 2 j b m m Z D                                   ",
"                              3 > j 3 j b b j 3 + + > Y / ~ a > > + + . . . . + , 3 j b b n V                                   ",
"                                . + > 2 2 2 2 > > + w  .d.) T 3 2 , % O . . . O , j c m m b b                                   ",
"                                  . + + O # @ X @ X G L G 8 & & , , > + . . . . , j m S D A m                                   ",
"                                  > O . 4 G F F K G 9 F F 9 9 G @ + O + O O . O , M D 2.2.1.&.V                                 ",
"                                  2 , , + 7 P & ~ E e H Y & + & P w > + + O O , 2 y Z &.2.5.1.V                                 ",
"                                > 3 2 2 , 4 F w ^ / e Y E 5 + % F & > + X O + + , 2 b Z 2.5.&.b                                 ",
"                              > , % , , + # 9 < ) d.p w e w > % 9 & O O . . O + , 2 j m 1.5.&.b                                 ",
"                              , O O + O # 8 F 0 I I H & & 7 > + # X . . . O O + X + , b 4.m.q.M                                 ",
"                              , 3 + + O @ 5 5 5 P K 9 % & 4 + O . . O O % + + + O O > V t.Z.M.3.                                ",
"                              2 &.3 , , , > + , E ^ 7 > , , + O . + > , > , , > + + > | N.Z.N.N.                                ",
"                              2 5.b 3 , 3 3 > @ P E 5 $ > + O + + > , 2 2 2 & > > + + X.N.M.x.N.n.                              ",
"                            , 2 y S b 2 M m , + . 9 G 4 O O . O + + , 2 2 2 3 2 , + > ] 0.+.+.M.b.                              ",
"                            3 3 j b j j c 3 , O O @ . . . . . . + , , 2 3 y 3 3 2 2 , f [ [ O.b.x.                              ",
"                            3 c b m M n m j 3 > O . . O %     . + , , 2 j c b c 3 3 2 h [ O.0.v.w.                              ",
"                          3 c b m m Z m j 2 > + . . O %         . , 1 j b c b c c 3 2 1 h +.c.c.                                ",
"                          3 M b Z m Z m j 3 2 + . . + & -         + , 3 3 c M m b s s , g r.t.[                                 ",
"                          3 b m m m m m j 2 , + O O + , = $       + + , 3 3 b b b c b 3 g { A +                                 ",
"                          s M m V n m n 3 + + + > + - - $ % ,     + , 3 3 c c b M m Z b , , + +                                 ",
"                        c k m m V V b 3 2 , > + O , ; - $ $ q -     > , , 3 f b m Z m b c 3 2 ,                                 ",
"                      b m Z V V m V m c 2 % + + O & w : ; ; q q ,   % > , 3 b n M m m V b b 3 k , +                             ",
"                      b c c m m b m b c 1 , > + = q : : = $ ; ; %     + , 3 3 3 c b m M b m c 2 , ; r                           ",
"                      , , 2 b c M b b M 3 2 > - - - = @ X X = - - +   + 3 b c 3 M b b c 3 b m c 3 d h t                         ",
"                      % - r r w < < c f 2 , > . $ + X . X . X @ $ o     3 b c 3 j j j y 3 3 c f r h h t t                       ",
"                      + % q ; ; ; $ < < - - - + O . . . . . . . . .       3 3 3 1 r 3 r < < < 1 r r t r q                       ",
"                      * = ; $ ; q ; $ ; - - ; @ . .     . . . . .           % < q q ; q ; ; ; ; q ; q q -                       ",
"                        = X $ - ; ; ; $ = @ X . . .                         X X $ = $ $ $ ; - $ $ $ ; ;                         ",
"                          . X - $ - - % $ X . .                               @ X X $ @ X @ $ X . @ $                           ",
"                                                                                  . . . X . . . X $                             "
};
