/* XPM */
static char *enemy_attacking_01665693181[] = {
/* columns rows colors chars-per-pixel */
"64 64 136 2 ",
"   c None",
".  c #050404",
"X  c #0C0600",
"o  c #0D0A06",
"O  c #070809",
"+  c #0B0B0B",
"@  c #140D03",
"#  c #180F03",
"$  c #120E0A",
"%  c #171003",
"&  c #1B1205",
"*  c #151807",
"=  c #16120D",
"-  c #1B1409",
";  c #141A08",
":  c #191F0B",
">  c #0E0F10",
",  c #0F1011",
"<  c #0E1C1E",
"1  c #131313",
"2  c #1B1712",
"3  c #1A1917",
"4  c #161718",
"5  c #171818",
"6  c #1B1B1B",
"7  c #221607",
"8  c #241709",
"9  c #25190B",
"0  c #2B1B0B",
"q  c #311F0E",
"w  c #221A12",
"e  c #201F1D",
"r  c #1F270D",
"t  c #2A220F",
"y  c #34210F",
"u  c #262113",
"i  c #2B2312",
"p  c #2B2F16",
"a  c #25231E",
"s  c #2B231B",
"d  c #362311",
"f  c #3B2512",
"g  c #3F2915",
"h  c #2D361C",
"j  c #2F381D",
"k  c #1F1F20",
"l  c #1B2B2D",
"z  c #173235",
"x  c #183033",
"c  c #232323",
"v  c #292625",
"b  c #2C2A26",
"n  c #252B2B",
"m  c #2B2B2B",
"M  c #352F24",
"N  c #302F2C",
"B  c #2F302E",
"V  c #333325",
"C  c #3D3427",
"Z  c #35302D",
"A  c #3D3529",
"S  c #3B3C2F",
"D  c #242F31",
"F  c #233234",
"G  c #2D3132",
"H  c #333333",
"J  c #3B3632",
"K  c #303A3B",
"L  c #3C3C3C",
"P  c #462C16",
"I  c #462F1A",
"U  c #482E18",
"Y  c #4E3115",
"T  c #4C321A",
"R  c #533417",
"E  c #5B3919",
"W  c #40372F",
"Q  c #473B2C",
"!  c #493D2E",
"~  c #433A33",
"^  c #423E38",
"/  c #3C442C",
"(  c #3F482D",
")  c #3F4531",
"_  c #40482D",
"`  c #4D4031",
"'  c #434935",
"]  c #44413E",
"[  c #524433",
"{  c #52433A",
"}  c #5D4C3A",
"|  c #1E4145",
" . c #1E4B51",
".. c #1F5057",
"X. c #234043",
"o. c #324143",
"O. c #274B50",
"+. c #21545A",
"@. c #385053",
"#. c #3E5659",
"$. c #285F67",
"%. c #0B6976",
"&. c #0B6E7B",
"*. c #0B717F",
"=. c #2A636B",
"-. c #434343",
";. c #474848",
":. c #4B4B4B",
">. c #554B44",
",. c #545454",
"<. c #5B5B5B",
"1. c #6A5543",
"2. c #6E5845",
"3. c #7C624E",
"4. c #6E635B",
"5. c #636363",
"6. c #6B6B6B",
"7. c #727272",
"8. c #856B55",
"9. c #927560",
"0. c #977A64",
"q. c #9A7C66",
"w. c #A98771",
"e. c #AE8A73",
"r. c #097381",
"t. c #0C7986",
"y. c #0D8696",
"u. c #0D8B9C",
"i. c #139BAC",
"p. c #14A4B6",
"a. c #18A3B4",
"s. c #16A8BB",
"d. c #17AFC3",
"f. c #19B2C6",
"g. c #1BB8CD",
"h. c #1DC1D7",
/* pixels */
"                                                        v v -.,.;.c v                                                           ",
"                                                      m v m -.,.-.m v N                                                         ",
"                                                      m m m H ;.L m m N                                                         ",
"                                                    H n H v m J H v m v m                                                       ",
"                                                    H B O.+.+.=.=... .| D                                                       ",
"                                                    v o.&.i.f.h.g.i.y.r.D                                                       ",
"                                                    c o.r.u.s.f.p.y.r.&.D                                                       ",
"                                                    e l t.u.i.a.i.y.r.&.<                                                       ",
"                                                    m k z t.$.#.@. .%.x B                                                       ",
"                                                      c m | K ] L D X.v B                                                       ",
"                                                    H m m v L ;.L m v k L 5.5.:.:.-.                                            ",
"                                                  H L m v m -.,.-.m c 4 L <.5.<.,.;.L                                           ",
"                                              v c m H m m m L :.-.m v k v :.5.6.<.,.;.L H v                                     ",
"                                            m H m 1 6 H H v v c H L m v ,.<.<.,.,.<.<.,.o.v 6                                   ",
"                                          v L m 6 4 > 1 + O > 6 H ;.;.L H ;.:.:.5.6.5.:.] v k                                   ",
"                                        l v c k k 6 4 > O + 6 H -.-.,.<.m K -.;.,.5.6.,.;.H k 1                                 ",
"                                        c n 5 6 k k k k 2 5 m L L L -.:.n m m B H H -.L N l 1 ,                                 ",
"                                        v H v 6 6 c c m c k B L H H L L k c H -.-.:.,.:.^ H c 6                                 ",
"                                          -.H c 6 6 6 c c 5 v B H m N c , N ,.5.5.5.6.6.,.-.G v                                 ",
"                                          L m 4 $ , , 1 k 1 4 k k 6 5 , + -.6.6.5.<.<.<.:.B v v                                 ",
"                                        m 4 4 $ , > O , k 6 + + + + > 4 6 -.,.6.7.6.6.,.L c 6                                   ",
"                                        6 6 n H B 6 , v v v c e k k v k k L :.<.6.7.5.:.m v c                                   ",
"                                      ;.H m -.H H c 1 H H G H L B c 4 1 m c L 5.7.7.5.,.m                                       ",
"                                      H m B H L m 1 , 1 5 5 6 e c v c -.<.:.:.L H -.L H c                                       ",
"                                    H L m c 6 H B k 5 4 5 5 k k H -.;.5.6.6.,.^ c 5 l 6 +                                       ",
"                                  B L ;.m 6 1 k m H m v N m N H ;.<.5.5.5.,.:.-.m . o $ O                                       ",
"                                  m ;.<.c k 1 1 c ^ >.H ! } ^ :.<.,.,.:.;.H m m e . . + . +                                     ",
"                                  m ;.,.2 6 4 5 6 >.9.2.8.0.4.,.,.-.H m v e w t 9 o + . . 1 6                                   ",
"                                  v J -.C e 6 6 1 { w.w.w.q.3.W v v 6 i i i t t t t t t 2 + 1                                   ",
"                                  L ^ ! W c 2 1 4 ~ 8.1.1.1.} M c H b : b i t t t t t a u                                       ",
"                                    Z h C M e 1 k H ~ J J J J S ) ' ( V B c = $ o o + +                                         ",
"                                      Q Q W v 1 1 5 5 5 2 a V / ( ( / h b v 1 . . . . . .                                       ",
"                                      } [ A m + . O O . . t p h j j h r c 6 > . . . . . + +                                     ",
"                                              . + . + O + - * ; ; r ; * 3 + O . . . . . 1 1 1                                   ",
"                                              . . O + . O . . . . . . . O O . . . . O + + 6 6 6                                 ",
"                                                . o + O o O . . . . . . + + . . O O + + 6 6 4 +                                 ",
"                                                . + + > 1 + + . . . . + > + . , 4 + + 6 4 6 6 +                                 ",
"                                                + > 1 , 6 1 + . . . . . o O + + 6 k k c 4 a 6 +                                 ",
"                                                . + , 1 1 1 + + . . . . . + O + 6 n v c 6 6 4 +                                 ",
"                                                . O = 1 + 1 + + > O . . . + + = 6 c v c 6 4 +                                   ",
"                                                  + 4 4 1 + O + 1 + . . . + 1 5 k e 6 c 6 4 1                                   ",
"                                                    3 6 + + + + + . . . O 1 6 e c 6 5 c c 4 1                                   ",
"                                                    l 6 $ > + . + + . . + v v c 6 4 c B v 4 +                                   ",
"                                                    c c 6 , 4 4 > . . . O e n 6 2 6 c m v 1 O                                   ",
"                                                    v v 6 1 $ 4 1 . . . . + s g T E I q 4 + O                                   ",
"                                                    6 v 1 4 > + + . . . + w y P R E P q $ O                                     ",
"                                                    2 s w w = @ X . . . + 9 f P U T g d =                                       ",
"                                                    9 d d 9 & # @ X X . . # q P P U f d &                                       ",
"                                                    0 9 7 % % @ @ X X X X @ 7 0 d d d q = +                                     ",
"                                                      % 7 % # @ X X X X X # % % 7 7 7 0 0 & %                                   ",
"                                                        @ # @ X X X X X X % # @ o o % 0 f 0 #                                   ",
"                                                          @ @ @ X X X X X # 7 9 0 0 q q f 9 %                                   ",
"                                                            @ @ @ X X . X # 9 0 0 d y f d 9 #                                   ",
"                                                              % # @ X X X # 9 9 0 q d f q 9 &                                   ",
"                                                              % @ @ X X X   7 9 0 q f d 0 9                                     ",
"                                                            7 7 @ @ @ X . @ & 0 q d g 0 &                                       ",
"                                                          9 & 7 7 @ X X . @     9 f d 0 @                                       ",
"                                                        7 7 9 - @ @ @ X . @     8 q & & +                                       ",
"                                                      0 7 7 % & @ X @ X X       @ 0 9 9 &                                       ",
"                                                      $ = = $ = @ . .           7 0 0 0 & #                                     ",
"                                                      + > , 1 + + O           0 0 0 0 0 9 & %                                   ",
"                                                                            0 q 0 0 0 9 0 & $                                   ",
"                                                                          8 9 9 9 9 9 = & $                                     ",
"                                                                          O + $ > 1 $ $ +                                       "
};
