/* XPM */
static char *enemy_attacking_11665693181[] = {
/* columns rows colors chars-per-pixel */
"64 64 205 2 ",
"   c None",
".  c #050404",
"X  c #0C0600",
"o  c #0D0A06",
"O  c #0B0B0B",
"+  c #070809",
"@  c #140D03",
"#  c #120E0A",
"$  c #180F03",
"%  c #1B1205",
"&  c #15120D",
"*  c #1C130B",
"=  c #141A08",
"-  c #191F0B",
";  c #161405",
":  c #0E0F10",
">  c #0F1113",
",  c #131313",
"<  c #191713",
"1  c #1B1B1B",
"2  c #171818",
"3  c #360F02",
"4  c #221506",
"5  c #291607",
"6  c #241709",
"7  c #25190B",
"8  c #2B1B0B",
"9  c #311E0D",
"0  c #221A12",
"q  c #201E1B",
"w  c #341F1A",
"e  c #1F270D",
"r  c #2A220F",
"t  c #34210F",
"y  c #38200D",
"u  c #2B2412",
"i  c #2B231B",
"p  c #272517",
"a  c #362311",
"s  c #3B2512",
"d  c #3D2916",
"f  c #37271C",
"g  c #2D361C",
"h  c #2F381D",
"j  c #141A20",
"k  c #1D2022",
"l  c #232424",
"z  c #2A2725",
"x  c #2B2A26",
"c  c #26292B",
"v  c #2B2B2B",
"b  c #232729",
"n  c #312E2B",
"m  c #362A25",
"M  c #2F302E",
"N  c #35312B",
"B  c #3B342A",
"V  c #343728",
"C  c #2C2E31",
"Z  c #222B32",
"A  c #2F3132",
"S  c #2D3238",
"D  c #333333",
"F  c #3B3632",
"G  c #353738",
"H  c #363A3C",
"J  c #3C3C3C",
"K  c #5E0E01",
"L  c #421D0C",
"P  c #461C03",
"I  c #791D01",
"U  c #741B12",
"Y  c #6A1501",
"T  c #48200C",
"R  c #56270F",
"E  c #452C16",
"W  c #492D1B",
"Q  c #452718",
"!  c #582C14",
"~  c #4B371B",
"^  c #5C391E",
"/  c #5F3414",
"(  c #66330F",
")  c #672C10",
"_  c #792211",
"`  c #653212",
"'  c #66361E",
"]  c #733511",
"[  c #4B2C25",
"{  c #422A20",
"}  c #4B3A2B",
"|  c #593828",
" . c #463A33",
".. c #523E32",
"X. c #643D22",
"o. c #3D452C",
"O. c #3F4531",
"+. c #6D4D1B",
"@. c #7A471B",
"#. c #47442E",
"$. c #494438",
"%. c #594938",
"&. c #62412D",
"*. c #6B4E27",
"=. c #764A28",
"-. c #684639",
";. c #6B5335",
":. c #765739",
">. c #353A42",
",. c #3E4145",
"<. c #3D4249",
"1. c #444444",
"2. c #45484A",
"3. c #4B4B4B",
"4. c #554C45",
"5. c #525353",
"6. c #5B5B5C",
"7. c #56585B",
"8. c #5C554D",
"9. c #685547",
"0. c #635D58",
"q. c #7B6249",
"w. c #67635D",
"e. c #646464",
"r. c #696966",
"t. c #8E2A01",
"y. c #883607",
"u. c #923600",
"i. c #882714",
"p. c #873013",
"a. c #9A381B",
"s. c #A33B06",
"d. c #A23F25",
"f. c #89440A",
"g. c #974606",
"h. c #9E4911",
"j. c #84431B",
"k. c #AB4E00",
"l. c #A95402",
"z. c #BB5B06",
"x. c #A94E19",
"c. c #AD5017",
"v. c #B3531C",
"b. c #BE7319",
"n. c #B9610C",
"m. c #804B28",
"M. c #81522A",
"N. c #80553B",
"B. c #BE5A20",
"V. c #BB5B2A",
"C. c #B2512C",
"Z. c #AB542A",
"A. c #9C6222",
"S. c #956F3B",
"D. c #A06422",
"F. c #AA7229",
"G. c #B57A2E",
"H. c #A26E32",
"J. c #A97D31",
"K. c #C8690D",
"L. c #CC750C",
"P. c #D97D15",
"I. c #C56627",
"U. c #C46934",
"Y. c #D2763A",
"T. c #856441",
"R. c #896B50",
"E. c #80735E",
"W. c #9A764B",
"Q. c #BE6340",
"!. c #A17740",
"~. c #8D7360",
"^. c #9F7C61",
"/. c #CC7346",
"(. c #B6902B",
"). c #DE9B1A",
"_. c #FD9301",
"`. c #FF9D00",
"'. c #F59705",
"]. c #FA8F15",
"[. c #E49413",
"{. c #E69F1C",
"}. c #FF9416",
"|. c #E7860D",
" X c #FDA608",
".X c #FFBC06",
"XX c #FFA018",
"oX c #C38529",
"OX c #D79122",
"+X c #C28933",
"@X c #F3973B",
"#X c #FFC706",
"$X c #FEF70D",
"%X c #FDFB19",
"&X c #DDC135",
"*X c #E4CF2F",
"=X c #EADF2E",
"-X c #FDFE34",
";X c #F2EB33",
":X c #AA8770",
">X c #AA8973",
",X c #FEFF47",
"<X c #FFFF96",
"1X c #FFFFAE",
"2X c #FFFFBD",
/* pixels */
"                                                        z c 1.7.1.l l                                                           ",
"                                                      n z v ,.5.1.v c C                                                         ",
"                                                      c C v G 1. .v C C                                                         ",
"                                                    D c A l c S S l v v v                                                       ",
"                                                    D n &.&.X.9.-.[ [ Q z                                                       ",
"                                                    c ..v.I.U./.Q.d.i.U m                                                       ",
"                                                    l  .v.B.U.U.C.a.i.U m                                                       ",
"                                                    2 f x.B.V.V.C.a.i.U *                                                       ",
"                                                    v q d x.=.4...' i.w n                                                       ",
"                                                      l c [ D <.>.v [ c D                                                       ",
"                                                    G v v c ^ @.| c c j J e.e.3.3.$.                                            ",
"                                                  G G v z [ g.z.f.{ z 1 G 6.e.6.5.2.J                                           ",
"                                              z l c G n n ) y.l.g.` z 1 c 5.e.e.6.5.3.J D z                                     ",
"                                            v G z , 2 D n v c R ' ,.v z 3.6.6.9.8.6.6.5.J l 1                                   ",
"                                          l J v j < # , O + O q N 2.3.G F 2.=.l.A.r.r.5.,.c q                                   ",
"                                        l c l l q 2 2 , + O 1 D ,.2.5.6.v G @.k.l.D.r.7.2.N j <                                 ",
"                                        l z 2 2 q q l l , 2 v J J J 1.3.z R y.u.u.u.m.] [ j , :                                 ",
"                                        z G c 1 1 l l v l j D G G G H G p Q | -.-.:.N.:.$.D z 2                                 ",
"                                          2.G l 2 q q l l < c A n v C z > C :.S.!.!.r.r.7.1.D l                                 ",
"                                          G v < , : : , l , < q j 1 2 , o <.oX`._.P.0.6.2.A c z                                 ",
"                                        v < < , : # + : q 2 # O # O O < 2 1.F.'.`.[.r.6.J l 1                                   ",
"                                        1 2 v D C 2 : c v c l l l l l l l J 4.F.`.[.w.3.v l z                                   ",
"                                      2.M v ,.G G b < A A A G G A l < , c ` n.'.).~.e.7.A                                       ",
"                                      } h.I.I.c.R , : < 2 2 q j z v z >.7.8.:.+.~ ,. .G l                                       ",
"                                    S %.OX#X#X{.*.j 2 < 1 < q q C <.4.G.+X+Xq.H l 2 j 2 ,                                       ",
"                                  C %.J.=X,X,X;X(.&.v z x n v G ;.H.G._._.L.;.,.v + : , .                                       ",
"                                  Z =. X%X1X2X-X#XU.3.N $.+.#.2.S.P.L.K.K.} v x q . + O . o                                     ",
"                                  Z =.}.%X<X<X-X XY.~.9.R.P.T.7.3.2.D v i q r r - o o o o , 2                                   ",
"                                  k =.@X&X%X$X*Xb.Z.>X>X>X^.q.F z z 1 r p p r r r r r 0 , # ,                                   ",
"                                  H $.M.n.].}.K.( $.q.9.;.9.-.V l D x - x u r r r r u p p                                       ",
"                                    N f ' =.' E f D  .F F F F F O.$.o.V M z - o o o o O                                         ",
"                                      } } N k > > 2 2 2 2 z V V o.o.o.g z z , . . . . . .                                       ",
"                                      -.$.} v O . + + + o 8 p g h h g e l 1 : . . . . + o O                                     ",
"                                              . + . + + o - = = e e = ; 1 O . . . . . + : , ,                                   ",
"                                              . . + o + + . . . . . . . + + . . . . + O : 1 1 2                                 ",
"                                                . + : + + + . . . . . . O O . . o + + # 2 j 2 #                                 ",
"                                                . O # : , : o . . . . O : O . > 2 : : j 2 j 2 :                                 ",
"                                                O : , : 2 , O + . . . . o + . : 2 q q l 2 l 2 O                                 ",
"                                                + O : , , , : + . . . . . O O O 1 v z l 1 1 < o                                 ",
"                                                . . , , O : O o O O . . . O O & 2 l z l q 2 :                                   ",
"                                                  o 2 2 , O + : , O . . o O > 2 p l j l 1 2 ,                                   ",
"                                                    2 2 : O + O O . . . . , 2 l j q 2 l l 2 ,                                   ",
"                                                    l 2 , O # + O O . . O c b l 1 < l D c < O                                   ",
"                                                    l l 2 , < 2 : . . . + q z q < q l v l , o                                   ",
"                                                    z c 1 > , < , . . . . O i d ` s.y.9 < O .                                   ",
"                                                    1 z < < : O O . . . O 0 t E / p.) t # +                                     ",
"                                                    < i 0 < * o . X . . O 7 s E E ~ s a *                                       ",
"                                                    8 y t 7 % @ @ X X . . $ 9 Q E E d a *                                       ",
"                                                    9 6 6 % % @ @ X X X X @ % 8 a a s y & o                                     ",
"                                                      % % % @ @ X X X X X $ % % 4 5 5 9 8 % %                                   ",
"                                                        @ @ @ X X X X X X % % 3 K K Y I t.P #                                   ",
"                                                          @ @ @ X X X X X @ % 8 L L L P R 8 $                                   ",
"                                                            @ @ @ X X X X $ 7 8 8 a a a a 6 $                                   ",
"                                                              $ $ @ X . X $ 5 7 8 9 a s t 7 %                                   ",
"                                                              % $ @ X X X   6 7 9 9 s a 8 6                                     ",
"                                                            4 % @ @ @ X . # % 8 9 a s 8 %                                       ",
"                                                          7 % 4 4 @ X X X @     6 s a 8 @                                       ",
"                                                        6 4 7 % $ X @ X . @     6 9 * % o                                       ",
"                                                      7 6 % % % @ X X X .       # 8 5 7 %                                       ",
"                                                      # & & & # # X .           6 8 8 8 % %                                     ",
"                                                      O : > : : O .           8 8 8 8 8 7 % %                                   ",
"                                                                            8 8 8 8 8 7 8 % #                                   ",
"                                                                          7 7 7 7 7 6 * % #                                     ",
"                                                                          + O # : , : # O                                       "
};
