/* XPM */
static char *enemy_dying_51665788730[] = {
/* columns rows colors chars-per-pixel */
"64 64 151 2 ",
"   c None",
".  c #050505",
"X  c #0E0000",
"o  c #0C0C0C",
"O  c #120101",
"+  c #1B0101",
"@  c #120C0C",
"#  c #1E0C0C",
"$  c #131313",
"%  c #181414",
"&  c #1B1B1B",
"*  c #240101",
"=  c #2C0101",
"-  c #220C0C",
";  c #2A0A0A",
":  c #340101",
">  c #3B0101",
",  c #350C0C",
"<  c #3D0909",
"1  c #2F1414",
"2  c #351414",
"3  c #381111",
"4  c #321C1C",
"5  c #391C1C",
"6  c #222222",
"7  c #2C2C2C",
"8  c #362727",
"9  c #392323",
"0  c #332C2C",
"q  c #392828",
"w  c #333333",
"e  c #3C3C3C",
"r  c #440101",
"t  c #4B0101",
"y  c #430A0A",
"u  c #4D0909",
"i  c #540000",
"p  c #5C0101",
"a  c #530C0C",
"s  c #5B0D0D",
"d  c #460F10",
"f  c #4D0F10",
"g  c #510F10",
"h  c #461414",
"j  c #4D1313",
"k  c #411919",
"l  c #4C1B1B",
"z  c #541212",
"x  c #5C1213",
"c  c #5E1718",
"v  c #630101",
"b  c #6C0101",
"n  c #6D0C0C",
"m  c #730101",
"M  c #7A0101",
"N  c #770808",
"B  c #7F0A0A",
"V  c #651212",
"C  c #691313",
"Z  c #631B1C",
"A  c #6B1C1D",
"S  c #741515",
"D  c #731C1C",
"F  c #781F1F",
"G  c #6D1F20",
"H  c #432626",
"J  c #4A2424",
"K  c #4D2F2F",
"L  c #562727",
"P  c #532D2D",
"I  c #5B2D2D",
"U  c #463434",
"Y  c #423F3F",
"T  c #4A3D3D",
"R  c #513434",
"E  c #5B3131",
"W  c #6E2122",
"Q  c #732324",
"!  c #7C2324",
"~  c #7D2728",
"^  c #7F3A3A",
"/  c #424242",
"(  c #4D4546",
")  c #4C4C4C",
"_  c #554949",
"`  c #584B4B",
"'  c #535353",
"]  c #5A5254",
"[  c #5B5B5B",
"{  c #634D4D",
"}  c #784141",
"|  c #665656",
" . c #6D5151",
".. c #615F5F",
"X. c #6B5A5A",
"o. c #755D5D",
"O. c #795D5D",
"+. c #656464",
"@. c #6C6C6C",
"#. c #796968",
"$. c #757575",
"%. c #7A7A7A",
"&. c #850101",
"*. c #8D0303",
"=. c #870A0A",
"-. c #930303",
";. c #980404",
":. c #970A0A",
">. c #9B0909",
",. c #8A1A1A",
"<. c #9D1010",
"1. c #A10303",
"2. c #AD0404",
"3. c #A30B0B",
"4. c #AA0A0A",
"5. c #B30505",
"6. c #B90707",
"7. c #B20A09",
"8. c #BF0F0F",
"9. c #842727",
"0. c #842B2B",
"q. c #8B2D2D",
"w. c #902D2E",
"e. c #863131",
"r. c #8C3333",
"t. c #933435",
"y. c #9C3434",
"u. c #9C393A",
"i. c #C51111",
"p. c #D51818",
"a. c #9E4343",
"s. c #A34244",
"d. c #A84D4E",
"f. c #AE4E50",
"g. c #AD5151",
"h. c #BC595B",
"j. c #838383",
"k. c #8C8C8C",
"l. c #959494",
"z. c #9D9D9D",
"x. c #A68F8F",
"c. c #A49C9C",
"v. c #AF9F9F",
"b. c gray65",
"n. c #ACACAC",
"m. c #B6B5B5",
"M. c #BBBBBB",
"N. c #CBCBCB",
"B. c #E2E2E2",
"V. c #F6F6F6",
"C. c white",
/* pixels */
"                                                                                                                                ",
"                                                                                                                                ",
"                                                                                                                                ",
"                                                                                                                                ",
"                                                                                                                                ",
"                                                                                                                                ",
"                                                                                                                                ",
"                                                                                                                                ",
"                                                                                                                                ",
"                                                                                                                                ",
"                                                                                                                                ",
"                                                                                                                                ",
"                                                                                                                                ",
"                                                                                                                                ",
"                                                                                                                                ",
"                                                                                                                                ",
"                                                                                                                                ",
"                                                                                                                                ",
"                                                                                                                                ",
"                                                                                                                                ",
"                                                                                                                                ",
"                                                                                                                                ",
"                                                                                                                                ",
"                                                                                                                                ",
"                                                                                                                                ",
"                                                                                                                                ",
"                                                                                                                                ",
"                                                                                                                                ",
"                                                                                                                                ",
"                                                                                                                                ",
"                                                  >                                                                             ",
"                                                          i             r                                                       ",
"                                              :     t   :           :   i =                                                     ",
"                                              p >                 > i                                                           ",
"                                                    r                                                                           ",
"                                              > : :                           :                                                 ",
"    v                                             t r r                     t                                                   ",
"                        i V y                         =                                                 b                       ",
"                        : z a                       >                     : =                         v i                       ",
"                          t 0.u r             a V       v     >       t   i                   t n i m i i                       ",
"                          p V i t             = r     i i                                     p F A > = =                       ",
"                        t r > : * >                   r v >                             > = = = : > =                           ",
"                        t v r * : + =     b     a       r :                               r : = r = +                           ",
"                        i M > = * = : :       D 9.          u.9.                          * : r * : t                           ",
"                        E v p t > * : > r t v S r.:         y.t.      D C           : > + + * b t : v i                         ",
"                    +.l.m.} m v = : + : > > v > u                       y           t > : t : i m m m i                         ",
"                  +.@.$.l.V b = * * + = > i :                             b         > > * > b p = t M p                         ",
"                  %.%.%.| t b p * O + * = r :   = = >                       b       : + + > v i i r i   b         9.            ",
"      -.7.      $.%.%.%.+.r i v r + * : = * >   >   r                       *.M = i : O X + = r r t : b b       F D s :         ",
"      v ,.r   @.$.$.@.+.T , t p = + + : = : :   > r i     :                 m &.: r r * + > * : : : : t K         a u           ",
"      x z a n +.+.' [ ' ' 2 = > r > + = = * >       >   : >   t             > : = p i y a s = 4 C P y b v.l.                    ",
"      y r y M i 4 l U 5 & + r F Q p = r = O *       : r >   &.m     >       : : i > a t.a.g.i a p 5 p 2.v.x.b.                  ",
"        * : p &.r i *.= ; + v t.e.u v : = + = = = > t b t > &.&.  t       : i r : m i z e.L > i r > r >.N z.M.n.                ",
"        e # -.&.M 6.b > : t b v < : b = + H c.8 * : i p t M i l J k     r : r r = M t i i * r &.2.v 3.4.z / $.z.k.              ",
"      7 w 0 >.i.3.&.M *.p > > + * i m t , +.' / / ' { y v v r i O.#.> > i h = : > t t i i * * = 4.6.&.>.s w w e @.$.            ",
"      o 6 / B -.: i *.M r r r = : -.1.i 4 k.j.w / +.%.k.z.M.c.5 ] R L  .P O.* : = i M m = * * r t &.m p - 0 w w e +.'           ",
"      o . $ y M *.M b p = r M t r v 8.i % ) [ ) +.$.j.k.j.%.%.] ( @ q > l p t p p * p p.t v r > p m p   . o 6 7 w 7 6           ",
"    & % % $ # r t i r   h p 1.;.b v 1.v + $ [ z.+...M.l.[ w e ] ( $ : : *.r * = * i 2.5.1.i i > p V G     . . o @ o 6 7 w       ",
"    $ % $ $ o * > t     A =.M 1.&.&.2.;.= @ w +.' %.C.V.e ) _ m p > p r 6.t p M : : t M M p b r W f.h.q.D @ o $ o o o & 6       ",
"  $ $ % $ $ # o @   Q Q Q a t M t -.*.p ; 9 w e 7 [ B.N.7 _ I ;.: : > : m v -.M p t b b i i v x t.r.u.u.q.D . o @ $ o $ 6 6     ",
"  $ $ $ 5 0.r.~ G Z c z g x v n < p i p = 8 w w e @.l.$.7 ) X.7.q O v i :.b r i =.V F A x r     Q a.g.f.u.! + o $ $ o o $ 6 6   ",
"  @ $ % z z A Q j y < < : ; a V Z j : > : * 2 w e e k.j.k.w e s h , v N i = * p x W Q Q q.w.q.r.s.t.0.A u a < . $ $   o o $ 6 & ",
"@ $ $ ; < g : y * * * * * = = = < < = : : : : , % % % & 7 +.0 Y I y t t = ; ; * = x G Q x s g u f x s a y a : . $ $     o o % & ",
"                                                                    b       *   , i r > > r r r r t > r r r r r ; ;             "
};
