/* XPM */
static char *enemy_dying_61665788731[] = {
/* columns rows colors chars-per-pixel */
"64 64 166 2 ",
"   c None",
".  c #070505",
"X  c #0D0303",
"o  c #0D0D0C",
"O  c #150303",
"+  c #1C0101",
"@  c #130A0A",
"#  c #1C0A0A",
"$  c #131313",
"%  c #1D1111",
"&  c #1B1B1B",
"*  c #240000",
"=  c #2C0101",
"-  c #220909",
";  c #2B0A0A",
":  c #330101",
">  c #3B0202",
",  c #320807",
"<  c #340909",
"1  c #3C0909",
"2  c #231414",
"3  c #2B1313",
"4  c #2D1A1A",
"5  c #341414",
"6  c #3D1414",
"7  c #341C1C",
"8  c #3B1C1C",
"9  c #222222",
"0  c #2C2C2C",
"q  c #332221",
"w  c #3C2323",
"e  c #3D2929",
"r  c #323232",
"t  c #383435",
"y  c #3B3B3B",
"u  c #430101",
"i  c #4B0101",
"p  c #490807",
"a  c #430909",
"s  c #4C0B0C",
"d  c #540101",
"f  c #5B0101",
"g  c #530B0C",
"h  c #5B0D0D",
"j  c #441313",
"k  c #4A1616",
"l  c #451A1A",
"z  c #551010",
"x  c #5C1515",
"c  c #5B1718",
"v  c #551F1F",
"b  c #5F1D1D",
"n  c #630101",
"m  c #6C0101",
"M  c #640A0A",
"N  c #6B0B0B",
"B  c #720101",
"V  c #7B0000",
"C  c #730909",
"Z  c #631314",
"A  c #6B1717",
"S  c #641B1B",
"D  c #6D1B1B",
"F  c #7F1010",
"G  c #731D1D",
"H  c #7A1C1C",
"J  c #432323",
"K  c #4A2525",
"L  c #4E2C2C",
"P  c #5C2121",
"I  c #5D2929",
"U  c #433434",
"Y  c #4C3232",
"T  c #433B3B",
"R  c #4D3939",
"E  c #533535",
"W  c #5B3434",
"Q  c #533D3D",
"!  c #5B3939",
"~  c #642323",
"^  c #6F2020",
"/  c #662E2E",
"(  c #6C2D2D",
")  c #752424",
"_  c #7A2626",
"`  c #7F2728",
"'  c #7F2929",
"]  c #693535",
"[  c #643D3D",
"{  c #723030",
"}  c #424242",
"|  c #4A4A4A",
" . c #554343",
".. c #5C4242",
"X. c #564B4B",
"o. c gray33",
"O. c #585151",
"+. c #5D5D5D",
"@. c #604343",
"#. c #6A4848",
"$. c #764546",
"%. c #655252",
"&. c #6B5454",
"*. c #665D5D",
"=. c #6B5C5C",
"-. c #725B5C",
";. c #7D5F5F",
":. c #695F61",
">. c #646464",
",. c #6C6A6A",
"<. c #756767",
"1. c #7A6464",
"2. c #7B6C6C",
"3. c #757575",
"4. c #787474",
"5. c #7D7979",
"6. c #830202",
"7. c #8B0202",
"8. c #830B0B",
"9. c #880A0A",
"0. c #930202",
"q. c #9B0202",
"w. c #940B0B",
"e. c #801010",
"r. c #851C1D",
"t. c #8E1E1E",
"y. c #971212",
"u. c #A30707",
"i. c #AB0303",
"p. c #A80909",
"a. c #B60505",
"s. c #B60909",
"d. c #822424",
"f. c #852C2C",
"g. c #8A2B2B",
"h. c #912D2E",
"j. c #853232",
"k. c #8D3131",
"l. c #943435",
"z. c #94393A",
"x. c #9D393A",
"c. c #DB1818",
"v. c #A13F41",
"b. c #A5494A",
"n. c #AC4C4D",
"m. c #AA5050",
"M. c #B05052",
"N. c #B65658",
"B. c #8C6C6D",
"V. c #827171",
"C. c #8C7575",
"Z. c #957F7F",
"A. c #838383",
"S. c #8F8686",
"D. c #938484",
"F. c #9B8685",
"G. c #9D8888",
"H. c #909090",
"J. c #9F9595",
"K. c #A28C8C",
"L. c #AA9797",
"P. c #B8A8A8",
"I. c #B4B0B0",
"U. c #B8B6B6",
"Y. c #C4BDBD",
"T. c #C4C3C3",
/* pixels */
"                                                                                                                                ",
"                                                                                                                                ",
"                                                                                                                                ",
"                                                                                                                                ",
"                                                                                                                                ",
"                                                                                                                                ",
"                                                                                                                                ",
"                                                                                                                                ",
"                                                                                                                                ",
"                                                                                                                                ",
"                                                                                                                                ",
"                                                                                                                                ",
"                                                                                                                                ",
"                                                                                                                                ",
"                                                                                                                                ",
"                                                                                                                                ",
"                                                                                                                                ",
"                                                                                                                                ",
"                                                                                                                                ",
"                                                                                                                                ",
"                                                                                                                                ",
"                                                                                                                                ",
"                                                                                                                                ",
"                                                                                                                                ",
"                                                                                                                                ",
"                                                                                                                                ",
"                                                                                                                                ",
"                                                                                                                                ",
"                                                                                                                                ",
"                                                                                                                                ",
"                                                                                                                                ",
"                                                                                                                                ",
"                                                                                                                                ",
"                                                                                                                                ",
"                                                                                                                                ",
"                                                                                                                                ",
"                                                                                                                                ",
"                                                                                                                                ",
"                                                                                                                                ",
"                                                                                                                                ",
"                                                      >                                                                         ",
"                                                                                                                                ",
"                            ; K L               :                                                                               ",
"            > :           Y W #.;.C.            >                                                                               ",
"            < a p     @.C.G.1.C.L.K. .          u   u >                                                                         ",
"              : i   O.5.U.Y.P.K.@.; e       >   d   i u       :                                                                 ",
"                  f W 3.H.T.S.8 + > h !     , > f             u             i         ` s : R 3 # 3   h.d.g.    6.  m           ",
"                3.8 > *.&.+.y q # 1 G ;     > >     = : f d         :   u   d   :   , 6 E Z.D.D.%.1.[ j.D D     6.B n           ",
"                3.] i R P v R | q % j   +                       u   >               < 6 8 &...! L L.U.1.L     d B i i           ",
"              ,.&.! m j ; H ~ T q e %.<.8         d                     f.k.r.  > a O - w 4.Q j k Q 2.K.e * i n > =             ",
"            >.>.[ g B = = g g < i : U ,.3         > d           : :     D _ s   u u . X 3 T 8 J j * > N : > f u +               ",
"          >.>.>.o.d 6.B i i > = = u E =.e     g.          : > i d.i     : i     8.# @ X ; 4 1 d = = * m V u V i O               ",
"        r | o.o.o.f V n q.n = = = > u 7  .X.D.m.A   *     u n g n.z i   :     e.( # : > u : + * : f f n n 7.0.S                 ",
"        y y } | } ; u f f u > = * : m i > J B.{ A 6 7 + > f V f t.Z u       n B 5 5 f n i i : : = : n f = > B / A.*.            ",
"      0 y y | o.0 $   i d : = i u > 0.= + j W k 6 U <.&.R : u V V i d B p I ~ a ; X B V > i u d = = i u m m i 7 [ N ,.          ",
"      . o r } 0 o .   = : u : > u d n d O * 3 3 s S ! V.2.*.z j w E E c n $.F.C.w + d n u i 7.n =   + u : : = 6 B Q t           ",
"      $ o $ & o @ ; B B * : = = * i 6.9.* > u J Z 6.: ,.5.%.U :.2 X.O 7 j B.-.E + : B 6.u.B B u n m > : > i # i u & & r         ",
"7.  2 & $ o $ $ > 7.a.> u : : * = 6.i.7.+ u f M N u s I. .U t >.& =.= + i 6.u i > * > m c.6.> u f 1 c w.B V O d 8.. 9 0 0       ",
"7.M $ $ $ $ o o y.0.6.n f i n > > f 0.6.u i : u f d i : > l = d 5 , f = B q.: = > * n u.q.0.= + h j.N.M.f.w.n n C u @ $ 9 9     ",
"M ; $ $ $ $ % - d = h r.s i 6.G g p M q.> : : > > i = : > > j V > : : : > 7.> B 6.u : d q.0.= 6.A z.l.x.x.d.C V 7.p o $ & 9     ",
"  $ $ $ % b k.f.) x S c a V n f.G s M n : m n M 7.n 7.C : n 7.6.> * * m m 6.n n f f A d.H h d n h f.b.M.n.l.Z C 0.> @ o $ & 9   ",
"o o $ $ p c c c ) s a 1 > g = a D a > d u : > = d > > m : n p.n > i u m C u * : h Z ) ) _ g.h.g.z.v.k.d.Z p g n B > , @ o o & 9 ",
"> a , * : 1 z > < > = * = = > > > , : : : * : > a > > = = f s.w.i = > i a > > a > s c D D h x g a z x g p p g > u < > = . o $ & ",
"                                        > :                                   d > d M M d                                       "
};
