/* XPM */
static char *enemy_walking_31665693183[] = {
/* columns rows colors chars-per-pixel */
"64 64 101 2 ",
"   c None",
".  c #040404",
"X  c #0E0700",
"o  c #0F0801",
"O  c #0D0D0D",
"+  c #140D02",
"@  c #190F04",
"#  c #130F0A",
"$  c #1C1205",
"%  c #10170D",
"&  c #1B140A",
"*  c #131D0D",
"=  c #131313",
"-  c #171718",
";  c #1C1C1B",
":  c #211507",
">  c #231709",
",  c #25180A",
"<  c #2B1B0B",
"1  c #311F0E",
"2  c #221911",
"3  c #231F1F",
"4  c #26231F",
"5  c #1F2021",
"6  c #182628",
"7  c #0D353A",
"8  c #232323",
"9  c #292424",
"0  c #2C2925",
"q  c #262A2A",
"w  c #2B2B2B",
"e  c #332D25",
"r  c #332F2C",
"t  c #3D3527",
"y  c #34312B",
"u  c #3A332A",
"i  c #363A2B",
"p  c #393E2D",
"a  c #233133",
"s  c #21383B",
"d  c #333333",
"f  c #3B3734",
"g  c #373932",
"h  c #3D3D33",
"j  c #3B3B3B",
"k  c #40352C",
"l  c #453B2C",
"z  c #483C2E",
"x  c #403A32",
"c  c #493F35",
"v  c #413D38",
"b  c #4B412E",
"n  c #4B4034",
"m  c #44403D",
"M  c #534433",
"N  c #5E4D3C",
"B  c #123F45",
"V  c #283E41",
"C  c #1B444A",
"Z  c #1E4E54",
"A  c #244144",
"S  c #284347",
"D  c #28464A",
"F  c #22545A",
"G  c #395154",
"H  c #3D585B",
"J  c #255E65",
"K  c #0E646E",
"L  c #14626D",
"P  c #0D6C78",
"I  c #1B717C",
"U  c #2D6870",
"Y  c #434343",
"T  c #4B4B4B",
"R  c #574B41",
"E  c #545454",
"W  c #5B5B5B",
"Q  c #614E41",
"!  c #655647",
"~  c #695643",
"^  c #6C5848",
"/  c #705946",
"(  c #78624F",
")  c #646464",
"_  c #6B6B6B",
"`  c #747474",
"'  c #7A7A7A",
"]  c #097583",
"[  c #097B8B",
"{  c #0A8595",
"}  c #0D8C9D",
"|  c #0D8FA0",
" . c #0E90A1",
".. c #1298A9",
"X. c #159FB1",
"o. c #14A2B4",
"O. c #18A2B4",
"+. c #17ABBE",
"@. c #19B1C5",
"#. c #1BBAD0",
"$. c #1DC1D7",
/* pixels */
"                                                            q 9 f E E w q                                                       ",
"                                                          w w q j T T r q w                                                     ",
"                                                          w w w d Y Y w w r                                                     ",
"                                                        j q r 0 9 r f 9 q 0 w                                                   ",
"                                                        d w S F F J U J Z C a 0                                                 ",
"                                                        w d L  .@.#.#.X.} [ C 9                                                 ",
"                                                        ; d L { X.@.@.} ] ] B 9                                                 ",
"                                                        ; ; L } ..X.X.} ] ] 7 o                                                 ",
"                                                        d 5 6 K I G H V P B w d                                                 ",
"                                                9 Y ) v j 9 8 s V v Y w V q w                                                   ",
"                                      8 j ) ' W E E E Y V r w w d Y T w w 3 9   E w                                             ",
"                                    r v E _ ' ' ' ` E d Y r q w j E T r q - 8 T ) Y j                                           ",
"                                  8 f ) ` ` ' ' ' ` W - d w w 9 d T T 9 8 ; ; j ) _ _ _ W T f                                   ",
"                                ; w V T W ) ` ` _ W T w ; r w ; - ; 5 ; = * % 9 T ) ` _ ) W f 5                                 ",
"                                5 d Y Y Y Y T E Y E _ T Y j 3 # . . . O O = 5 V T j ) ) E Y d 8                                 ",
"                                ; w d f j v d r V ) _ E T E Y 9 O . O - w j f Y Y w d T Y j d 8 -                               ",
"                                d 8 - ; 8 w - - d T T T T T T V 9 O - w j Y v T Y j 5 j j d d w ;                               ",
"                                j j j j w d = O ; d j V m v Y j d 5 5 d j d v V V d = 9 9 3 8 w                                 ",
"                              Y j E _ ) W E m = O ; w d d d r w 8 8 3 r j d 9 9 e 3 O - 8 9 8 ;                                 ",
"                              d Y W ` ` ` ` ) ; . O ; ; 8 ; ; - 5 w 8 w E Y w 9 = O O ; v V w 3                                 ",
"                              ; Y ) _ _ ` W j = . O O O O = O = w T V r _ E E V O . . r v r 5 3 ; ;                             ",
"                              8 j W ) W W Y j = O O O O O - 5 ; = ; d T d d d 8 O . = - 2 S V 3 ; ; ;                           ",
"                              ; T _ _ ) E w - O O O O = # O - - O O r d ; - 9 9 O = = = d W _ T ; ;                             ",
"                            d w d T W E Y q O . O O O . = = = = ; 3 3 - 8 8 5 ; w w d r Y T Y m u ;                             ",
"                            8 ; w E ) W E Y w O . . O O ; 5 8 5 w d 3 8 V j d r i h Y j h y n ^ / R                             ",
"                            - O 8 E _ _ _ E f - = O = ; w d d d m V f v k d d f p i d d y z ~ ( ~ Q                             ",
"                            = - ; j W ) T d 8 8 8 8 w r d j f j m j j V 5 ; ; w d 8 8 8 8 R ! n u 5                             ",
"                            = ; d f j j - 8 q 8 8 8 q w w q f j w 9 r 9 8 q 9 w w w 8 ; ; d v e 8                               ",
"                              8 d q ; 8 8 w q 8 8 8 8 8 9 q q 8 8 w d q r r r d d 8 w 8 ; w w 8                                 ",
"                              8 f d - w ) w 8 8 8 8 8 8 w r 0 9 9 q w w T V d r 8 8 j 8 ; ; ; -                                 ",
"                                q q ; w E w w 8 8 8 q 8 q u r q 5 5 9 ; 9 5 3 5 ; ;       4 8 8                                 ",
"                                  5 8 8 d T r w 8 8 q q w M x 0 5 5 8 - O O O ; 8 =                                             ",
"                                    8 ; ; T w w 9 8 w y c N M l w 3 3 5 = = = 5 w ;                                             ",
"                                        - w 8 w w d d x N M M b r ; ; w 3 - - - 9 8 ;                                           ",
"                                        - w 8 8 j Y g n b l l 0 - ; w j 5 - - ; ; - %                                           ",
"                                        = - 5 Y f 8 9 0 z t 4 = O 3 E j w 5 3 5 ; = .                                           ",
"                                        - = - w d a j E d 3 = # O O - w w 5 3 - - - O                                           ",
"                                        = O - - 8 r d r ; ; - O O = - - - - = - - - .                                           ",
"                                        = O = = ; 8 8 5 ; 5 ; O O O = O = = = - - = O                                           ",
"                                        = O O = - ; ; ; q 8 - = = O = O = O O = = O .                                           ",
"                                          O = = = - ; ; 8 ; - = = ; - O O = O O = .                                             ",
"                                          O = - = = ; ; ; ; - = O - ; - O = = O O .                                             ",
"                                          = - - O = - - = ; ; = O O = = O O = = O .                                             ",
"                                          % - - = O = O = ; ; = O = O O O O = - O .                                             ",
"                                          O = = = O O = = - - = O = - = = O = O O .                                             ",
"                                          + & & > : 2 & % & , 2 O # 2 2 = O O O O                                               ",
"                                          + & < < < < < > : < < O + : , > & & # O                                               ",
"                                          @ $ , , : : : : : : $ + @ : : < 1 < # O                                               ",
"                                            + $ : : : $ $ $ $ o + $ > : > > > $ $                                               ",
"                                            o + $ : : $ $ @ + + + @ : : > > : $ @                                               ",
"                                            + $ $ $ $ + o $ o + + o @ $ : : $ $                                                 ",
"                                            $ , , $ $ $ $ $   O + + + @ + + +                                                   ",
"                                            $ < < > > : : $   # + o + + + +                                                     ",
"                                              < , : $ $ $ $   $ + o + $ +                                                       ",
"                                              $ $ $ $ $ +     $ + o + $ +                                                       ",
"                                              + $ $ $ @ X     @ + X o + o                                                       ",
"                                              + @ $ $ $ +     > + . X X X                                                       ",
"                                              : $ $ $ $ @     : + X X X X                                                       ",
"                                              > , < > $ $     : $ @ X X +                                                       ",
"                                              , < < 1 > :     + $ : @ X X                                                       ",
"                                              > < < 1 , >       + @ + X X                                                       ",
"                                              > > < , > >         X X X                                                         ",
"                                              , > > > : :                                                                       ",
"                                              : > > $ O O                                                                       "
};
