/* XPM */
static char *enemy_walking_11665693182[] = {
/* columns rows colors chars-per-pixel */
"64 64 113 2 ",
"   c None",
".  c #050403",
"X  c #0C0601",
"o  c #0E0802",
"O  c #0C0C0C",
"+  c #140C02",
"@  c #180F03",
"#  c #120D08",
"$  c #171003",
"%  c #1C1205",
"&  c #14130C",
"*  c #1C150D",
"=  c #131313",
"-  c #171D14",
";  c #191C15",
":  c #1B1B1B",
">  c #221507",
",  c #231609",
"<  c #271909",
"1  c #2B1B0B",
"2  c #311F0E",
"3  c #221E16",
"4  c #281B10",
"5  c #201D18",
"6  c #1B2716",
"7  c #34210F",
"8  c #24221D",
"9  c #262A1C",
"0  c #2B2C1E",
"q  c #342213",
"w  c #3A2512",
"e  c #201F20",
"r  c #0E282B",
"t  c #1D2323",
"y  c #182B2E",
"u  c #15363A",
"i  c #1E393D",
"p  c #242424",
"a  c #292625",
"s  c #262B24",
"d  c #2A2A25",
"f  c #242D2F",
"g  c #2B2B2B",
"h  c #2D3125",
"j  c #333325",
"k  c #3A3226",
"l  c #34322D",
"z  c #3C342A",
"x  c #393F2C",
"c  c #2C3C3E",
"v  c #333333",
"b  c #393333",
"n  c #363833",
"m  c #3B3A34",
"M  c #373738",
"N  c #343A3B",
"B  c #3B3B3B",
"V  c #423727",
"C  c #40372B",
"Z  c #42392D",
"A  c #4C3F2E",
"S  c #473E33",
"D  c #493E32",
"F  c #423D3D",
"G  c #3C4032",
"H  c #4A402E",
"J  c #50422F",
"K  c #484034",
"L  c #4F443A",
"P  c #544534",
"I  c #564835",
"U  c #5B4A37",
"Y  c #544739",
"T  c #5D4C3B",
"R  c #62503C",
"E  c #203C40",
"W  c #1C4348",
"Q  c #1E4D53",
"!  c #234145",
"~  c #28474C",
"^  c #244A4F",
"/  c #22545A",
"(  c #3C5457",
")  c #0B6E7B",
"_  c #106B77",
"`  c #0D707C",
"'  c #2A636B",
"]  c #216871",
"[  c #434343",
"{  c #4B4B4B",
"}  c #574E44",
"|  c #535353",
" . c #5B5B5B",
".. c #6E5845",
"X. c #755F4C",
"o. c #76604B",
"O. c #646464",
"+. c #6A6A6A",
"@. c #747474",
"#. c #846953",
"$. c #977A63",
"%. c #9E7F67",
"&. c #097482",
"*. c #0D8B9B",
"=. c #1095A6",
"-. c #159BAD",
";. c #139EB0",
":. c #14A3B6",
">. c #18A2B4",
",. c #16A8BB",
"<. c #17ADC0",
"1. c #19B2C6",
"2. c #1CBED3",
/* pixels */
"                                                          p p [  .{ g e                                                         ",
"                                                        l g l E } { g g v                                                       ",
"                                                        a g g b [ [ a g l                                                       ",
"                                                      F a l g a b b e g g g                                                     ",
"                                                      b l ~ / / ' ' / Q W f                                                     ",
"                                                      g M ) =.<.2.2.;.*.&.E                                                     ",
"                                                      e N ) *.:.1.,.*.&.&.i                                                     ",
"                                                      5 t ) *.=.>.-.*.&.) r                                                     ",
"                                                      v 5 y ` ] ( ( ^ ) u g                                                     ",
"                                                    B q a a E E F F g E p g                                                     ",
"                                                  { F k g g g b [ [ g g : 5 p v [ b                                             ",
"                                                | [ g E l a g F | { g a : 3 d [ | } E                                           ",
"                                    l E | | |  .| M : d e a a M { [ g d : p M {  .+. .[ M g                                     ",
"                                  e l { O.+.@.+. .{ v p : g g 5 8 g [ g : : M v g O. .{ { M e       :                           ",
"                                e v [ } { O.O.[ | O. . .O.F p = O O : g B { B [ { e [ |  .F p : : : : :                         ",
"                                e g [ | | E g l [ { |  .| } ~ g = : v F g O. .[ g = 6 p e : v [ : : :                           ",
"                                : : a v v g = e v E { { { { [ b e e { b E { F M p = = O & p | +.{ :                             ",
"                                p l M M g p : - s v F b b b v g e : v v F p e : p p p l g B { | { z :                           ",
"                                N {  . .| E p - = e p g e e e : = = O e a 5 5 e 8 l m [ E S b l S X.D l                         ",
"                                B | O.+.$.O.g ; O O = = = O O O O = = : : l M b n G x b M D V Z X.%.#.F                         ",
"                              M { | {  .@.| e : O . O O . O O = = e v g v B E [ B n s p p L T ..$.#...k                         ",
"                              M [ { | | { E e O O O O O . O = e g v E F [ p 5 e t d p : : M } ..P A k 3                         ",
"                              B B  .@. .E B g = O O O . = e g l M [ L b g p p p g b a p : g Z V 0 d a g                         ",
"                              g v F L [ b e   X . . O : a g F E E B g b p g g g g p t B p : p p p a g v                         ",
"                            : d e E  . .[ 5 g e : = : a v l v v b a p l g E F g e e e m g p 6 p g d v v                         ",
"                            : : e | @.$.+.b v v g e p a g g p p a e a a e v v 5 = : ; h v g g g v v M                           ",
"                            = O E  .O.O.+.F v p p e p p p p g a g a e a = # : = = : ;       g v M                               ",
"                            = . a [ { [ E : e p p p p p p g l l g e e e : = 0 d : p =                                           ",
"                              = g F g : p e g g p p p p p p k A z p p : : = d 0 : p =                                           ",
"                                : : : : e O.v e p p p g g l Y U P z : : = e g d p : p                                           ",
"                                  = = : p | v g g g p g v Y T I z a p d = = ; : = =                                             ",
"                                      : p l { v g g p M S Y D k d h G B v p : = = e e ;                                         ",
"                                        p : { v p l v l z H K l 9 9 d n K g : ; ; : : =                                         ",
"                                            g p g M B p p z v g 6 . O : t : = = = O O O                                         ",
"                                            g p N M : p p p O . . O = : = = = O O O O = O                                       ",
"                                          O O e p p : p p s : O . O = = O = O O O O O O O                                       ",
"                                          O O ; ; : e g g g O . . O = = O O O O O . O = O                                       ",
"                                          . O O = = e g p = O . . . = = = = O O O O O O O                                       ",
"                                          O O O O = e e = O O O . . O O O O O O O O O O O                                       ",
"                                          . O O O : : : = O = O O O O O O O O = O O = O .                                       ",
"                                            O . = e : : = = O O . O = = O = = O O = O .                                         ",
"                                              O : p : = O O O O O O : = = = = = O O . .                                         ",
"                                            O O e p = = = O O O . O = = : : = = = O O O                                         ",
"                                            = = e e = = = O O O O O = O = = = = O = O .                                         ",
"                                              = ; = O O O O O # O O   # = O O O = O O                                           ",
"                                                O O = = O O O . . O   # * 4 q q 4 * +                                           ",
"                                                . O 3 & & & o O O .   + < 2 w w 4 , +                                           ",
"                                                X @ > % > > @ + . .   + % , > > , % +                                           ",
"                                                  % , > % % + X X .   X + % % % + + +                                           ",
"                                                    > % % + + X . .   + > O O O O O %                                           ",
"                                                    % % @ + X X X .   + % > % > > , +                                           ",
"                                                      + + @ + + o +   + % % % % @ @ X                                           ",
"                                                        + % + + + @   o > % $ + @ % o                                           ",
"                                                        + + @ @ + +   o % % % $ @ % +                                           ",
"                                                          + % @ + + X   + % % % % @ X                                           ",
"                                                          + % % + + .   + $ > > % @ X                                           ",
"                                                        > % > @ + + X     % , 1 < %                                             ",
"                                                        % > % @ + + X   > 7 2 1 1 < >                                           ",
"                                                        @ % @ @ o X     , 1 q w 7 1 <                                           ",
"                                                        + % @ @ o .     , < w w w 1 1                                           ",
"                                                        X + o X X       < 2 7 7 2 1 1                                           ",
"                                                          . . .         1 7 2 < < 1 1                                           ",
"                                                                        , , , % > , ,                                           ",
"                                                                        + X X o X X +                                           "
};
