/* XPM */
static char *enemy_standing1665788731[] = {
/* columns rows colors chars-per-pixel */
"64 64 213 2 ",
"   c None",
".  c #060606",
"X  c #0C0C0C",
"o  c #131313",
"O  c #1B1B1B",
"+  c #250C0C",
"@  c #3C0303",
"#  c #360303",
"$  c #2B1509",
"%  c #231E1C",
"&  c #331313",
"*  c #3D1A1B",
"=  c #3D1617",
"-  c #242424",
";  c #2C2C2C",
":  c #2A2324",
">  c #332A2A",
",  c #3B2D2D",
"<  c #342724",
"1  c #3E2F30",
"2  c #333333",
"3  c #3B3B3B",
"4  c #3D3232",
"5  c #440606",
"6  c #440B0B",
"7  c #4B0909",
"8  c #5C0606",
"9  c #540D0E",
"0  c #5B0B0B",
"q  c #540506",
"w  c #5D100F",
"e  c #560F10",
"r  c #451414",
"t  c #4C1414",
"y  c #411B1C",
"u  c #4D191A",
"i  c #541212",
"p  c #5C1313",
"a  c #5E1919",
"s  c #531818",
"d  c #441A06",
"f  c #630E0E",
"g  c #6D0A0B",
"h  c #740606",
"j  c #7A090A",
"k  c #6C0F10",
"l  c #631314",
"z  c #6A1414",
"x  c #6C1718",
"c  c #641A1A",
"v  c #6C1C1C",
"b  c #711616",
"n  c #741C1D",
"m  c #7B1D1E",
"M  c #721718",
"N  c #442819",
"B  c #552711",
"V  c #752C1E",
"C  c #451F20",
"Z  c #5F1E20",
"A  c #6C1F21",
"S  c #492727",
"D  c #592527",
"F  c #4B2F30",
"G  c #493938",
"H  c #56393A",
"J  c #5A3823",
"K  c #632222",
"L  c #6C2222",
"P  c #692B2C",
"I  c #742223",
"U  c #7C2324",
"Y  c #742929",
"T  c #7D2A2B",
"R  c #7C2A25",
"E  c #7A3021",
"W  c #622E30",
"Q  c #6A3435",
"!  c #7A3A3D",
"~  c #6F332B",
"^  c #764D2D",
"/  c #444444",
"(  c #4B4545",
")  c #4B4B4B",
"_  c #57494A",
"`  c #535353",
"'  c #5A5454",
"]  c #5C5C5C",
"[  c #584F51",
"{  c #77494A",
"}  c #665455",
"|  c #7A5555",
" . c #636363",
".. c #6C6C6C",
"X. c #6A6062",
"o. c #786868",
"O. c #737373",
"+. c #7B7B7B",
"@. c #8D0C0D",
"#. c #830809",
"$. c #89191A",
"%. c #971618",
"&. c #910C0D",
"*. c #A7181B",
"=. c #832424",
"-. c #8A2224",
";. c #832C2C",
":. c #8B2C2D",
">. c #882729",
",. c #922D2E",
"<. c #942728",
"1. c #8C2F30",
"2. c #872E30",
"3. c #912F30",
"4. c #833334",
"5. c #8C3334",
"6. c #893C3D",
"7. c #933334",
"8. c #9A3435",
"9. c #953B3C",
"0. c #9A3C3D",
"q. c #973738",
"w. c #AC2A2C",
"e. c #A12629",
"r. c #B82B2D",
"t. c #AB2F31",
"y. c #A93C3D",
"u. c #A63738",
"i. c #B7393C",
"p. c #C4353A",
"a. c #F93037",
"s. c #934A34",
"d. c #8B5835",
"f. c #9C563F",
"g. c #A1693E",
"h. c #AC3F40",
"j. c #A53F40",
"k. c #BB3C40",
"l. c #874A4C",
"z. c #914243",
"x. c #9D4243",
"c. c #98494A",
"v. c #A34243",
"b. c #A94344",
"n. c #AB4C4E",
"m. c #A94848",
"M. c #B34A4B",
"N. c #B34749",
"B. c #A0514B",
"V. c #AC4E51",
"C. c #B74F50",
"Z. c #AE5152",
"A. c #AF595B",
"S. c #B55254",
"D. c #B4595A",
"F. c #BA5A5C",
"G. c #BA5A56",
"H. c #A76E40",
"J. c #865F60",
"K. c #A25E61",
"L. c #8A6667",
"P. c #926869",
"I. c #877C7C",
"U. c #A3696C",
"Y. c #BC6263",
"T. c #A16E70",
"R. c #DE4248",
"E. c #C15354",
"W. c #C2585A",
"Q. c #CD4C4F",
"!. c #FE4B52",
"~. c #FE555B",
"^. c #FE595F",
"/. c #F4575C",
"(. c #EC5257",
"). c #C15F61",
"_. c #DD5D60",
"`. c #FE5C62",
"'. c #C36365",
"]. c #CD6365",
"[. c #C8686A",
"{. c #CC7072",
"}. c #D5787A",
"|. c #D66669",
" X c #E17E7F",
".X c #E17E80",
"XX c #848484",
"oX c #8C8C8C",
"OX c #9C8E8F",
"+X c #939292",
"@X c #9C9C9C",
"#X c #A19797",
"$X c #AA8D8E",
"%X c #A2A2A2",
"&X c #ADADAD",
"*X c #B6A7A7",
"=X c #BBA7A8",
"-X c #B3B3B3",
";X c #BDBDBD",
":X c #E7888A",
">X c #EF9B9D",
",X c #C1B4B4",
"<X c #F4A7A9",
"1X c #F9B5B7",
"2X c #C4C4C4",
"3X c #CBCBCB",
"4X c #D4C1C1",
"5X c #D5D5D5",
"6X c #DEDEDE",
"7X c #EDEDED",
"8X c #E4E4E4",
"9X c #F6F6F6",
"0X c gray98",
/* pixels */
"                                                                                                                                ",
"                                                                                                                                ",
"                                                                                                                                ",
"                                                                                                                                ",
"                                                                                                                                ",
"                                                                                                                                ",
"                                                                                                                                ",
"                                                                                                                                ",
"                                                                                                                                ",
"                                                                                                                                ",
"                                                                                                                                ",
"                                                                                                                                ",
"                                                                                                                                ",
"                                                                                                                                ",
"                                                                                                                                ",
"                                                                                                                                ",
"                                                                                                                                ",
"                                                                                                                                ",
"                                                                                                                                ",
"                                                                                                                                ",
"                                                                                                                                ",
"                                                                                                                                ",
"                                                                                                                                ",
"                                                              d.                                                                ",
"                                                  ^         S.{.}.C.      g.                                                    ",
"                                                    H.    W.:X1X<X XM.  d.d.                                                    ",
"                                                    J B.8.M.:X1X1X XG.0.~                                                       ",
"                                                    4 v -.8.].>X<XE.j.n K '                                                     ",
"                                                      U y.N.y.].W.b.M.7.                                                        ",
"                                                    :.=.r._.E.h.y.|.Q.t.U                                                       ",
"                                                    4.>.*.i.r.m U r.p.*.M v.                                                    ",
"                                              [.S.n 0 x w.e.j $.m %.*.i.0 l :.'.Y.                                              ",
"                                          q.).}.M.,.8.f m <.i.b.b.t.-.x z 8.7.'.}.S.;.                                          ",
"                                      >.x.9.;.T c I =.0 n w E s.s.V w 0 z 1.x v T ;.x.q.U                                       ",
"                                Y ;.q.'.0.l @ # 7 ;.m.5.v.R E f.f.E ;.U x.m.n   # 7 n V.F.1.;.I                                 ",
"                            s a T q.x p 0         I ].j.7.E.m.G.G.M.M.q.[.G.p         0 l I q.L a                               ",
"                          0.I p c 0             6.i ;.N.:.k >.b.y.m n C.M.c a z.          9 p c p ;.                            ",
"                      5.F.x.U               c.D.A.a 0 x 1.M f z f b ,.<.l 7 4.D.D.6.              ;.Z.n.                        ",
"                    I ;.z   i             z.'.}.V.w q @.%.$.m l m >.-.%.k 5 L [.}.D.4.            p m M ;.                      ",
"                    v l M                 9.0.L 0 5 8 h #.&.#.8 g @.@.#.8 5 7 p T x.;.                K c v                     ",
"                  G ~ Q s             v v.v.i @     e k h g 0 6 5 h #.h l 7     @ v S.5.              | L.w +.                  ",
"                +.I.I.( :           Y 5.D.5.      + I p f 0 6 > + 8 f z 2.p       c v.n.T L           : XX*X;X;X                ",
"            oX%X;X%X..G %         c 4.4.c         * 2.n 3.:.s ( 6 ;.5.4.0.Y ,         v 9.Y i       o $ 2 +.5X6X2X              ",
"          ` oX2X@XX...% B ] @X  i L q.v         / Z ;.>.0.0.K ' t 9.[.b.q.4.F           T 5.a   ) ) X $ ; 2 ] 2X&X+X            ",
"          ` O...]  ...N N / +.o.$.z p           G r I 2.Y.D.P X.* Y.Y.L.P.l.* ,           p c Y / 2 o d < ; 2 ) +XoX+X          ",
"        `  .O.]  .] ] ) 2 ..XX9.w.M             , 9 x 7.m.0.C [ * 5.4.oX5X3XF               $.N.{ ` ] o ; ; ; 2 +.+X@XoX        ",
"        ]  ...] ] ` ` ) / -XL.Q.%.q.            > e =.,.j.F.= _ S F.x.+X6X-X,             L.$.t.Z.I.3 o 2 2 2 / ] +.+XoX        ",
"      / ] ] ] ` ) 3 3 ] : 3 z.-.a i             < } OX,X4X4X} H _ *X*X&X-X` y             o.K M T D O ; ) 3 3 +.XXO.XXoX+.      ",
"      ) ) / ) ) o O 3 ..+.o.5.>.t G @X          > ) @X%X$XK.Z t W U.OX#X+X` *             [ + z L L - ; - o o 2 %X@X..+.+.      ",
"    3 ` ] &X..O o o - / ] G l t * ; O.          : ) @X@XU.A i.R.:.! T.+X+X/ &            .2 2 & r p 2 ) ] ; O O oX3X&X] O.      ",
"    / ] oX9X/ o O X o O 2 4 t & O ; ) +. .        ) XXP.W R.^.!.`.-.l...+. .-       +.` ` 3 ; 4 y u 3 X X . - 2 ; +.9XoX....    ",
"  2 ) O.9X&XO O O . . . o o X o o     / +.oX` ) ) ) O.l.c ~.a.a.!.k.P o... .] / / '  .) 2   X o O O - X . . o 3   3 5X7X` ]     ",
"  - / @X7X..O - o X . .               o / ) / O.] 3  .{ D /./.~.~.e.P }  .] O.O.3 2 ) ;               . . X X ; 3   -X0XoX) /   ",
"  : / 2X2X2 ; : o . .                   o O 2 / 2 ; ) H Q u.(./.k.W W ` ../ ` ] ) o O                     . X O 2   +X8X5X/ /   ",
"  o ; ..`   2 O X .                       o 3 3 3 3 ..+X=XT.Y l ! 6.}  .] ` ) `  .O                       . o o 3     O.O.o O   ",
"  . o ; 2   o X X .                       2 ) / 3 3 3 ) / H D r D F / / / ] ; - ; %                         X X - 2   % - - X   ",
"  O @XoX;   X o o                           ; : ; ; 2 2 ; 2 ; o ; ; ; ; : 3 - o O                           . o o     3 +. .-   ",
"X / 6X8X    X X .                                                                                           . o X     / XX..- o ",
"X ] 9X9X  o o o o                                                                                           . X o o     +. .: o ",
".  .0X7X  X o o o                                                                                           X X O o     ] ] ; o ",
"X O.9X6X  X o o                                                                                               . O o     / ) - O ",
". +.7X-X  X o o                                                                                               X o o     ; 2 O o ",
". O.2X    o o o                                                                                               . o o       ; O o ",
". / ..    . .                                                                                                 . X X       o X   "
};
