/* XPM */
static char *enemy_dying_21665788730[] = {
/* columns rows colors chars-per-pixel */
"64 64 192 2 ",
"   c None",
".  c #050505",
"X  c #0C0C0C",
"o  c #160000",
"O  c #1E0000",
"+  c #1F0B0B",
"@  c #131313",
"#  c #1B1010",
"$  c #1D1718",
"%  c #1C1C1C",
"&  c #240101",
"*  c #2C0101",
"=  c #230D0D",
"-  c #340101",
";  c #3C0101",
":  c #300708",
">  c #320C0C",
",  c #3C090A",
"<  c #2B1010",
"1  c #221C1C",
"2  c #2F1E1F",
"3  c #311717",
"4  c #3D1313",
"5  c #361B1B",
"6  c #232323",
"7  c #2A2624",
"8  c #2D2A27",
"9  c #2C2C2C",
"0  c #322323",
"q  c #392727",
"w  c #392828",
"e  c #342C25",
"r  c #3E342A",
"t  c #323232",
"y  c #3B3B3B",
"u  c #440001",
"i  c #4C0000",
"p  c #440A0A",
"a  c #4B0B0B",
"s  c #530000",
"d  c #5B0101",
"f  c #530D0D",
"g  c #5B0C0C",
"h  c #500F10",
"j  c #441415",
"k  c #4D1313",
"l  c #441718",
"z  c #4A1818",
"x  c #551213",
"c  c #5C1313",
"v  c #541A1B",
"b  c #5C1B1B",
"n  c #630000",
"m  c #6B0101",
"M  c #630B0B",
"N  c #6C0B0C",
"B  c #730000",
"V  c #7A0000",
"C  c #750D0D",
"Z  c #7C0F0F",
"A  c #631414",
"S  c #6C1414",
"D  c #631718",
"F  c #691718",
"G  c #641A1B",
"H  c #6C1C1D",
"J  c #721314",
"K  c #73191A",
"L  c #7C1B1C",
"P  c #7E1313",
"I  c #5C1F20",
"U  c #711F20",
"Y  c #442020",
"T  c #452A2A",
"R  c #572627",
"E  c #5E2122",
"W  c #5C2B2C",
"Q  c #433B3A",
"!  c #4A3E3F",
"~  c #553737",
"^  c #652323",
"/  c #6B2222",
"(  c #672828",
")  c #6E2C2C",
"_  c #6C2E20",
"`  c #732324",
"'  c #7B2424",
"]  c #722829",
"[  c #7C2929",
"{  c #713738",
"}  c #773E3D",
"|  c #5C452E",
" . c #4C423A",
".. c #5F4832",
"X. c #5C4732",
"o. c #6B4F2F",
"O. c #634D35",
"+. c #685035",
"@. c #434343",
"#. c #4C4B4B",
"$. c #544444",
"%. c #544B49",
"&. c #54504D",
"*. c #535353",
"=. c #5B5655",
"-. c #5C5C5C",
";. c #654748",
":. c #644C4C",
">. c #6F4B4B",
",. c #714444",
"<. c #605658",
"1. c #605F5F",
"2. c #795E5E",
"3. c #646363",
"4. c #6B6B6B",
"5. c #7D6666",
"6. c #7C6F6F",
"7. c #726C6C",
"8. c #757474",
"9. c #7B7B7B",
"0. c #830101",
"q. c #8D0101",
"w. c #810D0D",
"e. c #8A0909",
"r. c #930404",
"t. c #9D0404",
"y. c #960909",
"u. c #9C0B0B",
"i. c #8D1617",
"p. c #871A1A",
"a. c #911313",
"s. c #971C1C",
"d. c #9D1A1B",
"f. c #A20202",
"g. c #AB0202",
"h. c #A20808",
"j. c #B60707",
"k. c #BA0404",
"l. c #832223",
"z. c #8C2020",
"x. c #812A2B",
"c. c #892A2B",
"v. c #853334",
"b. c #8B3335",
"n. c #8C3C3D",
"m. c #853A3A",
"M. c #943334",
"N. c #9C3637",
"B. c #903738",
"V. c #933C3D",
"C. c #983A3B",
"Z. c #A33A3C",
"A. c #8E4041",
"S. c #964747",
"D. c #964648",
"F. c #9D4749",
"G. c #9B4849",
"H. c #81504F",
"J. c #815758",
"K. c #915655",
"L. c #A64344",
"P. c #B04647",
"I. c #A74F50",
"U. c #A75354",
"Y. c #B75051",
"T. c #956666",
"R. c #817F7F",
"E. c #9E7474",
"W. c #BA6567",
"Q. c #C96062",
"!. c #838383",
"~. c #8C8C8C",
"^. c #938788",
"/. c #939393",
"(. c #9B9A9A",
"). c #AA9E9E",
"_. c #B09393",
"`. c #A4A4A4",
"'. c #ACACAC",
"]. c #B5B5B5",
"[. c #BCBBBB",
"{. c #B9B4B3",
"}. c #C88585",
"|. c #CEA2A2",
" X c #C4C4C4",
".X c #C8C8C7",
"XX c #CBCBCB",
"oX c #D3D3D3",
"OX c gray86",
"+X c #E7E7E7",
"@X c #F6F6F6",
"#X c white",
/* pixels */
"                                                                                                                                ",
"                                                                                                                                ",
"                                                                                                                                ",
"                                                                                                                                ",
"                                                                                                                                ",
"                                                                                                                                ",
"                                                                                                                                ",
"                                                                                                                                ",
"                                                                                                                                ",
"                                                                                                                                ",
"                                                                                                                                ",
"                                                                                                                                ",
"                                                                                                                                ",
"                                                                                                                                ",
"                                                                                                                                ",
"                                                                                                                                ",
"                                                                                                                                ",
"                                                                                                                                ",
"                                                                                                                                ",
"                                                                                                                                ",
"                                                                                                                                ",
"                                                                                                                                ",
"                                                                                                                                ",
"                                                                                                                                ",
"                                                                                                                                ",
"                                                                                                                                ",
"                                                  g.                                                                            ",
"                                                f.m           K                                                                 ",
"                                              V B s             G N.                                                            ",
"                                            B d m u           d B C F ;                               > j b                     ",
"                                              d n u V   u     ; s s m c                               & z b                     ",
"                                                0.n V B u s d i i i j.A                               * & z 4                   ",
"                                                  u u m B V d V m r.t.a u                           f - * v                     ",
"                                                  & ; * d q.t.r.V f.m i ; - O                     G p &                         ",
"                                                : & - ; s B 0.r.h.n u u : u ; -               b / p -                           ",
"                                              [ f * s u u i u s u m n u u u F F           ` [ H p - &                           ",
"                                            f F & - u i ; i u u s & i ; V g M l.K h / b.C.x.U G :                               ",
"                                            H l.[ a - & * u - B m ; ; u B p.s.Z b.A.W.I.b.k ; -                                 ",
"                                          F C.' J d ; & - & u i d u i n B z.f n C.U.A.v.k &                                     ",
"                                          g A c.g m i u - - i ; O n q.s i J s t.d.x.[ b *                                       ",
"                                          g S l.C i ; i - - * ; O V n i s ; s r.J N.x :                                         ",
"                                          A L i.V n * & - ; * * u i ; d i ; d g.a.' H / ] D.                                    ",
"                                          c L M - & O O & * u s u * - d s u * i C K K c f v.n.                                  ",
"                            3.~.~.      [ ` N B V m s & & * * u d ; s u u u * * s w.L g : ; [                                   ",
"                          9./.`.'.].{ ' H u g s d n u & u - - u ; d B i o ; - ; - n y.f p p a H                                 ",
"                      /.'. X'.[.XX X>.D a ; , * * & o & - O d   d i * B & & * i u & V u g h D x                                 ",
"                    3.~.[.oXoX X/.%.I a   , : u i & O - O O n   ; i u s i u - s u ; s p K a f F                                 ",
"                  4.8.8./. X).3.#.) W 6.    : u B u O - -         u u s n m i s i s B D K ( E ` G &.                            ",
"                8.R.9.9.9.-.#.#.R b ! 9.    c x e.q.i u ;       s i i i ; u n ; d i n J l.x.G.b.G /.~.                          ",
"                8.9.8.8.3.#.#.~ p 5 <.  3.v b F P k.n - & &   d * & ; & u i i - u d y.U Z.F.A.] J..X.X(.                        ",
"              4.8.4.4.1.*.#.@.q Y #.8.~.5.) ^ c g a.M i - &   B   u * O - u u ; s f.i.P.Y.F.[ ^ 7.'.oXoX/.                      ",
"            3.3.1.@.#.#.@.t 9 4 2 #.*.9.W G , a ' P.M.- d ; *     d u - - O ; u i d Z.Q.U.V.^ ! 3.8.(. XXX'.                    ",
"          3.3.-.=.=.@.t @ @ t T Q #.*.:.b p &   F p.u.* - d -   s d m s i ; & d ; d / L.V.` q t y *.3.9.`.[.'.                  ",
"        9 #.*.*.*.#.% @   % t y @.=.$.b p Y !.  s.i N M x 4   n m i - ; s u & n n m M.[ ' j 9 t t t y @.&.9.'.'.                ",
"        y y @.#.@.%             = < j , j =.(.$.[ c /.`.;.v.H.!.W s i ; u n s m g F.M.[ j 1 9 6 % 9 t 9 t t *.R.!.4.            ",
"      8 y y #.*.9 @             k z * > *.9.1.y y %.m.|.Z n :.!.(.[.E.,.} K.w.V.1.J.B.` 3 6 6 6 X X @ % 9 t t t -.9.4.          ",
"      . X t @.t X .             k k , + t ~.!.y #.4.2.S.L ; <.#./.oXoX.X X_.V.{.T.B.v.;.6 6 8 6         X 6 t 9 y *.t           ",
"      @ X @ % X X                 , j   @ t #.-.7.8.9.8.5.0 7 Q -.!.'. X.X].(.^.) [ E % 6 6               . % 6 6 @ % t         ",
"    @ % @ @ @ X X                       . X -.`.3.3.@X}.%._ o.o. .~.4.4.4.y 1 j k x w                     . . @ @ X 6 9 9       ",
"    @ @ @ @ X X X                         % 9 @.@.!.#X+Xr X.&.%.O.t 3.=.*.$ $ < # 0 6                       . @ X X X @ 6 6     ",
"  @ @ @ @ @ @ X                           t t t t @.(.].e +.=.@...8 `.1.y @ @ X @ t t                       . . @ @ X X % 6     ",
"  @ @ @ @   . X                           t t t y 8.OX].y O.+.X.r t 8.8.6 @ @ X @ 6 t                       . . @ @ X @ X 6 6   ",
"X @ @ @                                       t 9 6 y @.!.@.8 6 t 9 #.#.@ @ @ X % %                           . @ @   . X X % 6 ",
"X @ @ @                                           @ @ @ % t 9 #.*.*.#.y X @ @ . . .                           . @ @     . X @ @ "
};
