/* XPM */
static char *enemy_dying_41665693182[] = {
/* columns rows colors chars-per-pixel */
"64 64 112 2 ",
"   c None",
".  c #040404",
"X  c #090603",
"o  c #0D0904",
"O  c #0C0C0C",
"+  c #120D05",
"@  c #130F0A",
"#  c #1B0D0D",
"$  c #10100F",
"%  c #1B140C",
"&  c #0E1010",
"*  c #141414",
"=  c #1C1914",
"-  c #1B1B1B",
";  c #270D0D",
":  c #2C0D0D",
">  c #370F0A",
",  c #231414",
"<  c #241C14",
"1  c #291E15",
"2  c #211D1B",
"3  c #2B1E1E",
"4  c #351414",
"5  c #341A1A",
"6  c #2B2117",
"7  c #272419",
"8  c #2C231A",
"9  c #2D2A1C",
"0  c #31251B",
"q  c #352A1D",
"w  c #182C2E",
"e  c #232323",
"r  c #2B2523",
"t  c #212D2E",
"y  c #2C2B2B",
"u  c #382721",
"i  c #372F22",
"p  c #342C2C",
"a  c #3A2D2D",
"s  c #373021",
"d  c #32302F",
"f  c #242E30",
"g  c #223335",
"h  c #223B3E",
"j  c #2D3B3D",
"k  c #343434",
"l  c #3C3837",
"z  c #3C3C3C",
"x  c #430101",
"c  c #4A0000",
"v  c #410E0E",
"b  c #570101",
"n  c #5C0000",
"m  c #40120C",
"M  c #43362B",
"N  c #493D2C",
"B  c #463B30",
"V  c #4F4231",
"C  c #514133",
"Z  c #594737",
"A  c #594739",
"S  c #614F3C",
"D  c #233E42",
"F  c #0D454C",
"G  c #19484E",
"H  c #115058",
"J  c #1C5158",
"K  c #244145",
"L  c #24454A",
"P  c #2B4548",
"I  c #265055",
"U  c #315054",
"Y  c #135D67",
"T  c #1F5C64",
"R  c #335C61",
"E  c #0D6D7A",
"W  c #396368",
"Q  c #206670",
"!  c #434343",
"~  c #4B4B4B",
"^  c #545454",
"/  c #5B5B5B",
"(  c #6E5944",
")  c #6E5D52",
"_  c #77604B",
"`  c #7F654F",
"'  c #7F6752",
"]  c #636363",
"[  c DimGray",
"{  c #747474",
"}  c gray47",
"|  c #850101",
" . c #940101",
".. c #9E0000",
"X. c #A40101",
"o. c #806752",
"O. c #836953",
"+. c #8E725C",
"@. c #0A7786",
"#. c #0A7A89",
"$. c #157581",
"%. c #0B8595",
"&. c #0D8D9E",
"*. c #108E9E",
"=. c #0D92A3",
"-. c #1095A6",
";. c #1097A9",
":. c #129CAE",
">. c #16A3B5",
",. c #16A7BA",
"<. c #1AB1C5",
"1. c #20BFD4",
/* pixels */
"                                                                                                                                ",
"                                                                                                                                ",
"                                                                                                                                ",
"                                                                                                                                ",
"                                                                                                                                ",
"                                                                                                                                ",
"                                                                                                                                ",
"                                                                                                                                ",
"                                                                                                                                ",
"                                                                                                                                ",
"                                                                                                                                ",
"                                                                                                                                ",
"                                                                                                                                ",
"                                                                                                                                ",
"                                                                                                                                ",
"                                                                                                                                ",
"                                                                                                                                ",
"                                                                                                                                ",
"                                                                                                                                ",
"                                                                                                                                ",
"                                                                                                                                ",
"                                                                                                                                ",
"                                                                                                                                ",
"                                                                                                                                ",
"                                                                                                                                ",
"                                                                                                                                ",
"                                                                                                                                ",
"                                                                                                                                ",
"                                                                                                                                ",
"                                                                                                                                ",
"                                                                                                                                ",
"                                                                                                                                ",
"                                                                                                                                ",
"                                                                                                                                ",
"                                                                                                                                ",
"                                                                                                                                ",
"                                                                                                                                ",
"                                                                                                                                ",
"                                                                                                                                ",
"                                                                                                                                ",
"                                                                                                                                ",
"                                                                                                                                ",
"                                                                                                                                ",
"                                                                                                                                ",
"                                                                                                                                ",
"                                                                                                                                ",
"                                                                                                                                ",
"                                                                                                                                ",
"                                                                                                                                ",
"                              / ~ ! ! ! ! z y y - - - - - * *           e e - - * *                                             ",
"                e y z ! B ! ! ! ! z ! D z ! ! ^ ~ ~ e * - - - - * * y d d k d y - - *                   0 q q q                 ",
"            p z z ~ ^ ~ ! z k y y 3 a l z ! ~ ~ ^ / ~ z d y y e - e e y y y d - - - * - -             < 6 6 0 8 q q             ",
"          y a ! ^ ] ] ! z k f J G F g y y y k B ~ / ] ] ^ ! l z k y y - * * - - - - - - - -         2 , < = % = 3 q 0           ",
"        e d ! ~ ^ ^ ~ k y y h &.@.%.H f e - r ~ ~ ^ ] [ { [ / / ^ ! a w O O * - e - - * * - - - - 2 e e - * O O * 1 6 6         ",
"      e y l ~ ! ^ ~ d y y y h &.#.@.$.L y e y D ! ~ ) { } } } } [ [ ^ z 2 * O & - e - O . * * - - - - 2 e - * O $ % 1 6 1       ",
"      e y k ! P ~ ~ l y y y D >.=.=.I y y d y k k P ! / [ [ [ ] [ / / ~ k - * O * * * & O & e r k d y w - * - * * % < 1 6 1     ",
"      - w y j d l j ~ ^ ! D U 1.<.>.W ! ! ^ ^ d l l B ~ ^ / / / ^ ! ~ ! y w r y y y k z l e - e e e y y - - * & $ % % < 6 <     ",
"      - = e r 7 r y ~ ~ ! k P <.<.,.R l ! ~ ~ e p B D ~ ^ / / / ^ k z z y y ! ^ ^ ! z z D z y r O * * = * * * @ O % % , < %     ",
"        * * - - - - d k k r D >.:.;.$.K y k d 2 y l D ~ ! z z ! z y k k e e z ~ ^ ^ ~ z B ! ! ~ k B A r . O O O @ % + % % %     ",
"          = O O * * e y y a P -.%.=.Y g y y e * e d k l k y y y y e r e - - p l z ! ! z z z ! ^ ) ' ( C B M . X o o X + %       ",
"          7 = - - < r y y d D Q T Y w e y y e & - e f y y y - e e e - - * e y k k z l k y y k l S ' _ O.+.Z . . . X + +         ",
"            q s q s s u 5 3 d a k 2 2 e e e - & & * e e e - * - * * - * * e d l l k t e - - e e 7 V _ +.o.i . . . X +           ",
"              9 9 9 9 m c v a 3 , , p 3 # # # , ; : 4 5 5 % O . O O O * - e e e e - - * - - - - * 9 N S                         ",
"              7 7 7 8 > x x x x x x x x x > x n | ..X. .| b . . O O & & * & - - - - * * & * * *                                 "
};
