/* XPM */
static char *enemy_dying_81665788731[] = {
/* columns rows colors chars-per-pixel */
"64 64 168 2 ",
"   c None",
".  c #0E0303",
"X  c #0D0D0D",
"o  c #160202",
"O  c #1C0202",
"+  c #140B0B",
"@  c #1B0B0B",
"#  c #131212",
"$  c #1C1212",
"%  c #1B1B1B",
"&  c #250101",
"*  c #2B0101",
"=  c #240B0B",
"-  c #290C0C",
";  c #340202",
":  c #3B0202",
">  c #3C0708",
",  c #330E0E",
"<  c #3C0B0B",
"1  c #241414",
"2  c #2D1212",
"3  c #241D1D",
"4  c #2B1D1D",
"5  c #311313",
"6  c #3C1516",
"7  c #341D1D",
"8  c #3A1C1C",
"9  c #242424",
"0  c #292424",
"q  c #2C2A2A",
"w  c #342323",
"e  c #3C2424",
"r  c #342A2A",
"t  c #3C2D2E",
"y  c #333333",
"u  c #3B3737",
"i  c #3A3A3A",
"p  c #430303",
"a  c #4C0202",
"s  c #430C0C",
"d  c #4B0B0B",
"f  c #530202",
"g  c #5B0202",
"h  c #530C0C",
"j  c #5D0B0B",
"k  c #5F0F10",
"l  c #451515",
"z  c #481515",
"x  c #491818",
"c  c #531313",
"v  c #5C1313",
"b  c #640303",
"n  c #6B0303",
"m  c #630C0C",
"M  c #6A0A0A",
"N  c #740202",
"B  c #7C0404",
"V  c #7E0808",
"C  c #650F10",
"Z  c #641414",
"A  c #6B1414",
"S  c #641A1A",
"D  c #691818",
"F  c #741313",
"G  c #731C1C",
"H  c #7E1C1D",
"J  c #442222",
"K  c #4A2524",
"L  c #432C2C",
"P  c #492F2F",
"I  c #5A2323",
"U  c #502E2E",
"Y  c #413333",
"T  c #4C3131",
"R  c #453B3B",
"E  c #4C3C3C",
"W  c #583434",
"Q  c #543C3C",
"!  c #583F3F",
"~  c #632525",
"^  c #6E2121",
"/  c #752223",
"(  c #7C2323",
")  c #7D2829",
"_  c #633030",
"`  c #603C3C",
"'  c #6A3939",
"]  c #444444",
"[  c #484343",
"{  c #4C4A4A",
"}  c #534141",
"|  c #594242",
" . c #5C4749",
".. c #514B4B",
"X. c #525252",
"o. c #5E5657",
"O. c #5B5B5B",
"+. c #634343",
"@. c #654C4C",
"#. c #7E4545",
"$. c #665353",
"%. c #6C5555",
"&. c #615C5C",
"*. c #715252",
"=. c #755C5C",
"-. c #656565",
";. c #6B6666",
":. c #6B6A6A",
">. c #726565",
",. c #736F6F",
"<. c #7B6A6A",
"1. c #747474",
"2. c #7B7B7B",
"3. c #830202",
"4. c #8C0202",
"5. c #880808",
"6. c #920303",
"7. c #9C0303",
"8. c #9E0D0D",
"9. c #801414",
"0. c #891010",
"q. c #851C1C",
"w. c #A30606",
"e. c #A20A0A",
"r. c #B00606",
"t. c #B50909",
"y. c #B90B0B",
"u. c #BD1616",
"i. c #831F20",
"p. c #822323",
"a. c #842C2C",
"s. c #8C2B2C",
"d. c #873333",
"f. c #8A3233",
"g. c #923434",
"h. c #923739",
"j. c #963A3B",
"k. c #9C393A",
"l. c #C00808",
"z. c #D81717",
"x. c #924343",
"c. c #984142",
"v. c #984848",
"b. c #A24344",
"n. c #AA5252",
"m. c #846C6C",
"M. c #877B7B",
"N. c #8C7B7B",
"B. c #927C7C",
"V. c #BA7070",
"C. c #C05C5E",
"Z. c #888888",
"A. c #958282",
"S. c #9A8484",
"D. c #919191",
"F. c #9C9191",
"G. c #9A9A9A",
"H. c #A08C8C",
"J. c #A69393",
"K. c #A39C9C",
"L. c #AD9D9D",
"P. c #ADA0A0",
"I. c gray68",
"U. c #B2A2A2",
"Y. c #B6A9A9",
"T. c #BEB0B0",
"R. c #C6C5C5",
"E. c #D0C9C9",
/* pixels */
"                                                                                                                                ",
"                                                                                                                                ",
"                                                                                                                                ",
"                                                                                                                                ",
"                                                                                                                                ",
"                                                                                                                                ",
"                                                                                                                                ",
"                                                                                                                                ",
"                                                                                                                                ",
"                                                                                                                                ",
"                                                                                                                                ",
"                                                                                                                                ",
"                                                                                                                                ",
"                                                                                                                                ",
"                                                                                                                                ",
"                                                                                                                                ",
"                                                                                                                                ",
"                                                                                                                                ",
"                                                                                                                                ",
"                                                                                                                                ",
"                                                                                                                                ",
"                                                                                                                                ",
"                                                                                                                                ",
"                                                                                                                                ",
"                                                                                                                                ",
"                                                                                                                                ",
"                                                                                                                                ",
"                                                                                                                                ",
"                                                                                                                                ",
"                                                                                                                                ",
"                                                                                                                                ",
"                                                                                                                                ",
"                                                                                                                                ",
"                                                                                                                                ",
"                                                                                                                                ",
"                                                                                                                                ",
"                                                                                                                                ",
"                                                                                                                                ",
"                                                                                                                                ",
"                                                                                                                                ",
"                                                                                                                                ",
"                                                                                                                                ",
"                                                                                                                                ",
"                                  6 U J                                                                                         ",
"                              e W ` *.S.                                                                                        ",
"                            <.P.S.m.J.S.%.                                                                                      ",
"                          ;.Z.R.E.Y.=.= O <.                                                                                    ",
"                        1.2.2.D.G.E o . 1 @.                                          c v l W >.Q 5                             ",
"                      1.2.2.2.-.{ ] r # @ e %.                                        * 6 +.J.T.L.S.A.@.                        ",
"                    :.1.1.1.:.X.{ { u q e %.T                                         2 8 @.<.! Q N.P.Y.>.                      ",
"                    :.-.O.O.{ { ] y q X.] | |   o                                   g . O u -.t - Y m.P.L.M.                    ",
"                  -.-.O.] { ] % % y y q { L L   * 3.              d               n h . X q y 9 4 O.&.| B.S.K.                  ",
"                X.O.X.O.X.q # X 9 ] ..O.O.0 e 4 _ l.          : a G d.p           ( - 7 + % y q q y i ..w ! F.I.                ",
"            f t i { { { 9 X         q q u 4 R :.P.( >   p * p n n F g.a ;       8.d 5 ..y 9 9 q q r y y 9 r o.G.D.              ",
"              u i ] X.y X a : ;     N a   + 3 &...@ @ w s } & a g 4.n : a d   v b o f 5 2 # % 1 o a , 1 z 6 y Z &.1.            ",
"              % y { i # o & a : * g 7.g o a = 1.e ; u &.Q J $.7 d s ` p s n A x.K O n b * . & & & p B f n b N z u ' ~ n         ",
"            X . X 9 X X p & ; o o a g y.* ; o 4 ; B & < P ;.2.;.| R $ * >.M.t 6 & * B 6.p & : n g * N N B n a 4 r 7 3.b         ",
"    6.t.  % % % X X X + ; p : * o f 6.l.* : a > g a * & & R.Y u o.[ + * n I Q * & : N z.N : g f s A 3.3.N a 4.# p n f a 4       ",
"  Z b 8.  # # # # X X s g f g a ; a N 4.F ( m f f f p ; ; ; J w 5 : p ; r.a * * * f w.7.4.& * Z c.C.j.q.N f 6.a g a & $ 9       ",
"x.v.d M N # # - 1 # @ v ( d f 5.S d p 7.b.V.g.A * a a * * ; a ; p * & m q.j M N f : f 7.4.: 3.) j.k.k.g.H m 9.b : + X X % 9     ",
"S v d s = # z a.d./ v S v j N j d.h j g A h A g g b N N n : f : : O f f h d v p j A q.p.m j M / j.b.b.f.D / n.; @ = O X + 9 9   ",
"; ; ; & # @ c z c ^ s < ; > a * v d s : f * : ; f g a p B & f ; f : g b : & * s v ^ ^ / p.s.a.h.k.a./ h h Z D > ; - * X X X % 9 ",
"j g f - @ + ; s p > : ; ; ; : p a * p a : * * & : > p : ; * ; * f : a a a d > * s v Z c d h p > d h a p d p d p p a f g - = < ; ",
"              M b                   M M b n j g f j g f p p               b V B M N V 5.V b         M V b         ; ; : a a : * "
};
