/* XPM */
static char *enemy_dying_01665693181[] = {
/* columns rows colors chars-per-pixel */
"64 64 155 2 ",
"   c None",
".  c #050403",
"X  c #0A0602",
"o  c #0E0904",
"O  c #0C0C0B",
"+  c #130C06",
"@  c #140E09",
"#  c #17100A",
"$  c #1A130B",
"%  c #131313",
"&  c #181615",
"*  c #1C1C1C",
"=  c #20170E",
"-  c #21190F",
";  c #241B12",
":  c #291E15",
">  c #221F1F",
",  c #3F1010",
"<  c #311F1F",
"1  c #381B1B",
"2  c #2C2117",
"3  c #2E2319",
"4  c #1F2020",
"5  c #162F32",
"6  c #1C2E30",
"7  c #232323",
"8  c #282727",
"9  c #252929",
"0  c #2B2B2B",
"q  c #302B27",
"w  c #302E2E",
"e  c #3A2E2E",
"r  c #36302A",
"t  c #2F2F30",
"y  c #2F3434",
"u  c #333333",
"i  c #393635",
"p  c #343838",
"a  c #3B3B3B",
"s  c #4F0A0A",
"d  c #510C0C",
"f  c #481717",
"g  c #561414",
"h  c #5A1C1C",
"j  c #640000",
"k  c #6D0101",
"l  c #6A0C0C",
"z  c #630C0C",
"x  c #7B0000",
"c  c #651717",
"v  c #701D1D",
"b  c #7E1A1A",
"n  c #4E2222",
"m  c #463A2F",
"M  c #453C39",
"N  c #543434",
"B  c #672727",
"V  c #782727",
"C  c #683333",
"Z  c #7A3232",
"A  c #703E3E",
"S  c #514438",
"D  c #65513E",
"F  c #373F40",
"G  c #13454C",
"H  c #1A4D53",
"J  c #2A4042",
"K  c #23454A",
"L  c #2C4C50",
"P  c #0E5862",
"I  c #125C66",
"U  c #0A6976",
"Y  c #0E6C78",
"T  c #186671",
"R  c #146A74",
"E  c #424343",
"W  c #4B4646",
"Q  c #4C4C4C",
"!  c #5D5247",
"~  c #5F554E",
"^  c #545454",
"/  c #575959",
"(  c #5B5B5B",
")  c #784848",
"_  c #6B5643",
"`  c #6E5844",
"'  c #6D5949",
"]  c #715B47",
"[  c #765E49",
"{  c #785F4B",
"}  c #645B58",
"|  c #77604B",
" . c #7B624D",
".. c #766050",
"X. c #7C6451",
"o. c #5D6262",
"O. c #656565",
"+. c #6A6A6A",
"@. c #716F6F",
"#. c #727373",
"$. c #7B7C7C",
"%. c #820000",
"&. c #8F0000",
"*. c #800A0A",
"=. c #8A0D0D",
"-. c #920000",
";. c #9D0202",
":. c #801414",
">. c #971A1A",
",. c #9B1D1D",
"<. c #A30000",
"1. c #AD0000",
"2. c #B40101",
"3. c #AF1B1B",
"4. c #B61A1A",
"5. c #822A2A",
"6. c #853838",
"7. c #E30000",
"8. c #904949",
"9. c #855757",
"0. c #985454",
"q. c #816651",
"w. c #856954",
"e. c #886D57",
"r. c #8A6E58",
"t. c #86705D",
"y. c #8D735C",
"u. c #92755E",
"i. c #937661",
"p. c #967862",
"a. c #9B7C66",
"s. c #837474",
"d. c #9F8069",
"f. c #A4846D",
"g. c #A88770",
"h. c #AC8A72",
"j. c #B28E77",
"k. c #B6927A",
"l. c #B8947C",
"z. c #0B7482",
"x. c #097D8C",
"c. c #187783",
"v. c #1C7C88",
"b. c #098090",
"n. c #0E8D9D",
"m. c #1E8693",
"M. c #1F8896",
"N. c #258794",
"B. c #0E92A3",
"V. c #119CAF",
"C. c #269AA9",
"Z. c #16AABD",
"A. c #16AEC1",
"S. c #18B4C8",
"D. c #1BBFD5",
/* pixels */
"                                                                                                                                ",
"                                                                                                                                ",
"                                                                                                                                ",
"                                                                                                                                ",
"                                                                                                                                ",
"                                                                                                                                ",
"                                                            9 0 Q / u 9 9                                                       ",
"                                                          0 0 w E Q i 0 0 u                                                     ",
"                                                          0 0 0 a E u 0 0 u E     7.                                            ",
"                                                        u 0 u 8 8 i 0 8 9 0 0                                                   ",
"                                                      0 0 J T v.m.C.N.c.R H 8                                                   ",
"                                                      > 0 L x.V.S.D.Z.n.x.I 8                                                   ",
"                                                      * > K x.B.Z.A.V.b.z.P &                                                   ",
"                                                      9 7 5 Y n.m.N.v.z.U G *                                                   ",
"                                                        0 * 6 R a W u H G 7 a                                                   ",
"                                                        9 0 0 0 p E u 0 0 0 u                                                   ",
"                                              E E E E E i w 0 t W Q p 9 * 0 +.#.O.                                              ",
"                                          E Q / ( J E B g 9 9 0 Q / p 7 * e O.( #.@.} ^ F 0                                     ",
"                                        E E u u a Q V 6.Z *.z d c b =.) o.O.@.o.( #.#.O./ Q a 8                                 ",
"                                      7 0 0 & & M 5.;.>.,.<.%.k x &.2.4.0.$.$.@.Q #.$.@.O.( E >                                 ",
"                                      & * * O O a V v =.;.%.%.k %.&.<.3.0.#.+.( t F E M a p w &                                 ",
"                                      t 0 9 * O 7 y u h l l %.k x x x Z } Q J 8 O . O O % % & % @                               ",
"                                    u a W M 4 O % & * 7 u N :.b k j s d , * % % . O & 4 0 0 7 7 *                               ",
"                                  t p Q 9.8.9 . % * 7 a / O.@.s.:.2.Z F 0 9 7 % . O & 9 p E a p 0                               ",
"                                0 0 u E ) 6.0 O 7 0 u w u ( $.E e < i Q Q p w 4 . O % 7 y W ^ Q a 0                             ",
"                              t u u 0 t N V 4 O 7 p W Q / O.@.o.o.( ( a 8 7 t > O . O 4 w J ^ Q a 0                             ",
"                            7 y u 0 0 0 n h * % u t 0 t t u t u t u i p a E 0 * % . . % > u E a u 0 9                           ",
"                            t E Q u 0 9 f g * 4 0 * % % % O O O % % % 4 u a a 8 * O . O * 8 i i a u 0                           ",
"                          ! a ^ ^ F 0 4 1 f & * O % % % % O % % % % O % % * p w 4 % O O * 0 u u u i u 0                         ",
"                      h.g.t.~ } W a 9 4     & . . & * * * * * 4 4 & % O . O & 7 * &       u 0 0 0 a u 9 7                       ",
"                      y.f.k.g.i.a u 2         O O * 4 7 7 7 7 4 4 * % O O O O O O %       9 0 0 a Q E u t                       ",
"                      f.g.j.h.a.] q       7 * 0 0 * 4 7 7 4 & % O O * * & & O O @ %       * 8 0 Q ^ a u t                       ",
"                  l.k.f.f.f.g.h.q.    9 7 * 8 t 9 * 4 7 7 7 7 4 * & % 4 4 & & % & %         * w a a u 0 9                       ",
"                  | f.k.f.f.h.a.[     7 * * 9 8 * % % % % % % % % % % * 4 4 * * 7 &         O 9 0 u 0 7 *                       ",
"                    X.u.f.h.a.a.      * 7 9 7 * % % & & * & & & & & & % % * * % 7 7 *         7 S ' _ w %                       ",
"                        u.r.e.g.      8 8 7 * * * * 4 4 4 4 7 4 4 4 * % * * * * * 7 *         m { u.f.X.X.j.                    ",
"                          D q.j.      9 8 4 7 4 9 & & * 4 4 * * * * * * 7 0 & * > * *         _ { q.u.u.u.a.                    ",
"                                    7 7 8 8 8 7 4 % % % % % % % O * 8 8 t t % % * * *          .] ` [ w.w.D                     ",
"                                  0 8 0 a a 4 9 4 & % O O % O % % 7 t p y 4 % O % %           q.w. .w.w.q.[                     ",
"                                  0 0 u a a F E 7 % O . . . . . % 0 t t 9 4 % O O .         r.` w.] w.| q.f.                    ",
"                                * 9 u a E E a 0 9 7 % % % O % % * p u 0 0 8 * O O .         '   i.D y. .D  .                    ",
"                                & w a E E a u 0 7 & % % % %   % % t t 7 * 7 7 % O .             ]   ] `                         ",
"                                t a a a M a 0 9 * & % O O     . % t t * 4 8 * & % O O                                           ",
"                              7 u a a u a a u * % % O .       & 7 0 t 0 7 7 * 9 & O O                                           ",
"                              7 t p a p t t 0 & O O .         * 7 0 t 0 4 & 8 p 4 O O                                           ",
"                              * u u u 9 4 * % % . . .         & * t 9 > 4 4 8 t 9 % O                                           ",
"                              & * * 4 & % % O . . .             i 9 * 7 8 7 7 4 t 4                                             ",
"                              + . O % % * * % . . .             7 & * 4 7 4 & & * O O                                           ",
"                              @ . . . . . . O O . . .           O . . . O . . @ & *                                             ",
"                              $ 3 . . . . . . @ . o @ o           # # # @ # $ # $ $ ;                                           ",
"                              @ : $ # # # # @ O . # # # +         # # $ # $ $ # # @ -                                           ",
"                              o $ = $ = & # o o @ # # # @ X       X + + # # # + o @ ;                                           ",
"                              o @ + + X + o X X + + # @ + X O       X + X o o + o # ;                                           ",
"                                o X X . . X X . . X + o X o %         . . . X $ # # - -                                         ",
"                                        . . X . X X X X o o @           X . + - ; # + $ ;                                       ",
"                                                # $ @ @ + o O             o X # - # @ $ -                                       ",
"                                              # = = = $ # @ O               @ @ # @ # # $                                       ",
"                                              # + + + # @ o                 $ - ; ; : ; $                                       ",
"                                              O X X . O O                 # $ : 2 : : $ $                                       ",
"                                                                          # = - : : $ $ $                                       ",
"                                                                          @ $ = $ $ $ @ @                                       ",
"                                                                          O @ @ @ @ # O                                         ",
"                                                                            . O O . O                                           ",
"                                                                                                                                "
};
