/* XPM */
static char *enemy_walking_21665693182[] = {
/* columns rows colors chars-per-pixel */
"64 64 124 2 ",
"   c None",
".  c #050505",
"X  c #0D0701",
"o  c #0D0904",
"O  c #070808",
"+  c #0C0C0C",
"@  c #140C03",
"#  c #110E0B",
"$  c #161006",
"%  c #1C1205",
"&  c #15120B",
"*  c #1C140B",
"=  c #1D180B",
"-  c #131313",
";  c #171816",
":  c #1B1915",
">  c #171819",
",  c #1C1C1C",
"<  c #211507",
"1  c #231708",
"2  c #261809",
"3  c #2C1C0C",
"4  c #301E0E",
"5  c #2B1F14",
"6  c #211E1B",
"7  c #1D2917",
"8  c #33200F",
"9  c #2A2513",
"0  c #2D2816",
"q  c #22211D",
"w  c #2B261E",
"e  c #2E281E",
"r  c #352210",
"t  c #3B2512",
"y  c #352618",
"u  c #3A2A1C",
"i  c #201F20",
"p  c #242424",
"a  c #292625",
"s  c #2C2925",
"d  c #272728",
"f  c #272929",
"g  c #2B2B2B",
"h  c #342E26",
"j  c #312E2D",
"k  c #303526",
"l  c #34332C",
"z  c #3C342A",
"x  c #363A2A",
"c  c #3A3C2D",
"v  c #262E30",
"b  c #283637",
"n  c #25373A",
"m  c #20383B",
"M  c #293C3F",
"N  c #343433",
"B  c #393635",
"V  c #373835",
"C  c #3C3A37",
"Z  c #313C3E",
"A  c #3B3B3B",
"S  c #432B15",
"D  c #482E17",
"F  c #492F18",
"G  c #4A3A20",
"H  c #443A2B",
"J  c #503A21",
"K  c #413D35",
"L  c #4A3F32",
"P  c #3B422A",
"I  c #42472B",
"U  c #4D412F",
"Y  c #424A2F",
"T  c #4B4034",
"R  c #474F33",
"E  c #47423A",
"W  c #534533",
"Q  c #594A36",
"!  c #514539",
"~  c #5E4D39",
"^  c #614F3B",
"/  c #64503E",
"(  c #0D4148",
")  c #14444A",
"_  c #144E56",
"`  c #1A4E55",
"'  c #165159",
"]  c #1D575F",
"[  c #384749",
"{  c #235157",
"}  c #23545A",
"|  c #205E66",
" . c #13616B",
".. c #09707E",
"X. c #23636C",
"o. c #2C747E",
"O. c #434343",
"+. c #4C4C4C",
"@. c #575146",
"#. c #445152",
"$. c #535353",
"%. c #5B5B5B",
"&. c #6A5643",
"*. c #78614D",
"=. c #646464",
"-. c #6B6B6B",
";. c #747474",
":. c #8F735D",
">. c #92755E",
",. c #087483",
"<. c #0B7887",
"1. c #0A7D8C",
"2. c #137783",
"3. c #098291",
"4. c #138B9B",
"5. c #0E91A2",
"6. c #1091A2",
"7. c #1097A8",
"8. c #1A9BAB",
"9. c #14A5B8",
"0. c #15A8BC",
"q. c #18AEC2",
"w. c #19B7CB",
"e. c #1DC4DB",
/* pixels */
"                                                          d g +.%.j d                                                           ",
"                                                        g d N +.$.N d g                                                         ",
"                                                      g g g j A O.N g j N                                                       ",
"                                                      g g j a g C a a a d                                                       ",
"                                                    N j M } | X.o.X.] ` m d                                                     ",
"                                                    p j } 3.9.w.e.0.5.3.' a                                                     ",
"                                                    > s { 1.7.q.q.7.<.,._ 6                                                     ",
"                                                    6 , ) 3.6.8.8.4.<...( #                                                     ",
"                                                    V d , ) 2.[ #.Z  .) g B                                                     ",
"                                                      d d v n B O.j n v d                                                       ",
"                                              > , - B B g g j O.+.N g i :                                                       ",
"                                      V $.=.=.$.$.d g N d d N +.$.N d 6 & : $.+.O.N                                             ",
"                                    N A $.-.;.;.;.A p d g g g K O.B g : # p +.%.$.+.%.                                          ",
"                                  g A O.+.=.-.%.%.A p d j i , * > j p - - g +.%.-.-.-.$.A d                                     ",
"                                p g A O.A O.+.A O.O.A O.v > + . . O - > p N O.B %.=.%.+.A g p                                   ",
"                                > d g N B d d O.+.+.+.+.+.O.p - - p N A A g p A B $.+.O.B g i   ,                               ",
"                                - - > p d > - N A A O.O.O.+.B + i V B O.O.A +., O.A N N g , , , , ,                             ",
"                                + - - - - + O - g j N N N A N i i A v $.=.O.N > q , > > j O.> , >                               ",
"                              N A O.+.$.$.A + . , i p d g p , , O.B A +.O.V d - ; & - p +.-.+.>                                 ",
"                              V +.%.=.=.%.A + . + - - - - + + - j v A g , , 7 p p v g A +.$.@.z ,                               ",
"                              N +.+.+.O.A d , O + + + + + - > - + , i i , , p l P [ K B N H Q *.z                               ",
"                              j +.$.O.j d p d - - - - > > i g - > > > g V A B c P N N l z Q *.:./                               ",
"                              q +.%.$.N , , - - - - > i g N v , j v N B A A A B d p d L ~ &.>.^ T C                             ",
"                            , > +.-.%.O.+.+.- . O , g j N O.O.N A O.O.j , , , g d p g C W W W z q g                             ",
"                            p N +.-.;.-.$.j i , i d g b g d g P O.N d p p d g V g , > B E H z j g j                             ",
"                            d N A =.=.A p d d p p p p d g d g C g N g g g j g i , p , g g d E [ N A                             ",
"                            , N B b j i , g d p p p p d g g g d p g d A O.g , , ,   , , , p B B                                 ",
"                            - p N , > N V d p p p a p p s z l a d d i g g > ; V x     , 6 p                                     ",
"                              - p 6 > O.O.d d p p p d d z W H a p p - + O ; k R Y       d                                       ",
"                                - - , N K A g d p d g B ! ^ L p , p - O O : I R P                                               ",
"                                  - , , A +.p j p g l ! ~ U H s p > - O + & 0 I                                                 ",
"                                          j p v d N L L H h w J 6 > - - ; , 6 9                                                 ",
"                                          g p d O.g a p , s P 6 - + + - - i N 6 -                                               ",
"                                        p , g O.H G w > , q 9 + O . O - > > , , , +                                             ",
"                                      , : , N A h e q p d a + . O + & - - - - + - O                                             ",
"                                      , > > d d p ; , , , ; O . . - > - - - # O + .                                             ",
"                                      , - - , - ; - ; : - + - . . - - - + + O + + .                                             ",
"                                      - - + - - - - - - + + + . . . O + - - O O + .                                             ",
"                                        - + + + + - + + + - . . . . . O - - O + + O                                             ",
"                                          - + + - + - + - + + . . O O + + - + - + O                                             ",
"                                            + + + + - + + - + + + # + O + + + O O                                               ",
"                                          + + - - + + - - - # O O + # O O + + O .                                               ",
"                                          + + - - - - > , > + O O O + + O # - O O                                               ",
"                                          O # & 9 y u u y 5 & + O + + + O # - O O                                               ",
"                                            # 1 r S F D t 3 * + O + O O O + # O .                                               ",
"                                            & 1 3 4 r r 3 < +   . O O O o # O O .                                               ",
"                                              < 4 r 3 3 8 2 %   . . o O @ % @ .                                                 ",
"                                              % < 1 2 3 8 2 % $ X X @ @ % * % O                                                 ",
"                                              % % % % % % < 2 % X X @ @ % 1 < +                                                 ",
"                                              % % < 2 3 3 2 < $ X X @ % < * # $                                                 ",
"                                              % % < < 1 2 % % % % @ @ @ % @ O                                                   ",
"                                              # % % 3 3 2 % *   @ % % % % % @                                                   ",
"                                              & 2 2 3 r 3 1 $   X % < < < %                                                     ",
"                                              < 2 2 r r 3 * +   X @ % < % %                                                     ",
"                                                < 3 8 r 3 * #   @ X X % % <                                                     ",
"                                                % 2 3 r 3 2 %   X X @ @ % 1                                                     ",
"                                                  # * 2 2 1     X X @ @ % 3                                                     ",
"                                                  * 8 t r 4     % < < % < <                                                     ",
"                                                3 4 t r 3 3 <   < 1 2 1 < <                                                     ",
"                                                3 3 r 8 8 3 3   # * 1 : & &                                                     ",
"                                                3 3 4 8 r 3 4   - - - - -                                                       ",
"                                                3 3 4 8 3 3 r 3                                                                 ",
"                                                3 3 3 2 3 3 3 3                                                                 ",
"                                                  1 1 < < % %                                                                   "
};
