/* XPM */
static char *enemy_dying_31665693182[] = {
/* columns rows colors chars-per-pixel */
"64 64 173 2 ",
"   c None",
".  c #040404",
"X  c #0A0504",
"o  c #0C0907",
"O  c #070708",
"+  c #060A0A",
"@  c #0B0A0A",
"#  c #120404",
"$  c #1B0404",
"%  c #130D06",
"&  c #110D0C",
"*  c #1B0C0C",
"=  c #13110E",
"-  c #1C140C",
";  c #1F190E",
":  c #0C1111",
">  c #141413",
",  c #181614",
"<  c #141818",
"1  c #1B1B1B",
"2  c #230303",
"3  c #2B0404",
"4  c #220A0A",
"5  c #2B0B0B",
"6  c #340303",
"7  c #3C0303",
"8  c #330A0A",
"9  c #390A0A",
"0  c #20180F",
"q  c #2B1313",
"w  c #231B12",
"e  c #2A1F15",
"r  c #231E1B",
"t  c #2B1D1C",
"y  c #3D1010",
"u  c #3C1D1D",
"i  c #252217",
"p  c #2B2017",
"a  c #24211D",
"s  c #2C251C",
"d  c #252B1A",
"f  c #2D311F",
"g  c #1F2424",
"h  c #232323",
"j  c #2A2727",
"k  c #2A2A27",
"l  c #272728",
"z  c #262929",
"x  c #2B2B2B",
"c  c #312C25",
"v  c #312F2F",
"b  c #392424",
"n  c #3B3224",
"m  c #373825",
"M  c #363125",
"N  c #343434",
"B  c #393737",
"V  c #373A3A",
"C  c #3B3B3B",
"Z  c #440101",
"A  c #4C0202",
"S  c #420C0C",
"D  c #490A0A",
"F  c #530404",
"G  c #5C0404",
"H  c #540A0A",
"J  c #590A0A",
"K  c #461313",
"L  c #4C1313",
"P  c #5C1515",
"I  c #531616",
"U  c #640303",
"Y  c #6B0303",
"T  c #620A0A",
"R  c #730303",
"E  c #790000",
"W  c #750F0F",
"Q  c #681E1E",
"!  c #741313",
"~  c #731818",
"^  c #7F1B1B",
"/  c #702319",
"(  c #4B2424",
")  c #4A2C2C",
"_  c #582424",
"`  c #4D3121",
"'  c #413728",
"]  c #443A2A",
"[  c #4A3E2D",
"{  c #4C3C24",
"}  c #433535",
"|  c #4E3C3C",
" . c #6B2F2F",
".. c #692323",
"X. c #722828",
"o. c #683E28",
"O. c #4E402F",
"+. c #4F4330",
"@. c #544534",
"#. c #584737",
"$. c #574935",
"%. c #584836",
"&. c #554A3B",
"*. c #604D3B",
"=. c #7D4338",
"-. c #65523E",
";. c #163D43",
":. c #1B4C4F",
">. c #184B52",
",. c #0E525B",
"<. c #18565E",
"1. c #3F4040",
"2. c #165C65",
"3. c #13707B",
"4. c #444444",
"5. c #494747",
"6. c #474A49",
"7. c #4B4C4C",
"8. c #5A4C40",
"9. c #535353",
"0. c #5B5B5B",
"q. c #664A4A",
"w. c #7E4242",
"e. c #635656",
"r. c #77634C",
"t. c #5F6060",
"y. c #656464",
"u. c #6C6C6C",
"i. c gray45",
"p. c #830101",
"a. c #8A0000",
"s. c #8A0E0E",
"d. c #9B0101",
"f. c #831414",
"g. c #841C1C",
"h. c #9B1717",
"j. c #A30202",
"k. c #AC0303",
"l. c #B10101",
"z. c #BC0101",
"x. c #B91515",
"c. c #872223",
"v. c #912020",
"b. c #962C2C",
"n. c #9D3435",
"m. c #9A3D3D",
"M. c #CD0000",
"N. c #864E4E",
"B. c #93574A",
"V. c #895B5B",
"C. c #AA4141",
"Z. c #A14848",
"A. c #A05A5A",
"S. c #A25C51",
"D. c #8A6B56",
"F. c #996161",
"G. c #0D7381",
"H. c #0A7C8B",
"J. c #177581",
"K. c #147885",
"L. c #1B7783",
"P. c #0B8798",
"I. c #108797",
"U. c #1E8492",
"Y. c #238692",
"T. c #208B99",
"R. c #0F96A7",
"E. c #0E98AA",
"W. c #279BAB",
"Q. c #13A2B5",
"!. c #16ADC1",
"~. c #19B6CB",
"^. c #1BBED4",
/* pixels */
"                                                                                                                                ",
"                                                                                                                                ",
"                                                                                                                                ",
"                                                                                                                                ",
"                                                                                                                                ",
"                                                                                                                                ",
"                                                                                                                                ",
"                                                                                                                                ",
"                                                                                                                                ",
"                                                                                                                                ",
"                                                                                                                                ",
"                                                                                                                                ",
"                                                                                                                                ",
"                                                                                                                                ",
"                                                                                                                                ",
"                                                                                                                                ",
"                                                                                                                                ",
"                                                                                                                                ",
"                                                                                                                                ",
"                                                                                                                                ",
"                                                                                                                                ",
"                                                                                                                                ",
"                                6.9.C v l x k >                                                                                 ",
"                              B 7.v k x x x h : h                                                                               ",
"                            1 N 4.x x x l l a @ - h                                                                             ",
"                            & N B l l r - w ; - ; - -                                                                           ",
"                            K.T.W.U.L.3.>.s a a a o %                                                                           ",
"                            Q.~.^.Q.P.P.,.1 k l l O O                                                                           ",
"                            E.!.!.E.H.H.,., l l h @ O                                                                           ",
"                            I.Y.Y.L.G.G.>.r g 1 1 O O                                                                           ",
"                            2.V 5.N <.;.r r @ = @ % @ >                                                                         ",
"                    N B 4.B x V 5.x x x a , w h ; ; - r | e.0.9.6.N                                                             ",
"                V 7.0.y.y.9.x 5.7.N l l x h l h % ; < J k.h.7.i.i.y.7.N x                                                       ",
"              C 9.0.0.y.u.9.v 7.0.N l j x v x j P H R P ) q.y.9.7.9.7.4.N h                                                     ",
"            x C 7.7.0.0.t.7.V x N j j n { ` L 9 T Y p.d.Q 1.0.} x.) V 4.C N l                                                   ",
"            h B C 5.7.7.4.V v g 1 h j { %./ W W p.E H P _ 1.7.B g.s.( N C N h                                                   ",
"            g x v B B v x j a 1 > 1 k &.=.c.g.h.z.U H u z N N V z ! ( z x l <                                                   ",
"            1 g h x x l x h 1 , , > [ r.B.n.v.k.z.q T L 1 j u k h g a h r 1 1                                                   ",
"            1 1 x v V C C x 1 < , 1 8.D.S.n.f.l.d.q > < > 5 G , < 1 1 < < 1 k                                                   ",
"              1 v C 7.7.5.C x < 1 C 5.N.C.c.R z.j.5 > > @ @ @ O @ : > > , g v B                                                 ",
"              l B 5.9.0.9.5.v < C 7.9.w.b.~ Y M.d.5 : : @ . . . @ > , , < 1 v C                                                 ",
"              h N 4.7.9.7.1.C 5.0.0.F.m.^ W a.M.a.$ @ + A Y . . & j.L < 1 a l C                                                 ",
"              g l B 4.1.C C 7.0.y.0.A.n.P q Z j.E $ . . $ 8 @ . : D q < g h l B v                                               ",
"                l x v x v 1.7.t.t.V.m...t + $ a.G X . @ @ + @ 3 & : : y K l x v v                                               ",
"                h l a g v 1.5.9.9.Z.X.t > + 4 p.T K * @ & 2 2 3 & & : S K l l v x 1                                             ",
"                1 l 1 1 l v V C }  .b w 4 * y p.! ~ y 4 7 A 3 O : : : , 1 1 l x x g                                             ",
"                  g , 1 1 g x v x z < 5 Z Z G p.F F F D J D # # X . O > < 1 g j l N                                             ",
"                    @ > 1 1 g a g 1 > 3 Z Z F R A Z Z 2 2 7 7 7 X . O > < , 1 g l N h                                           ",
"                      > 1 > 1 1 < 1 8 2 2 Z Z Y T G A 2 O O $ 7 X . @ @ : 1 , r g h h h 1                                       ",
"                        1 > @ @ > @ X . $ 6 $ Z A T G 2 O # 6 X . @ @ > , 1 h g r 1 h 1 <                                       ",
"                          > > @ @ . . + 2 6 O $ 7 G G 5 $ 3 X . . . : , 1 l x x l 1 > > 1                                       ",
"                        @ > > @ O + = O 2 7 O . 2 F Y 8 $ 2 . . . . > 1 1 l x v l < > > , 1                                     ",
"                      . O @ @ @ O @ > @ 3 D O O @ A R 7 :   . . . O : , 1 g j j h > > > < g r                                   ",
"                      . O O . @ @ O @ @ 3 D O > , 8 U 9 @ >   . . O @ > 1 1 g g 1 = @ > 1 h h <                                 ",
"                      . O O . o o @ O . $ 3 @ > > > F 7 = ; >   @ O . : , 1 a 1 , @ O : > 1 1 >                                 ",
"                      . O @ O O @ O @ O O @ > , > > S 3 = - - >   O X = 1 g a 1 : O @ = = > @ @ p s                             ",
"                      . O O o O O O @ O $ 3 @ > < > Z 2 @ - - &   @ i ] @.#.#.' = O @ O @ @ o @ w p e                           ",
"                      . . . O @ o O @ O & % @ = > @ # . O % - = O   O.[ [ %.-.%.n = O o @ O O O = w p e                         ",
"                      . O O @ O @ @ @ O @ O O @ @ O . . . O @ @ O   O.m f ] *.#.O.= O @ @ @ @ O & , p p w                       ",
"                      . . O @ @ O @ O o O O @ . . O . . . . . .         d n %.+.] > O @ @ = : > - - w w w                       ",
"                        . O . O . O . . O O @ @ .     . . . . .         s m @.[ ' % O O O o @ o - % - 0 -                       ",
"                          . . . . . . . . O @ @                       h h M ' n c o . O O . O . o X % ;                         ",
"                            . . O . . . . .                             k k i i > . . . . . . . X X %                           ",
"                                                                            O < . . . . . . . . X %                             "
};
