/* XPM */
static char *enemy_dying_71665788731[] = {
/* columns rows colors chars-per-pixel */
"64 64 156 2 ",
"   c None",
".  c #070202",
"X  c #0D0202",
"o  c #0D0C0C",
"O  c #150202",
"+  c #1C0101",
"@  c #130A0A",
"#  c #1C0A0A",
"$  c #131313",
"%  c #1D1313",
"&  c #1A1A1A",
"*  c #240101",
"=  c #2C0101",
"-  c #240B0B",
";  c #2B0B0B",
":  c #340101",
">  c #3B0202",
",  c #340D0D",
"<  c #3D0D0D",
"1  c #231414",
"2  c #2B1515",
"3  c #221A1A",
"4  c #2C1E1E",
"5  c #331313",
"6  c #3D1515",
"7  c #331D1D",
"8  c #391B1B",
"9  c #232323",
"0  c #292323",
"q  c #2C2C2C",
"w  c #342222",
"e  c #3D2727",
"r  c #332C2C",
"t  c #343333",
"y  c #3C3636",
"u  c #3B3A3A",
"i  c #440202",
"p  c #4C0202",
"a  c #430A0A",
"s  c #4C0A0A",
"d  c #540202",
"f  c #5C0101",
"g  c #540B0B",
"h  c #5C0B0B",
"j  c #421313",
"k  c #4A1212",
"l  c #421D1D",
"z  c #4D1C1C",
"x  c #521314",
"c  c #5B1313",
"v  c #640202",
"b  c #6C0303",
"n  c #650D0D",
"m  c #680B0B",
"M  c #750202",
"N  c #7B0202",
"B  c #641414",
"V  c #681717",
"C  c #611919",
"Z  c #6A1C1C",
"A  c #751616",
"S  c #761818",
"D  c #7C1A1B",
"F  c #701F20",
"G  c #422727",
"H  c #492525",
"J  c #442E2E",
"K  c #492E2E",
"L  c #5C2222",
"P  c #502F2F",
"I  c #423232",
"U  c #4E3535",
"Y  c #4E3F3F",
"T  c #553434",
"R  c #523C3C",
"E  c #5A3A3A",
"W  c #672121",
"Q  c #692727",
"!  c #6F2F2F",
"~  c #752222",
"^  c #7D2525",
"/  c #7E2D2D",
"(  c #603F3F",
")  c #733939",
"_  c #444444",
"`  c #4E4343",
"'  c #4C4C4C",
"]  c #564444",
"[  c #594646",
"{  c #534949",
"}  c #5F4C4C",
"|  c #545454",
" . c #5B5B5B",
".. c #654343",
"X. c #614F4F",
"o. c #645051",
"O. c #6D5454",
"+. c #665C5E",
"@. c #6E5959",
"#. c #715151",
"$. c #646464",
"%. c gray43",
"&. c #756464",
"*. c #7A6666",
"=. c #747474",
"-. c #7C7B7B",
";. c #840303",
":. c #8B0202",
">. c #8E0A0A",
",. c #930202",
"<. c #9B0505",
"1. c #940909",
"2. c #9D0A0A",
"3. c #841B1B",
"4. c #A40303",
"5. c #A20F0F",
"6. c #B20707",
"7. c #A51717",
"8. c #B01010",
"9. c #842424",
"0. c #842728",
"q. c #842C2C",
"w. c #8A292A",
"e. c #922929",
"r. c #843536",
"t. c #893131",
"y. c #933536",
"u. c #983637",
"i. c #963B3C",
"p. c #A03B3C",
"a. c #D91717",
"s. c #9F4141",
"d. c #A54446",
"f. c #A5484A",
"g. c #AB4E4E",
"h. c #B75557",
"j. c #806E6E",
"k. c #8C7575",
"l. c #907A7A",
"z. c #B86262",
"x. c #898989",
"c. c #938282",
"v. c #9C8989",
"b. c #929292",
"n. c gray60",
"m. c #A18D8D",
"M. c #A09494",
"N. c #A89797",
"B. c #AC9C9C",
"V. c #A9A0A0",
"C. c #B3A2A2",
"Z. c #B5ABAB",
"A. c gray71",
"S. c #BEB1B1",
"D. c #CBC4C4",
"F. c #CECDCD",
/* pixels */
"                                                                                                                                ",
"                                                                                                                                ",
"                                                                                                                                ",
"                                                                                                                                ",
"                                                                                                                                ",
"                                                                                                                                ",
"                                                                                                                                ",
"                                                                                                                                ",
"                                                                                                                                ",
"                                                                                                                                ",
"                                                                                                                                ",
"                                                                                                                                ",
"                                                                                                                                ",
"                                                                                                                                ",
"                                                                                                                                ",
"                                                                                                                                ",
"                                                                                                                                ",
"                                                                                                                                ",
"                                                                                                                                ",
"                                                                                                                                ",
"                                                                                                                                ",
"                                                                                                                                ",
"                                                                                                                                ",
"                                                                                                                                ",
"                                                                                                                                ",
"                                                                                                                                ",
"                                                                                                                                ",
"                                                                                                                                ",
"                                                                                                                                ",
"                                                                                                                                ",
"                                                                                                                                ",
"                                                                                                                                ",
"                                                                                                                                ",
"                                                                                                                                ",
"                                                                                                                                ",
"                                                                                                                                ",
"                                                                                                                                ",
"                                                                                                                                ",
"                                                                                                                                ",
"                                                                                                                                ",
"                                                                                                                                ",
"                                                                                                                                ",
"                                ,                                                                                               ",
"                              2 T ( E                                                                                           ",
"                          I #.#...l.C.                                                                                          ",
"                        X.V.Z.v.m.m.o.o.                                                                                        ",
"                      $.%.b.F.D.k.8 O O                                               s.B                                       ",
"                    -.-.-.l.x.$.2 + X I H                                           s k l ..v.@.J K                             ",
"                  $.-.-.=.=.' ' ' q - * R                                           = 6 T l.B.v.v.B.j.U                         ",
"                  =.=.%.%. .| _ _ t J 6 &.U                                       > 1 5 E -.[ G @.N.S.c.                        ",
"                $.%. .| | ' _ u t q K h ] U   :                                 d M . @ q  .y ; I o.v.B.v.                      ",
"  Q = >        .$. .' ' _ q o q _ y 6 e.P 7 # p ,.              h               N s O o 9 r 0 1 { $.{ #.c.M.                    ",
"  a a g d   u | | |  .u & $ o t _ ' Y B s - 5 r.7.:       : p d q./ i           ^ - e & $ t q q t u _ w I *.A.n.                ",
"    =     k u _ ' ' u $           2 r z j * z j.c = i : = p N v 3.0.d :       2.s ; ] y 0 4 q 0 0 t t L ! ) k.b.-.              ",
"          q y u ' ' & * f >       N :   = = @.r + * 2 k [ 5 > f ;.v > d g l Z h + v 6 = @ 3 1 O d p q.g.z./ c E =.%.            ",
"          o & u u 9 . * * d * i ;.M f + p % &.j > l [ ] 7 } H a , E > : f m r.z * b f : X > * : = N v g c f s t Y A b           ",
"        1 o o & $ o - : = i O + p M 5.= : + 2 d v * i e R =.{ X.y % * , > * < = : v <.d * i v f = f b M b p 5 w 4 ;.v           ",
">.4.6.  $ & $ o o o : > : i * O N 4.4.+ p d > f : > * * x t t +.y # : N z J = + : v a.;.> p d a V >.,.v d ;.# = v d p 5         ",
";.<.8.% $ $ $ $ o o N h i M i : p ;.,.p d n i f p = : = > w 8 5 p > : 6.i = : : p <.,.:.+ = n r.h.d.0.;.d ,.p v d = # 0 9       ",
"f f ;.- $ 3 8 1 $ 2 D Z i M D c a f <.> > A g > i p = = : i : i = : : M v v M d > p ,.;.= ;.Z y.u.p.y.9.b ,.b p # o o $ 9 9     ",
"  > = $ 2 Z q.t.^ c c k b v V t.a h v : b v f f M b ;.b > f > > O f v >.v f p f V w.^ B g m Z i.g.f.i.^ d 1.v # $ = o o & 9     ",
"= = @ $ , x c c x > , > i = : V > < i p = : > i d i i b = p : f > d M d * = v c C Z q.w.w.^ q.y.9.^ h s h v i < < ; * o o & 3   ",
"p i = @ - < > a : : = = = : : i : i i > * * : > i i > = = : = d : i i p p i : a z V c s s i > s g s i s a p i i i d h = - ; >   ",
"                                      b v h d d h d p p i                 b m v M M N                             : i i i i :   "
};
