/* XPM */
static char *enemy_dying_41665788730[] = {
/* columns rows colors chars-per-pixel */
"64 64 162 2 ",
"   c None",
".  c #050505",
"X  c #0E0000",
"o  c #0C0C0C",
"O  c #150000",
"+  c #1C0000",
"@  c #131313",
"#  c #1E1414",
"$  c #1C1B1B",
"%  c #240000",
"&  c #2C0000",
"*  c #250E0E",
"=  c #280A0A",
"-  c #340000",
";  c #3C0101",
":  c #340B0B",
">  c #3E0B0B",
",  c #2B1313",
"<  c #261C1C",
"1  c #2B1F1F",
"2  c #361313",
"3  c #3A1212",
"4  c #341918",
"5  c #3E1D1D",
"6  c #232323",
"7  c #2D2324",
"8  c #282827",
"9  c #272829",
"0  c #2C2C2C",
"q  c #3B2122",
"w  c #312F2F",
"e  c #333333",
"r  c #393434",
"t  c #3B3B3B",
"y  c #430000",
"u  c #4B0000",
"i  c #4D0708",
"p  c #43090A",
"a  c #4B0D0D",
"s  c #530000",
"d  c #5B0101",
"f  c #530E0E",
"g  c #5A0D0D",
"h  c #451212",
"j  c #431D1D",
"k  c #4D1D1D",
"l  c #531212",
"z  c #5D1515",
"x  c #561919",
"c  c #630000",
"v  c #6B0000",
"b  c #650B0B",
"n  c #6A0909",
"m  c #730101",
"M  c #7C0101",
"N  c #740D0D",
"B  c #7A0B0A",
"V  c #641414",
"C  c #6D1312",
"Z  c #631A1B",
"A  c #6D1C1C",
"S  c #731414",
"D  c #7A1313",
"F  c #731E1E",
"G  c #7D1919",
"H  c #6A1F20",
"J  c #4D2424",
"K  c #442A2A",
"L  c #4F292A",
"P  c #592424",
"I  c #552929",
"U  c #4A3636",
"Y  c #413C3D",
"T  c #4E3B3B",
"R  c #523636",
"E  c #593131",
"W  c #652222",
"Q  c #682021",
"!  c #6D2D2D",
"~  c #742323",
"^  c #7C2425",
"/  c #772729",
"(  c #7D2B2B",
")  c #793434",
"_  c #434343",
"`  c #484141",
"'  c #4B4B4B",
"]  c #5A4646",
"[  c #544D4D",
"{  c #545353",
"}  c #5D5D5D",
"|  c #674343",
" . c #604F4F",
".. c #754646",
"X. c #754B4B",
"o. c #655A5A",
"O. c #6B5E5E",
"+. c #715555",
"@. c #7A5454",
"#. c gray39",
"$. c #6B6262",
"%. c #6C6C6C",
"&. c #747474",
"*. c #7D7373",
"=. c #7C7C7C",
"-. c #840101",
";. c #8B0202",
":. c #840A0A",
">. c #8E0808",
",. c #920101",
"<. c #9C0404",
"1. c #950F0F",
"2. c #841212",
"3. c #8E1D1D",
"4. c #961010",
"5. c #A40303",
"6. c #AA0202",
"7. c #AC0B0B",
"8. c #B30606",
"9. c #BE0606",
"0. c #BC0E0E",
"q. c #B21212",
"w. c #832627",
"e. c #862A2B",
"r. c #8C2B2B",
"t. c #902D2D",
"y. c #853132",
"u. c #8C3435",
"i. c #973435",
"p. c #923A3A",
"a. c #9C3B3B",
"s. c #C31010",
"d. c #A84042",
"f. c #AC494B",
"g. c #B04648",
"h. c #B04A4C",
"j. c #B35051",
"k. c #876969",
"l. c #936D6C",
"z. c #828282",
"x. c #898182",
"c. c #8A8989",
"v. c #908888",
"b. c #929292",
"n. c #9B9B9B",
"m. c #A98383",
"M. c #A5A5A5",
"N. c #ABA6A6",
"B. c #ABABAB",
"V. c #BDABAA",
"C. c #B5B5B5",
"Z. c #BCB4B4",
"A. c gray73",
"S. c #C0BFBF",
"D. c #C4C3C4",
"F. c #CACACA",
"G. c #D3C8C8",
"H. c #D0D0D0",
"J. c #DDDDDD",
"K. c #E6E6E6",
"L. c #EDECEC",
"P. c white",
/* pixels */
"                                                                                                                                ",
"                                                                                                                                ",
"                                                                                                                                ",
"                                                                                                                                ",
"                                                                                                                                ",
"                                                                                                                                ",
"                                                                                                                                ",
"                                                                                                                                ",
"                                                                                                                                ",
"                                                                                                                                ",
"                                                                                                                                ",
"                                                                                                                                ",
"                                                                                                                                ",
"                                                                                                                                ",
"                                                                                                                                ",
"                                                                                                                                ",
"                                                                                                                                ",
"                                                                                                                                ",
"                                                                                                                                ",
"                                                                                                                                ",
"                                                                                                                                ",
"                                                                                                                                ",
"                                                                                                                                ",
"                                                        m   s                                                                   ",
"                                                        y y s                                                                   ",
"                                                -   &     &       ; ; y   y                                                     ",
"                                                v     s d y s s c u s u u             &                                         ",
"                                                      ; y   y y   y -     & - u - u ;   v       s                               ",
"                          G               y         c - -     u     ;     & ; s ;                                               ",
"                                        d s ;         ;     -       -     - ; y -             y ;                               ",
"                                        S d d       -     ;   y -           - ;               u d d                             ",
"                                        n - s d M y ;   ; - - -         &   - - &         y & d v                               ",
"                                          + & ; ; &       - d u                     ;   % y % % -                               ",
"                                          - - ; u y         ; y                     % & - - y & y                               ",
"                                        ; ; - & ;   s                                 y u ; y ; ; >                             ",
"                                      y y - y i u                 r.                u ; % s ; > - h h >                         ",
"                                  s c d u - y l &         t.A     V   u           & ; - % O - y u - % >                         ",
"                                    M v u - u s ; u       C p         c     y   &   y ; % X % s v & & &     w.F                 ",
"                                    v m - % - - s u y ;                   v 6.u u y y - % + & v v i a -     e.a                 ",
"                                  d s s c ; % u s m d u d y             a.N ,.y v s y & & % s m v s b d                         ",
"                    D B 7.      v   s s v s & u ; ;     ;           c     -   & y M c u - & y v d d v y -                       ",
"                    z p 4.          s v u & & u u u     c ; -.        y     ; ; d v ; + % ; y d d y i z -                       ",
"                    > & c ,.v       d s d ; ; - - - &   - - d y y             & - y - ; s S S b y v 2.C H                       ",
"                        y v v y ; u d b d ; y &   y u d ;     ; s     & -     ; y u % + & C z > u ,.B n a                       ",
"                        , y v u ; u N p.A - & - s - u y     ; -   u d   ; y ; d v M y % ; ; ; ; g <.M c ;                       ",
"                      k.M.u u s ; & y > a ; & y u 5.;.;           ,.m     ; s v v y - y y - ; & c 0.>.s                         ",
"                    #.X.3.m ; >.v % - ; s ; ; &   <.;.u       ; y v y     - s d s v - s v u y M 5.8.>.:                         ",
"                  %.&.| 8.M 6.5.; v ; s c u -     c ; ; y - s u y -   - - s y -   ; y u y & ; <.8.-.z ;                         ",
"                &.z.=...0.q.c m <.-.y y d m -             - s y - s & y s M d   & & v v y + + - 7.5.i K                         ",
"                &.&.&.O.M v s -.<.-.- ; ; v d -         s   <.M u ;   - - - y & y m s y & % - v <.-.V n.                        ",
"              %.&.%.%.#.s M ;.m -.; + O - v u & +         ; c     ; -           & u y ; u + ; M ,.-.m.F.n.                      ",
"            #.#.#._ ' ' 5 ; y v - s - + d ;.s ; & &             v d d y       O % & s u ; & % >.<.s v.F.G.B.                    ",
"          #.#.} { } _ e @ = 3 2 - c c u y s - ; d s % s       d   ; d u     % % s s + - & % v m s y o.&.B.A.B.                  ",
"        e _ { { { _ $ @   $ e t p v 9.M c y ; ; d s ; ;     - c s   s   y   % & % + + ; & 5.v v y f L ` ' =.B.B.                ",
"        t t _ ' ' $             m -.;.5.-.<.s s s g I U E  .P 5 U i v   &   % % ; - - s ;.5.;.:.y.f.j.x 0 e { z.z.%.            ",
"      0 t t ' { 0 o               u v m c 0.s ; j 1 $.F.J.K.G.F.n.N.h l.J W ; + y - - % 1.s.M V e.i.i.e.q e e e } &.%.          ",
"      . @ e Y 0 o .             Q p M M c <.b 7 q [ =.c.=.b.l.o.z.Z.,.V.S.S.) ! +.4 & c 6.7.d ; V F F e.3 8 e 0 t { e           ",
"      @ o @ $ o o               Q z d i v >.R ] %.&.z.&.+.{ 6 O.Y z.k.D.F.C.x.c.=._ v ; d M v   u.p.g.r.= . $ 6 6 $ $ 0         ",
"    @ $ @ @ o @ o   ~     l ~ / A x p ; v * T M.#.#.L.B.{ N K 7 # *.w.O.%.r 6 9 0 0 3 u M d C a.f.h.d.~   . . o @ o 6 0 0       ",
"    @ @ @ @ @ o 3 ~ / e.( z l a h l H V g # 0 _ Y z.P.K.e P ,.m + m C { { $ $ $ @ 9 j d g ( a.i.F Z C       o o o o o @ 6 8     ",
"  @ @ @ @ @ @ o > a z x a ; : - &     ( W r e e e Y n.A.0 [ ] k a < M.#.Y @ @ o @ e p % A / ( ^ l           . o @ o o o $ 6     ",
"  @ @ @ @   . o   l                       < e e t &.J.C.t [ ^ ' e e &.&.9 @ @ . $ $ ,   z z V a             . o @ @ o o o 6 6   ",
"o @ @ @                                     * w 0 6 t _ z._ 0 $ e 0 ' ' @ @ @ o @ $                           . @ @   o o o $ 6 ",
"o @ @ @                                           @ @ @ $ e 0 ' { { ' t o @ o o o .                           . o $     o o @ @ "
};
