/* XPM */
static char *enemy_dying_11665693181[] = {
/* columns rows colors chars-per-pixel */
"64 64 177 2 ",
"   c None",
".  c #040302",
"X  c #0A0602",
"o  c #0E0903",
"O  c #070708",
"+  c #0C0B0B",
"@  c #130C05",
"#  c #150E09",
"$  c #140606",
"%  c #15100C",
"&  c #1A130C",
"*  c #1F180E",
"=  c #0F1010",
"-  c #061315",
";  c #141414",
":  c #1B1612",
">  c #1C1914",
",  c #171718",
"<  c #171818",
"1  c #1C1C1C",
"2  c #2B0505",
"3  c #210F07",
"4  c #240C0C",
"5  c #2B0A0A",
"6  c #3B0303",
"7  c #330C0C",
"8  c #3A0808",
"9  c #330707",
"0  c #20140C",
"q  c #20190F",
"w  c #211212",
"e  c #291616",
"r  c #221B13",
"t  c #291F15",
"y  c #221E1D",
"u  c #2D1B1B",
"i  c #331212",
"p  c #3C1212",
"a  c #1F251E",
"s  c #24211B",
"d  c #2B241D",
"f  c #32261C",
"g  c #1B2223",
"h  c #1F2728",
"j  c #0D2F33",
"k  c #1F3032",
"l  c #12383D",
"z  c #242424",
"x  c #2A2725",
"c  c #262929",
"v  c #2C2C2C",
"b  c #3B2424",
"n  c #322C2C",
"m  c #3B3227",
"M  c #363227",
"N  c #263233",
"B  c #2E3232",
"V  c #343434",
"C  c #3C3C3C",
"Z  c #363B3B",
"A  c #440202",
"S  c #440A0A",
"D  c #5B0000",
"F  c #550101",
"G  c #571008",
"H  c #491110",
"J  c #561D1D",
"K  c #640101",
"L  c #6B0C0C",
"P  c #730101",
"I  c #7A0202",
"U  c #790C0A",
"Y  c #641313",
"T  c #6C1A19",
"R  c #791414",
"E  c #7D1919",
"W  c #771818",
"Q  c #53251A",
"!  c #602218",
"~  c #442929",
"^  c #5A2424",
"/  c #40382D",
"(  c #48392B",
")  c #523626",
"_  c #4B3D33",
"`  c #423B3A",
"'  c #463535",
"]  c #602828",
"[  c #7C2829",
"{  c #782525",
"}  c #46403F",
"|  c #534332",
" . c #5B4533",
".. c #5A4937",
"X. c #5A4D3A",
"o. c #63523E",
"O. c #1F4245",
"+. c #13545D",
"@. c #1C5056",
"#. c #244549",
"$. c #324143",
"%. c #3F4040",
"&. c #1F5C64",
"*. c #0A717F",
"=. c #2F6A72",
"-. c #316C74",
";. c #434343",
":. c #4B4B4B",
">. c #4A4242",
",. c #5F4B4B",
"<. c #535353",
"1. c #5B5C5C",
"2. c #694848",
"3. c #764949",
"4. c #6B5642",
"5. c #6E5945",
"6. c #685649",
"7. c #755D49",
"8. c #625050",
"9. c #6F5E51",
"0. c #605F5F",
"q. c #6D5D5D",
"w. c #665653",
"e. c #705F52",
"r. c #7A604C",
"t. c #636464",
"y. c #6D6060",
"u. c #6A6B6B",
"i. c #666B6B",
"p. c #716760",
"a. c #737373",
"s. c #797474",
"d. c #840404",
"f. c #8B0303",
"g. c #8A0806",
"h. c #930806",
"j. c #821D1D",
"k. c #812E2E",
"l. c #803131",
"z. c #8D3838",
"x. c #8B3636",
"c. c #923D3D",
"v. c #E00000",
"b. c #825D4A",
"n. c #855C5C",
"m. c #816651",
"M. c #876A55",
"N. c #886B56",
"B. c #876F5D",
"V. c #92755F",
"C. c #8E7462",
"Z. c #9C7B67",
"A. c #977D6A",
"S. c #9E7F68",
"D. c #967862",
"F. c #C26B6B",
"G. c #9F8069",
"H. c #A2836C",
"J. c #AF8D75",
"K. c #A78B79",
"L. c #B29077",
"P. c #B5927A",
"I. c #0A7A89",
"U. c #097583",
"Y. c #187783",
"T. c #0B8595",
"R. c #118797",
"E. c #0D8FA0",
"W. c #0E92A3",
"Q. c #1695A5",
"!. c #149BAD",
"~. c #14A6B9",
"^. c #1EADC0",
"/. c #19B3C8",
"(. c #21B5C9",
"). c #A99180",
"_. c #B59884",
/* pixels */
"                                                                                                                                ",
"                                                                                                                                ",
"                                                                                                                                ",
"                                                                                                                                ",
"                                                                                                                                ",
"                                                                                                                                ",
"                                                                                                                                ",
"                                                                                                                                ",
"                                                                                                                                ",
"                                                                                                                                ",
"                                                                                                                                ",
"                                                            :.1.C v c v z                                                       ",
"                                                          ;.:.;.V v v v s ;                                                     ",
"                                                        v %.;.c c v v v < = z                                                   ",
"                                                      + y C C v v z z z > @ q s                                                 ",
"                                                      - g $.$.N N s q q > q * # &                                               ",
"                                                      Q.!.~./.Q.R.R.O.z z c 1 . +                                               ",
"                                                      W.~.(./.W.I.U.j 1 x c z . +                                               ",
"                                                      E.!.^.~.W.U.T.l y v c g . +                                               ",
"                                                      T.Y.=.=.&.*.&.k 1 ; p U X +                                               ",
"                                                      +.#.` } v @.h y & % p U % +                                               ",
"                                                      z n ;.;.v c c s r s g & G 3                                               ",
"                                                      x V :.:.v x v v c v 1 7 v.                                                ",
"                                                      c Z <.<.v v v n n n v n                                                   ",
"                                            ;.1.t.u.:.V C <.<.<.:.:.J I [ :.%.1.1.1.<.;.Z n                                     ",
"                                        ;.1.1.1.t.K.w.:.p.Z.L.Z.T L f.l.y.t.1.<.t.a.a.a.u.<.C v                                 ",
"                                      V ;.1.1.:.:.A.K.)._.P.S.b.g.f.k.q.u.u.i.i.t.s.a.u.t.:.%.V c                               ",
"                                    n Z C ` Z n Z B.J.J.H.V.7. .h.k.q.u.u.u.u.a.<.t.u.1.<.:.:.C v                               ",
"                                  1 z c x c v Z ;.C.V.r.7.4. .Q d.w.i.i.u.u.u.<.V V Z V V V V V c z                             ",
"                                  , y v v V :.:.:.e.5.o.X.| Q K K 8.t.t.0.0.<.V < + + + , 1 1 < , >                             ",
"                                c c C :.1.0.<.%.V c M ) ) Q F F S ` ;.;.%.C v ; O + , z v v z z < ;                             ",
"                              c V V ;.:.<.<.;.V z 1 < H P P P f.~ z 1 , ; # + O . + < v %.} V v v ,                             ",
"                              z v v V C Z V v g < 1 c C ] P P P d.~ B c g 1 ; O . + 1 V ;.:.%.n v                               ",
"                              z c V v v x 1 1 < , g z ^ ^ ' 2.I I E b V V c , = . . 1 V %.;.;.V B                               ",
"                              1 z z z 1 , , ; < c V %.,.q.u.s.n.F.3.>.B u i 1 ; O . ; c V Z %.Z B                               ",
"                              , 1 < , , w 5 , y v v B V C %.Z Z 2.B B c u b z , = O = y c v v V v B                             ",
"                              , , , , , 9 8 1 y 1 i 7 7 9 2 2 9 2 9 i e z B v , = + ; y v V V V n v                             ",
"                                , , ,     8 e w 4 Y E j.E R R j.R L L 7 % u v 1 ; O ; z V C C V V z                             ",
"                                            A A S { c.c.x.k.[ z.{ Y T p 2 6 : 1 ; + = s v n V Z B z                             ",
"                                            $ 6 : y y y x z z z y 1 = 2 A A 6 X + .   c v ;.<.<.Z x                             ",
"                                          ; , y z 1 y z z y , ; = = 1 y , 4 A 6 . .   v c V :.<.C v                             ",
"                                        1 c c n y 1 g z z z z 1 , + = , y y w $ ; y     c v C } V v                             ",
"                                      z 1 z V V , = ; ; ; ; ; ; = = ; ; 1 z 1 , < 1 c 1 1 c Z v v                               ",
"                                    < < , , z 1 , ; ; ; ; ; ; ; ; ; ; ; ; > < 1 < 1 z 1 = z r.w.c                               ",
"                                  < < , ; # = + , y y g y g y g 1 , ; , , , < < < z y 1 z 4.L.Z.(                               ",
"                                  < 1 < ; ; ; + ; 1 1 1 y y 1 1 1 1 1 z z z z , = 1 y , / M.H.D.m.                              ",
"                                  y 1 z 1 < 1 1 ; = ; , , ; ; ; y V c c v z , , + = ; ; x ( ..N.D.                              ",
"                                z z z v v c V V , ; = = = = = = z V V v n v 1 , = + + = m  .| M.M.                              ",
"                                z z V C V V ;.v ; + O . . . . + ; , c B n B v 1 ; < = | r.4.4.M.7.                              ",
"                              1 v V %.C %.%.x c 1 ; + . . . O = ; % v V v B V x 1 z z m 4.N.V.G.                                ",
"                            z v V %.} %.C n z z , + . . + + + < 1 ; v V n v v V c c z 1 m o.4.                                  ",
"                            c V C ;.%.V v c z , = = + + @ # +   ; + ; 1 z v B v V v z > > s >                                   ",
"                          c V C V V C V c c y + = , & & @ @ ;   = O . = z v v v Z n v c < % +                                   ",
"                        c v V C v n Z V v z = + = : & & @ # r %   O O , v v c v v c V V B z ; +                                 ",
"                      c v V V V Z V v v v v + = ; & 0 & & # & 0   . = 1 c v B v y z z V C V 1 + #                               ",
"                      z z x V V V c c V v y ; + ; : * # @ @ & & #   + O < V n c c n c 1 v C V z : r                             ",
"                      ; ; , c x x c z z 1 ; # = % & @ o X X @ & % +   O y C V v v Z v c z c V v f f t                           ",
"                      # % * r r : & 1 1 , = ; % + + X . . . X @ o O     Z C v x n v z y 1 < y , f f t                           ",
"                      + # & & & & # & & & & & # X .   . . . . . .         v c z s t r r : & % & r t q                           ",
"                      X X @ # & * & % & # @ # @ . .                       > % : & & & & & & & & q r *                           ",
"                        X X @ # & & & @ @ @ X . . .                       + o @ @ # # @ # # @ @ # & &                           ",
"                          . . ; @ @ & # + . . .                               . X $ @ @ @ X X X $ #                             ",
"                                o @ @ % + .                                     . X . . . . X X @                               ",
"                                                                                                                                "
};
