/* XPM */
static char *enemy_dying_11665788730[] = {
/* columns rows colors chars-per-pixel */
"64 64 188 2 ",
"   c None",
".  c #050505",
"X  c #0C0C0C",
"o  c #150000",
"O  c #1C0000",
"+  c #100F0F",
"@  c #131313",
"#  c #1C1414",
"$  c #1C1C1C",
"%  c #240101",
"&  c #2B0101",
"*  c #2D0F0F",
"=  c #270D0D",
"-  c #330101",
";  c #3B0101",
":  c #320708",
">  c #340A0B",
",  c #3E0B0B",
"<  c #261616",
"1  c #231B1B",
"2  c #3D1213",
"3  c #331A1A",
"4  c #381B1B",
"5  c #301414",
"6  c #2E271F",
"7  c #232323",
"8  c #2A2524",
"9  c #2D2A27",
"0  c #2B2B2B",
"q  c #302F2F",
"w  c #3D2525",
"e  c #323232",
"r  c #3B3B3B",
"t  c #440101",
"y  c #4B0000",
"u  c #440C0C",
"i  c #4B0D0D",
"p  c #530000",
"a  c #5B0101",
"s  c #530D0D",
"d  c #5C0C0C",
"f  c #451212",
"g  c #4C1314",
"h  c #451A1A",
"j  c #541415",
"k  c #5B1314",
"l  c #501818",
"z  c #5E1A1B",
"x  c #640000",
"c  c #6C0000",
"v  c #660909",
"b  c #6D0C0C",
"n  c #730101",
"m  c #7B0101",
"M  c #720C0C",
"N  c #631414",
"B  c #6C1313",
"V  c #631B1B",
"C  c #6A1B1B",
"Z  c #741516",
"A  c #751C1C",
"S  c #7B1C1D",
"D  c #7A1213",
"F  c #5B231D",
"G  c #6C1F20",
"H  c #7A1F20",
"J  c #492627",
"K  c #452829",
"L  c #4D2C2C",
"P  c #592121",
"I  c #552526",
"U  c #4B3B2C",
"Y  c #443434",
"T  c #483131",
"R  c #433B3A",
"E  c #593434",
"W  c #662424",
"Q  c #6B2324",
"!  c #602F2F",
"~  c #6F2D2D",
"^  c #742424",
"/  c #7C2324",
"(  c #7B2728",
")  c #73292B",
"_  c #7C292A",
"`  c #6F3939",
"'  c #793737",
"]  c #743B3B",
"[  c #5E4832",
"{  c #54463A",
"}  c #6C4F2F",
"|  c #62492E",
" . c #6D502B",
".. c #6B4F30",
"X. c #624B32",
"o. c #6D5132",
"O. c #735632",
"+. c #444444",
"@. c #4B4242",
"#. c #4C4B4B",
"$. c #514646",
"%. c #554C4B",
"&. c #5C4949",
"*. c #535353",
"=. c #5B5B5B",
"-. c #5D5753",
";. c #6F4142",
":. c #7E4343",
">. c #744B4B",
",. c #6D5757",
"<. c #635E5E",
"1. c #7E5757",
"2. c #646464",
"3. c #6E6767",
"4. c #6B6B6B",
"5. c #7B6B6B",
"6. c #776464",
"7. c #747474",
"8. c #7C7C7C",
"9. c #850202",
"0. c #8C0202",
"q. c #820C0D",
"w. c #920202",
"e. c #9B0202",
"r. c #940C0C",
"t. c #841717",
"y. c #8A1010",
"u. c #821C1C",
"i. c #891C1D",
"p. c #941415",
"a. c #921C1C",
"s. c #A00202",
"d. c #A20A0A",
"f. c #AF0303",
"g. c #B50505",
"h. c #B00909",
"j. c #AA1E1E",
"k. c #822324",
"l. c #812B2B",
"z. c #8A2B2C",
"x. c #9E2C2B",
"c. c #8A2F30",
"v. c #942F30",
"b. c #863334",
"n. c #8C3334",
"m. c #8D3939",
"M. c #933233",
"N. c #923739",
"B. c #913D3E",
"V. c #9B3939",
"C. c #A03637",
"Z. c #A33C3D",
"A. c #8C3E40",
"S. c #954444",
"D. c #994748",
"F. c #9D4A4B",
"G. c #9D4445",
"H. c #805252",
"J. c #915757",
"K. c #A54344",
"L. c #B64D4E",
"P. c #A35354",
"I. c #B15759",
"U. c #817777",
"Y. c #827F7F",
"T. c #997A7A",
"R. c #B46062",
"E. c #C25759",
"W. c #848484",
"Q. c #8B8B8B",
"!. c #8F8384",
"~. c #968D8D",
"^. c #9B9B9B",
"/. c #979393",
"(. c #AD9C9C",
"). c #A4A4A4",
"_. c #ABABAB",
"`. c #B9A7A7",
"'. c #B2B2B2",
"]. c #BAB9BA",
"[. c #BDB2B2",
"{. c #C19999",
"}. c #CF9B9B",
"|. c #C4C3C3",
" X c #CBCBCB",
".X c #D3D3D3",
"XX c gainsboro",
"oX c #FDFDFD",
/* pixels */
"                                                                                                                                ",
"                                                                                                                                ",
"                                                                                                                                ",
"                                                                                                                                ",
"                                                                                                                                ",
"                                                                                                                                ",
"                                                                                                                                ",
"                                                                                                                                ",
"                                                                                                                                ",
"                                                                                                                                ",
"                                                                                                                                ",
"                                                                                                                                ",
"                                                                                                                                ",
"                                                                                                                                ",
"                                                                                                                                ",
"                                                                                                                                ",
"                                                                                                                                ",
"                                                                                                                                ",
"                                                                                                                                ",
"                                                                                                                                ",
"                                                                                                                                ",
"                                                                                                                                ",
"                                                                                                                                ",
"                                                                                                                                ",
"                                                                                                                                ",
"                                                                                                                                ",
"                                                                                                                                ",
"                                                  9.                                                                            ",
"                                              n m p             ^ M.                                                            ",
"                                              x m y           p x t./ t                                 u                       ",
"                                                a ; n         t p y a d                               = h z                     ",
"                                                9.x c e.; p   y y t g.B ;                             % & g 2                   ",
"                                                  p ; c m c a x y x g.d t                           s & & l f                   ",
"                                                  & ; % a 0.0.d.m e.m y ; :                       C i - %                       ",
"                                                : % & - y c e.0.h.0.y t - ; ; -               k ) i :                           ",
"                                              ^ z - t p y p t a t c c t t : v N           V ( V u - %                           ",
"                                              C , & t a t t y ; x & t - n v d k.A   z ( m.c.H ^ ;                               ",
"                                              / / i - ; % ; & c n - t - m B a.y.n.) R.I.N.k t :                                 ",
"                                            n./ Z v ; O % - ; p y p ; c c a.B p M.P.F.b.z &                                     ",
"                                          N N z.Z n a y - - p ; % t 0.a p B d 0.j.( b.Q &                                       ",
"                                          d B / B p ; t ; - - ; o n c y y t y w.D M.C >                                         ",
"                                          N A t.9.m - - & & - - ; p - p y - x e.p./ C C Q                                       ",
"                                          s S M ; & O O % ; ; t y ; ; p x y - a q.Z H N j b.A.                                  ",
"                            *.8.8.      ( ^ B c c a y % % & - ; x - y y t t & & y D S d ; , l.                                  ",
"                          2.Y.)._.].  ( ^ u d a a n p % ; ; & y & p c p o ; - t ; a d.d u u i A                                 ",
"                        ^.|._.'. X X5.C i t u & & % o % ; O x   c a & m & O - y t % n t s i N s                                 ",
"                    =.W.'. X.X X_.<.I i t   ; ; y - o t o % x   a p t y p t - t y - y t A i d V                                 ",
"                    7.7.Q.|.|.8.*.E W ,.    & : c p & & -         y ; x c c y t t p n s S z g Q V                               ",
"                  8.8.8.8.4.#.#.E z J 4.    k j q.w.a t ;       a p y y ; t x t a y a Z H z.S.A.V ~.Q.                          ",
"                7.8.8.7.4.#.#.+.g > $.  2.  j V S g.n - O %     ; % ; & ; y p - - t w.S C.G.D.^ 1.|. X^.                        ",
"              2.7.4.4.2.*.#.+.Y 2 #.2.).5.) ) k k q.M y ; % % 9.  p & o - t t ; y e.r.K.L.F.( W 3._..X.X/.                      ",
"            2.2.<.#.#.*.#.r e 4 5 +.*.Q.&.C u , A Z.Z.: y ; &       t - - o t ; t x x.E.I.A.^ Y 4.7.^.|. X_.                    ",
"            2.<.*.=.+.r $ X 0 Y Y +.=.%.W u &   N i.p.t ; p -     x c p t t & p t x V K.B.( w e R *.2.8.).]._.                  ",
"          +.*.*.*.*.0 @   @ q r +.*.$.P g 2 U.  i.b s M s g = p m y ; t p ; & a a m l.l._ g q q e e r #.*.8._._./.              ",
"        r r +.#.#.0 X           < 3 h , f $.^.=.) v 7./.H.' :.Y.` y y t t a a c d B.V._ j < 0 8 $ 0 q q e r =.8.W.4.            ",
"        e r +.*.r @             g g > % { 4.4.e r $.:.{.x.a E W.7.[.T.>.` J.t.z.2.1.m.l.3 7 $ 7 X X @ $ 0 q q r =.7.4.          ",
"        X 7 r r $ X             g g f % 0 8.Q.#.+.4.6.F./ p #.%.4..X.X X|.`.S.(.T.m.n.;.8 7 0 7         X 0 q q r *.r           ",
"      @ X X 7 X X X               , u   @ q #.=.7.4.8.5.5.L 8 R +.W.).|. X].^.!.] ^ Q 1 8 7               . $ 7 7 $ $ q         ",
"    $ @ $ @ @ X X                       . X +.^.7.+.oX}.<.F  . .U ^.4.4.4.+.7 2 f g K                     . . + @ X 7 0 0       ",
"    @ @ @ @ X X X                         @ 0 r +.4.oXoX#. .%.*.X.9 <.=.=.$ # * # 3 0                       X X X + X @ 7 0     ",
"    @ @ @ @ @ X X                         r e e e r Q..X7 o.=.+.[ 9 ^.2.#.@ @ + @ e e                       . . @ + X X $ 7     ",
"  @ @ @ @   X X                             q e r *.XX).#.{ O.| U 7 2.7.q + @ X @ $ r                       . X @ @ X X X $ 7   ",
"  @ @ @ @                                     e 0 7 r r 7.*.8 8 q 0 #.*.$ + @ X @ 7                           . @ @   X X X $ 7 ",
"X X @ @                                           @ @ $ $ q 7 #.*.*.#.+.X + + X X .                           . + @     . X + $ "
};
