/* XPM */
static char *letter_w1664218993[] = {
/* columns rows colors chars-per-pixel */
"24 24 98 2 ",
"   c None",
".  c #282D44",
"X  c #292E45",
"o  c #2B2F46",
"O  c #2B3047",
"+  c #2D3248",
"@  c #30354B",
"#  c #31364C",
"$  c #33384E",
"%  c #34394E",
"&  c #373C51",
"*  c #3B4055",
"=  c #3C4156",
"-  c #3D4256",
";  c #3F4358",
":  c #404459",
">  c #43475B",
",  c #464B5E",
"<  c #55596B",
"1  c #575B6D",
"2  c #585C6E",
"3  c #5D6172",
"4  c #606475",
"5  c #616576",
"6  c #626677",
"7  c #66697A",
"8  c #686C7C",
"9  c #6D7180",
"0  c #6F7282",
"q  c #737685",
"w  c #767A88",
"e  c #797C8A",
"r  c #7C7F8D",
"t  c #7E818F",
"y  c #7F8290",
"u  c #828592",
"i  c #91939F",
"p  c #979AA5",
"a  c #989BA6",
"s  c #A1A4AE",
"d  c #A6A8B1",
"f  c #A6A9B2",
"g  c #A8AAB3",
"h  c #ABADB6",
"j  c #B4B4B4",
"k  c gray71",
"l  c #B6B6B6",
"z  c #B7B7B7",
"x  c #B1B3BC",
"c  c #B3B5BD",
"v  c #B7B9C1",
"b  c #B9BBC2",
"n  c #BABBC3",
"m  c #BCBDC4",
"M  c #BFC0C7",
"N  c #C1C3C9",
"B  c #C5C6CC",
"V  c #C7C8CE",
"C  c #C8C9CF",
"Z  c gray80",
"A  c #CACBD1",
"S  c #CDCED4",
"D  c #CECFD4",
"F  c #D0D1D6",
"G  c #D4D5DA",
"H  c gray85",
"J  c #DEDFE2",
"K  c #DFE0E3",
"L  c gray89",
"P  c #E0E1E4",
"I  c #E3E4E7",
"U  c #E6E6E6",
"Y  c #E7E7E7",
"T  c #E4E5E8",
"R  c #E6E6E9",
"E  c #E7E7EA",
"W  c #E7E8EA",
"Q  c #E8E9EB",
"!  c #EAEAEA",
"~  c gray92",
"^  c #E9EAEC",
"/  c #ECECEE",
"(  c #EDEEF0",
")  c #F3F3F5",
"_  c #F4F4F4",
"`  c #F4F4F5",
"'  c #F6F6F7",
"]  c gray97",
"[  c #F7F7F8",
"{  c #F7F8F8",
"}  c #F8F8F8",
"|  c #F8F8F9",
" . c #F9F9F9",
".. c #F9F9FA",
"X. c gray98",
"o. c #FBFBFB",
"O. c #FEFEFE",
"+. c white",
/* pixels */
"    ~ X.+.+.+.+.+.+.+.+.+.+.+.+.+.+.+.+.X.~     ",
"  ] +.+.+.+.+.+.+.+.+.+.+.+.+.+.+.+.+.+.+.+.X.  ",
"~ +.+.+.+.+.+.+.+.+.+.+.+.+.+.+.+.+.+.+.+.+.+.~ ",
"X.+.+.+.+.+.+.+.+.+.+.+.+.+.+.+.+.+.+.+.+.+.+.X.",
"+.+.+.+.X.K G R +.+.X.W T ` +.+.+.R [ +.+.+.+.+.",
"+.+.+.m + . . r +.+.y . . . K +.( . . % 8 +.+.+.",
"+.+.+.B . . . 3 +.+.; . . . g +.V . . . < +.+.+.",
"+.+.+.~ . . . - +.G . . . . 0 +.s . . . t +.+.+.",
"+.+.+.+.& . . . ] p . . . . * +.t . . . d +.+.+.",
"+.+.+.+.< . . . K 6 . . . . . I 6 . . . S +.+.+.",
"+.+.+.+.w . . . N $ . . . . . c > . . . ) +.+.+.",
"+.+.+.+.a . . . r . . O 6 . . y O . . , +.+.+.+.",
"+.+.+.+.m . . . # . . < d . . & . . . q +.+.+.+.",
"+.+.+.+.^ . . . . . . p J . . . . . . s +.+.+.+.",
"+.+.+.+.+.- . . . . . A +.; . . . . . F +.+.+.+.",
"+.+.+.+.+.7 . . . . + { +.e . . . . O X.+.+.+.+.",
"+.+.+.+.+.i . . . . 8 +.+.m . . . . < +.+.+.+.+.",
"+.+.+.+.+.b . . . . c +.+.{ # . . . u +.+.+.+.+.",
"+.+.+.+.+.] S B N A X.+.+.+.C v h b / +.+.+.+.+.",
"_ +.+.+.+.+.+.+.+.+.+.+.+.+.+.+.+.+.+.+.+.+.+._ ",
"H +.+.+.+.+.+.+.+.+.+.+.+.+.+.+.+.+.+.+.+.+.+.H ",
"j L +.+.+.+.+.+.+.+.+.+.+.+.+.+.+.+.+.+.+.+.L j ",
"  j Z L ~ / ~ ~ / ~ ~ / ~ ~ / / ~ ~ / ~ L Z z   ",
"    j j j j j j j j j j j j j z j j z j j j     "
};
