/* XPM */
static char *letter_n1664218993[] = {
/* columns rows colors chars-per-pixel */
"24 24 68 1 ",
"  c None",
". c #282D44",
"X c #292E45",
"o c #2A2F45",
"O c #2B3047",
"+ c #2E3349",
"@ c #2F344A",
"# c #31364C",
"$ c #35394F",
"% c #3B3F54",
"& c #3F4358",
"* c #41465A",
"= c #42475B",
"- c #494D61",
"; c #4D5164",
": c #686C7C",
"> c #747786",
", c #7C7F8D",
"< c #91939F",
"1 c #999BA6",
"2 c #B4B4B4",
"3 c gray71",
"4 c #B6B6B6",
"5 c #B7B7B7",
"6 c #B7B9C1",
"7 c #BFC0C7",
"8 c #C0C1C8",
"9 c #C6C7CD",
"0 c gray80",
"q c #CDCED4",
"w c #CFD0D5",
"e c #D4D5DA",
"r c gray85",
"t c #D8D9DD",
"y c #DEDFE2",
"u c gray89",
"i c #E6E6E6",
"p c #E7E7E7",
"a c #E5E5E8",
"s c #E6E6E9",
"d c #EAEAEA",
"f c gray92",
"g c #E9EAEC",
"h c #EAEAED",
"j c #EBEBED",
"k c #EDEEF0",
"l c #EEEFF0",
"z c #EFEFF1",
"x c #F1F1F3",
"c c #F2F2F3",
"v c #F3F3F5",
"b c #F4F4F4",
"n c #F4F4F5",
"m c #F5F5F6",
"M c #F6F6F7",
"N c gray97",
"B c #F7F7F8",
"V c #F7F8F8",
"C c #F8F8F8",
"Z c #F8F8F9",
"A c #F9F9F9",
"S c gray98",
"D c #FAFAFB",
"F c #FBFBFB",
"G c gray99",
"H c #FCFDFD",
"J c #FEFEFE",
"K c white",
/* pixels */
"  fSKKKKKKKKKKKKKKKKSf  ",
" NKKKKKKKKKKKKKKKKKKKKS ",
"fKKKKKKKKKKKKKKKKKKKKKKf",
"SKKKKKKKKKKKKKKKKKKKKKKS",
"KKKKKKxteyKKKKKGVKKKKKKK",
"KKKKKK+...7KKx@..+KKKKKK",
"KKKKKK....=NKx....KKKKKK",
"KKKKKK.....<Kx....GKKKKK",
"KKKKKB.....@ax....DKKKKK",
"KKKKKv......>x....DKKKKK",
"KKKKKx......o7....BKKKKK",
"KKKKKz....o..;....BKKKKK",
"KKKKKzo...,......oKKKKKK",
"KKKKKv....g&.....+KKKKKK",
"KKKKKB....v6.....$KKKKKK",
"KKKKKD....xK:...o%KKKKKK",
"KKKKKK....jKa#...=KKKKKK",
"KKKKKKo...jKK1.o.-KKKKKK",
"KKKKKKNafNKKKSq9qxKKKKKK",
"xKKKKKKKKKKKKKKKKKKKKKKx",
"rKKKKKKKKKKKKKKKKKKKKKKr",
"2iKKKKKKKKKKKKKKKKKKKKp2",
" 20ifjffffjjffjjffjfi02 ",
"  22222252222222222222  "
};
