/* XPM */
static char *letter_s1664218993[] = {
/* columns rows colors chars-per-pixel */
"24 24 74 1 ",
"  c None",
". c #282D44",
"X c #292E45",
"o c #2A2F45",
"O c #2B3047",
"+ c #2D3248",
"@ c #2F344A",
"# c #30344B",
"$ c #31364C",
"% c #404459",
"& c #515568",
"* c #525669",
"= c #535769",
"- c #54586A",
"; c #575B6D",
": c #595D6F",
"> c #5B5E70",
", c #606475",
"< c #636777",
"1 c #676B7B",
"2 c #686C7C",
"3 c #6D7180",
"4 c #767A88",
"5 c #9699A4",
"6 c #999BA6",
"7 c #A1A4AE",
"8 c #A3A5AF",
"9 c #A7A9B3",
"0 c #AAACB5",
"q c #ACAEB7",
"w c #B4B4B4",
"e c gray71",
"r c #B6B6B6",
"t c #B7B7B7",
"y c #B0B2BA",
"u c #B4B6BE",
"i c #BABBC3",
"p c #BBBCC4",
"a c #BCBEC5",
"s c #BFC0C7",
"d c #C2C4CA",
"f c #C6C7CD",
"g c #C8C9CF",
"h c gray80",
"j c #CCCED3",
"k c #CECFD4",
"l c #D2D3D8",
"z c #D5D6DA",
"x c #D6D7DB",
"c c gray85",
"v c #D9DADE",
"b c gray89",
"n c #E1E1E5",
"m c #E6E6E6",
"M c #E7E7E7",
"N c #E7E7EA",
"B c #EAEAEA",
"V c gray92",
"C c #ECECEE",
"Z c #F2F3F4",
"A c #F4F4F4",
"S c #F5F5F6",
"D c gray97",
"F c #F7F7F8",
"G c #F8F8F8",
"H c #F9F9F9",
"J c #F9F9FA",
"K c gray98",
"L c #FBFBFB",
"P c gray99",
"I c #FCFDFD",
"U c #FDFDFE",
"Y c #FEFEFE",
"T c white",
/* pixels */
"  VKTTTTTTTTTTTTTTTTKV  ",
" DTTTTTTTTTTTTTTTTTTTTG ",
"VTTTTTTTTTTTTTTTTTTTTTTV",
"KTTTTTTTTTTTTTTTTTTTTTTG",
"TTTTTTTTTTCjfxZTTTTTTTTT",
"TTTTTTTTl>.....&yTTTTTTT",
"TTTTTTTk@.......1TTTTTTT",
"TTTTTTT:........uTTTTTTT",
"TTTTTTLO...5p73-TTTTTTTT",
"TTTTTTT....2qNTTTTTTTTTT",
"TTTTTTT&......&dTTTTTTTT",
"TTTTTTTp........7TTTTTTT",
"TTTTTTTTg&......$DTTTTTT",
"TTTTTTTKVTN9:....lTTTTTT",
"TTTTTTT0O4av6....lTTTTTT",
"TTTTTTT,........%TTTTTTT",
"TTTTTTG#.......OdTTTTTTT",
"TTTTTTTa1@...O<lTTTTTTTT",
"TTTTTTTTTTnlvDTTTTTTTTTT",
"ZTTTTTTTTTTTTTTTTTTTTTTZ",
"cTTTTTTTTTTTTTTTTTTTTTTc",
"wMTTTTTTTTTTTTTTTTTTTTMw",
" whbVCVVCVVCVVCVVVVVMhw ",
"  eeewwwwwwwwwwwwwwwww  "
};
