/* XPM */
static char *letter_e1664218993[] = {
/* columns rows colors chars-per-pixel */
"24 24 58 1 ",
"  c None",
". c #282D44",
"X c #292E45",
"o c #3E4257",
"O c #464B5E",
"+ c #494D61",
"@ c #606475",
"# c #727585",
"$ c #747786",
"% c #767987",
"& c #797C8A",
"* c #818391",
"= c #828592",
"- c #838693",
"; c #858895",
": c #8A8D99",
"> c #8F919D",
", c #9597A3",
"< c #999BA6",
"1 c #9B9DA8",
"2 c #9FA1AB",
"3 c #A3A5AF",
"4 c #B4B4B4",
"5 c gray71",
"6 c #B6B6B6",
"7 c #B7B7B7",
"8 c #C0C1C8",
"9 c #C1C2C9",
"0 c #C6C7CD",
"q c gray80",
"w c #CECFD4",
"e c #CFD0D5",
"r c #D1D3D7",
"t c #D4D5DA",
"y c gray85",
"u c #DADBDF",
"i c gray89",
"p c #E0E1E4",
"a c #E2E3E6",
"s c #E6E6E6",
"d c #E7E7E7",
"f c #E8E9EB",
"g c #EAEAEA",
"h c gray92",
"j c #ECEDEF",
"k c #EDEEF0",
"l c #F1F1F3",
"z c #F2F2F3",
"x c #F4F4F4",
"c c gray97",
"v c #F7F8F8",
"b c #F8F8F8",
"n c #F9F9F9",
"m c #F9F9FA",
"M c gray98",
"N c gray99",
"B c #FEFEFE",
"V c white",
/* pixels */
"  hMVVVVVVVVVVVVVVVVMh  ",
" cVVVVVVVVVVVVVVVVVVVVc ",
"hVVVVVVVVVVVVVVVVVVVVVVh",
"MVVVVVVVVVVVVVVVVVVVVVVM",
"VVVVVVVMlljaaaaflVVVVVVV",
"VVVVVVV3.........VVVVVVV",
"VVVVVVV2.........lVVVVVV",
"VVVVVVV<.........cVVVVVV",
"VVVVVVV,...@11111VVVVVVV",
"VVVVVVV>...#00wkVVVVVVVV",
"VVVVVVV:.......*VVVVVVVV",
"VVVVVVV;.......%VVVVVVVV",
"VVVVVVV=.......&VVVVVVVV",
"VVVVVVV=...%098pVVVVVVVV",
"VVVVVVV=...#0000eVVVVVVV",
"VVVVVVV=........OVVVVVVV",
"VVVVVVV=........oVVVVVVV",
"VVVVVVV=........+VVVVVVV",
"VVVVVVVhttr00000uVVVVVVV",
"lVVVVVVVVVVVVVVVVVVVVVVl",
"yVVVVVVVVVVVVVVVVVVVVVVy",
"4iVVVVVVVVVVVVVVVVVVVVd4",
" 4qihjhhjhhjhhjhhhhhiq4 ",
"  44444444444447447444  "
};
