/* XPM */
static char *enemy_walking_01665693039[] = {
/* columns rows colors chars-per-pixel */
"64 64 128 2 ",
"   c None",
".  c #050505",
"X  c #0C0600",
"o  c #0C0905",
"O  c #070808",
"+  c #0C0C0C",
"@  c #130C02",
"#  c #190F05",
"$  c #100A0A",
"%  c #1D1206",
"&  c #13110E",
"*  c #1D150B",
"=  c #131313",
"-  c #1C1711",
";  c #171815",
":  c #1A1814",
">  c #171718",
",  c #171819",
"<  c #1C1C1C",
"1  c #211507",
"2  c #231708",
"3  c #26190A",
"4  c #2C1C0C",
"5  c #311F0E",
"6  c #241C14",
"7  c #231C1B",
"8  c #33200F",
"9  c #252215",
"0  c #2D2014",
"q  c #22211F",
"w  c #2B241B",
"e  c #252A1A",
"r  c #2D2A1A",
"t  c #352211",
"y  c #3A2512",
"u  c #3F2916",
"i  c #3A2B19",
"p  c #1E1F20",
"a  c #1F2020",
"s  c #0E353B",
"d  c #242424",
"f  c #292524",
"g  c #2B2926",
"h  c #272728",
"j  c #252B2C",
"k  c #2C2C2C",
"l  c #312D27",
"z  c #312D2B",
"x  c #2D3124",
"c  c #3C3327",
"v  c #3D3C26",
"b  c #34322C",
"n  c #3B342B",
"m  c #3A3C2D",
"M  c #253234",
"N  c #283739",
"B  c #2B3A3C",
"V  c #333333",
"C  c #3C3734",
"Z  c #373835",
"A  c #3B3B3B",
"S  c #432B16",
"D  c #4A2F17",
"F  c #432C18",
"G  c #492F18",
"H  c #4B3119",
"J  c #43392A",
"K  c #4A3E2E",
"L  c #433E35",
"P  c #483E34",
"I  c #4C412F",
"U  c #4C4133",
"Y  c #444937",
"T  c #4D4238",
"R  c #534533",
"E  c #564835",
"W  c #514438",
"Q  c #5F4F3B",
"!  c #624F3B",
"~  c #133B40",
"^  c #3F3F40",
"/  c #174349",
"(  c #1A474D",
")  c #124F57",
"_  c #1A4C53",
"`  c #1D565E",
"'  c #284144",
"]  c #3B4748",
"[  c #21575E",
"{  c #1D5A62",
"}  c #215F67",
"|  c #0A6F7C",
" . c #106672",
".. c #18717C",
"X. c #23666F",
"o. c #2C737D",
"O. c #434343",
"+. c #4A4847",
"@. c #4B4B4B",
"#. c #435052",
"$. c #4F5050",
"%. c #535353",
"&. c #5A5A5A",
"*. c #6E5844",
"=. c #715946",
"-. c #735D48",
";. c #7A624E",
":. c #656565",
">. c #6C6C6C",
",. c #747474",
"<. c gray48",
"1. c #8D7059",
"2. c #977962",
"3. c #097684",
"4. c #087D8C",
"5. c #0A8493",
"6. c #0C8C9C",
"7. c #128898",
"8. c #0E93A4",
"9. c #1193A4",
"0. c #119AAC",
"q. c #1A9AAB",
"w. c #14A4B7",
"e. c #15A8BB",
"r. c #17ACC0",
"t. c #18B0C4",
"y. c #1AB9CE",
"u. c #1DC3D9",
/* pixels */
"                                                      h h V %.%.z h                                                             ",
"                                                    k k h V @.$.V h k                                                           ",
"                                                    k k k z P +.k k V                                                           ",
"                                                    k k z f z P f f f f                                                         ",
"                                                  V b ^ { { X.3.} { _ M h                                                       ",
"                                                  d z { 6.r.y.u.w.8.4._ f                                                       ",
"                                                  < k { 5.0.r.r.8.3.3.~ 7                                                       ",
"                                                  < < ) 5.8.0.q.7.3.| ~ $                                                       ",
"                                                  Z d p ) ..] #.B  .~ k A                                                       ",
"                                                d Z k h k N A O.k N j b ^                                                       ",
"                                              %.k ^ V k k V O.+.z h p d h d A Z                                                 ",
"                                      k A +.$.+.h Z k g h V $.%.z h < < a z $.@.@.A V                                           ",
"                                    ^ +.$.&.&.$.Z k V V k k L ] A h d a a V $.&.&.O.A V                                         ",
"                                p V $.&.:.,.,.:.$.k A V k k w d A V k a d V O.$.&.$.O.V h                                       ",
"                              < k @.$.@.&.>.:.$.O.^ O.V V L k a p A k h V ^ ^ z O.^ A k h a                                     ",
"                              d V @.%.&.$.@.$.V O.@.+.@.@.A h = > d V ^ A k p k d k V k d d     ,                               ",
"                              > g V Z A ^ A h O.@.$.$.@.^ A V h V V Z +.] A $.; = = < h d < < , < <                             ",
"                              + > < d d h a & d k A A A Z A V k V ^ k %.:.^ V = . + > = z O.< < <                               ",
"                              d V @.%.+.^ h O + d k k k z k k p O.Z ^ +.Y Z k = + = = d %.>.@.<                                 ",
"                              ] &.>.,.>.&.Z + . + p h d p p < = k k A k , p a a d k k A @.@.+.c ,                               ",
"                            V +.:.,.<.,.&.^ < . . + , = = + + = + p a a < < a b m ^ ^ A C b P ;.W                               ",
"                            V +.:.,.<.>.%.Z d O + + O O O O + = > , < h A A Z m m V Z J J I ;.2.1.                              ",
"                            V O.&.,.,.&.A d = + = = + + O O , < k V V Z A A A Z h h h U ! -.2.=.=.                              ",
"                            k b V @.%.^ d < , + & + O $ = < k V A O.O.k < < a g d k b J ! ;.-.R I                               ",
"                            k h @.:.,.:.:.%.d O O O + < h k V ^ O.V h d d d k V < < A L K E U I g                               ",
"                            < h @.:.,.<.,.>.A O . > d k V O.O.Z h V k h k V k a d < k n J n g                                   ",
"                            = k +.%.>.<.,.>.+., , d k V V k k h h k h L O.h p p a < < d f g                                     ",
"                            = V O.+.&.:.&.O.V d d g h h h d g d h h p h k , > k     7 < p                                       ",
"                            & g Z A @.^ k k d d d d d d k k h d d d w - > , q m       d                                         ",
"                              e k h A h , h d d d d d h z b z d p p i 9 > q d k                                                 ",
"                                  , < d k k d d d d g h z K J g d < r 9 > , < <                                                 ",
"                                  d , @.%.d d d d d k k T ! R K q < Y v * = d d =                                               ",
"                                    < A O.k k k d k k T Q R J d g d < : = = = = + =                                             ",
"                                    d d ^ $.h b d V U R I c d h h < < , , & + + = =                                             ",
"                                        V A d h ] z l l z b g d ; > , , = = = & = +                                             ",
"                                          k h A z , > > = > > > + = > , > > , + > O                                             ",
"                                          d d V = = , > O . . + = = < d < > = + > +                                             ",
"                                          + , $ = > 7 > O O . + + > d k h < + & < ,                                             ",
"                                          O = + = , = O O O + $ + + d k k d = & < +                                             ",
"                                            O + + + = + + O = , < = d k h , , = +                                               ",
"                                            O O = + + + + O > > = < d d < < < =                                                 ",
"                                            O + + + + = + + = , < d a < < < > &                                                 ",
"                                              + $ = + + O O + < h d , < d d < +                                                 ",
"                                              O O + = + O O + , < w 0 0 f p = &                                                 ",
"                                              @ O O + O O + + 6 6 F H D i 7 2 -                                                 ",
"                                              @ o O O O O O @ 5 y G H H G y 5 4                                                 ",
"                                                # o O X o + # 3 4 y y y 8 4 3 4                                                 ",
"                                                @ # # @ @ @ + - 2 3 3 3 3 % +                                                   ",
"                                                  # @ # @ @ # t & & & $ + * 3 y                                                 ",
"                                                      X X X @ 4 t y F S y y 5 1                                                 ",
"                                                        . . @ 4 4 4 5 8 8 4 3 1                                                 ",
"                                                          . X 4 4 3 3 3 3 4 4 3                                                 ",
"                                                          X X 1 8 4 4 4 5 t t 3                                                 ",
"                                                          X X # 4 t y y t t 8 4                                                 ",
"                                                        X X @ X 2 8 y y y 8 t                                                   ",
"                                                      # @ X X X % 4 8 y y 5 3                                                   ",
"                                                      # @ @ X X % 2 5 8 4 3 4                                                   ",
"                                                      # @ X X X % 4 y y 8 2 1                                                   ",
"                                                        X X @ % y y y y y 8 4                                                   ",
"                                                            # 5 y S H F y y y                                                   ",
"                                                              y y D D F y 4 4                                                   ",
"                                                              t t 8 8 t 4 2 *                                                   ",
"                                                              = 2 * % 1 % * =                                                   ",
"                                                                + + o X o + +                                                   "
};
